<svg xmlns="http://www.w3.org/2000/svg" xmlns:xlink="http://www.w3.org/1999/xlink" width="200" zoomAndPan="magnify" viewBox="0 0 150 149.999998" height="200" preserveAspectRatio="xMidYMid meet" version="1.0"><defs><clipPath id="f0bef37821"><path d="M 75 0 C 33.578125 0 0 33.578125 0 75 C 0 116.421875 33.578125 150 75 150 C 116.421875 150 150 116.421875 150 75 C 150 33.578125 116.421875 0 75 0 Z M 75 0 " clip-rule="nonzero"/></clipPath><clipPath id="b3432fbe59"><path d="M 65 7.566406 L 71 7.566406 L 71 33 L 65 33 Z M 65 7.566406 " clip-rule="nonzero"/></clipPath><clipPath id="f45b960630"><path d="M 9.757812 78 L 34 78 L 34 85 L 9.757812 85 Z M 9.757812 78 " clip-rule="nonzero"/></clipPath><clipPath id="9eae04c49f"><path d="M 73 118 L 78 118 L 78 142.566406 L 73 142.566406 Z M 73 118 " clip-rule="nonzero"/></clipPath><clipPath id="afd2af3cdb"><path d="M 116 78 L 139.757812 78 L 139.757812 85 L 116 85 Z M 116 78 " clip-rule="nonzero"/></clipPath></defs><g clip-path="url(#f0bef37821)"><rect x="-15" width="180" fill="#5ec9cc" y="-15" height="179.999997" fill-opacity="1"/></g><path fill="#fdc330" d="M 86.269531 29.355469 C 86.269531 29.355469 86.265625 29.355469 86.261719 29.351562 C 86.269531 29.355469 86.28125 29.363281 86.289062 29.367188 C 86.285156 29.363281 86.277344 29.359375 86.269531 29.355469 Z M 86.269531 29.355469 " fill-opacity="1" fill-rule="nonzero"/><g clip-path="url(#b3432fbe59)"><path fill="#fdc330" d="M 66.808594 31.617188 C 67.269531 32 68.117188 32.488281 68.207031 31.558594 C 68.722656 26.214844 69.242188 20.875 69.757812 15.535156 C 69.90625 14.015625 70.054688 12.5 70.199219 10.984375 C 70.238281 10.59375 69.96875 10.039062 69.796875 9.71875 C 69.546875 9.265625 69.1875 8.765625 68.785156 8.433594 C 68.324219 8.050781 67.476562 7.5625 67.386719 8.492188 C 66.867188 13.832031 66.351562 19.175781 65.832031 24.515625 C 65.6875 26.03125 65.539062 27.550781 65.390625 29.0625 C 65.355469 29.453125 65.625 30.011719 65.796875 30.332031 C 66.046875 30.785156 66.40625 31.28125 66.808594 31.617188 Z M 66.808594 31.617188 " fill-opacity="1" fill-rule="nonzero"/></g><path fill="#fdc330" d="M 40.429688 34.15625 C 41.058594 35.542969 41.6875 36.929688 42.3125 38.316406 C 42.542969 38.820312 42.8125 39.289062 43.179688 39.703125 C 43.429688 39.984375 43.847656 40.40625 44.234375 40.511719 C 45.105469 40.75 45 39.742188 44.757812 39.207031 C 42.546875 34.320312 40.335938 29.433594 38.128906 24.546875 C 37.5 23.160156 36.871094 21.777344 36.246094 20.386719 C 36.019531 19.882812 35.746094 19.414062 35.378906 19 C 35.128906 18.722656 34.710938 18.300781 34.324219 18.195312 C 33.457031 17.953125 33.558594 18.964844 33.800781 19.5 C 36.011719 24.386719 38.222656 29.269531 40.429688 34.15625 Z M 40.429688 34.15625 " fill-opacity="1" fill-rule="nonzero"/><path fill="#fdc330" d="M 15.429688 47.070312 C 19.773438 50.191406 24.121094 53.3125 28.464844 56.433594 C 29.699219 57.320312 30.933594 58.203125 32.167969 59.089844 C 32.359375 59.230469 32.78125 59.417969 33.019531 59.246094 C 33.265625 59.070312 33.21875 58.621094 33.160156 58.386719 C 32.917969 57.40625 32.242188 56.511719 31.4375 55.929688 C 27.089844 52.8125 22.746094 49.6875 18.398438 46.566406 C 17.167969 45.683594 15.933594 44.796875 14.699219 43.910156 C 14.503906 43.769531 14.085938 43.582031 13.847656 43.753906 C 13.601562 43.929688 13.648438 44.378906 13.707031 44.617188 C 13.945312 45.59375 14.621094 46.488281 15.429688 47.070312 Z M 15.429688 47.070312 " fill-opacity="1" fill-rule="nonzero"/><g clip-path="url(#f45b960630)"><path fill="#fdc330" d="M 33.25 81.972656 C 33.558594 81.933594 33.582031 81.554688 33.539062 81.335938 C 33.460938 80.933594 33.128906 80.476562 32.867188 80.1875 C 32.316406 79.585938 31.425781 78.773438 30.535156 78.886719 C 25.234375 79.550781 19.933594 80.214844 14.632812 80.878906 C 13.128906 81.066406 11.621094 81.257812 10.117188 81.445312 C 9.808594 81.484375 9.789062 81.863281 9.832031 82.082031 C 9.910156 82.484375 10.238281 82.9375 10.503906 83.226562 C 11.054688 83.832031 11.941406 84.644531 12.835938 84.53125 C 18.136719 83.867188 23.4375 83.203125 28.738281 82.539062 C 30.242188 82.351562 31.746094 82.160156 33.25 81.972656 Z M 33.25 81.972656 " fill-opacity="1" fill-rule="nonzero"/></g><path fill="#fdc330" d="M 40.472656 102.785156 C 40.140625 102.414062 39.757812 102.023438 39.300781 101.820312 C 39.015625 101.691406 38.730469 101.578125 38.433594 101.753906 C 33.824219 104.460938 29.210938 107.167969 24.601562 109.878906 C 23.292969 110.648438 21.984375 111.414062 20.675781 112.183594 C 20.421875 112.332031 20.566406 112.882812 20.621094 113.054688 C 20.769531 113.515625 21.097656 114 21.414062 114.355469 C 21.746094 114.722656 22.128906 115.113281 22.585938 115.320312 C 22.871094 115.445312 23.15625 115.558594 23.453125 115.386719 C 28.0625 112.675781 32.675781 109.96875 37.285156 107.261719 C 38.59375 106.492188 39.90625 105.722656 41.214844 104.953125 C 41.464844 104.808594 41.320312 104.257812 41.265625 104.085938 C 41.117188 103.625 40.789062 103.136719 40.472656 102.785156 Z M 40.472656 102.785156 " fill-opacity="1" fill-rule="nonzero"/><path fill="#fdc330" d="M 56.570312 114.320312 C 56.285156 114.015625 55.933594 113.628906 55.519531 113.515625 C 55.214844 113.429688 55.046875 113.453125 54.855469 113.722656 C 51.746094 118.089844 48.640625 122.453125 45.535156 126.820312 C 44.652344 128.058594 43.769531 129.300781 42.886719 130.539062 C 42.71875 130.777344 42.949219 131.429688 43.027344 131.632812 C 43.21875 132.121094 43.542969 132.636719 43.894531 133.019531 C 44.179688 133.328125 44.53125 133.714844 44.949219 133.828125 C 45.25 133.910156 45.421875 133.886719 45.613281 133.617188 C 48.71875 129.253906 51.824219 124.886719 54.933594 120.519531 C 55.8125 119.28125 56.695312 118.042969 57.578125 116.804688 C 57.75 116.5625 57.519531 115.910156 57.4375 115.707031 C 57.246094 115.222656 56.921875 114.703125 56.570312 114.320312 Z M 56.570312 114.320312 " fill-opacity="1" fill-rule="nonzero"/><g clip-path="url(#9eae04c49f)"><path fill="#fdc330" d="M 76.984375 125.546875 C 76.90625 124.023438 76.832031 122.503906 76.757812 120.980469 C 76.738281 120.589844 76.390625 120.078125 76.171875 119.789062 C 75.859375 119.375 75.429688 118.9375 74.984375 118.664062 C 74.472656 118.351562 73.5625 117.992188 73.609375 118.929688 C 73.875 124.289062 74.140625 129.648438 74.40625 135.007812 C 74.484375 136.53125 74.558594 138.050781 74.632812 139.574219 C 74.652344 139.964844 75 140.476562 75.21875 140.765625 C 75.53125 141.179688 75.960938 141.617188 76.40625 141.890625 C 76.917969 142.199219 77.828125 142.558594 77.78125 141.625 C 77.515625 136.265625 77.25 130.90625 76.984375 125.546875 Z M 76.984375 125.546875 " fill-opacity="1" fill-rule="nonzero"/></g><path fill="#fdc330" d="M 97.640625 119.863281 C 97.015625 118.476562 96.386719 117.089844 95.757812 115.703125 C 95.53125 115.199219 95.261719 114.730469 94.890625 114.316406 C 94.640625 114.035156 94.222656 113.613281 93.839844 113.507812 C 92.96875 113.265625 93.070312 114.277344 93.316406 114.8125 C 95.523438 119.699219 97.734375 124.582031 99.945312 129.46875 C 100.574219 130.855469 101.199219 132.242188 101.828125 133.628906 C 102.054688 134.132812 102.324219 134.601562 102.695312 135.015625 C 102.945312 135.296875 103.363281 135.71875 103.746094 135.824219 C 104.617188 136.066406 104.515625 135.054688 104.269531 134.519531 C 102.0625 129.632812 99.851562 124.75 97.640625 119.863281 Z M 97.640625 119.863281 " fill-opacity="1" fill-rule="nonzero"/><path fill="#fdc330" d="M 126.3125 114.945312 C 121.96875 111.824219 117.621094 108.703125 113.277344 105.582031 C 112.042969 104.699219 110.808594 103.8125 109.578125 102.925781 C 109.382812 102.785156 108.964844 102.597656 108.722656 102.769531 C 108.476562 102.945312 108.523438 103.394531 108.582031 103.628906 C 108.824219 104.609375 109.5 105.503906 110.308594 106.085938 C 114.652344 109.207031 119 112.328125 123.34375 115.449219 C 124.578125 116.332031 125.8125 117.21875 127.042969 118.105469 C 127.238281 118.246094 127.65625 118.433594 127.898438 118.261719 C 128.144531 118.085938 128.09375 117.636719 128.039062 117.402344 C 127.796875 116.421875 127.121094 115.527344 126.3125 114.945312 Z M 126.3125 114.945312 " fill-opacity="1" fill-rule="nonzero"/><g clip-path="url(#afd2af3cdb)"><path fill="#fdc330" d="M 139.324219 82.691406 C 138.921875 81.976562 138.230469 80.992188 137.332031 80.902344 C 132.019531 80.382812 126.699219 79.863281 121.382812 79.34375 C 119.875 79.195312 118.367188 79.046875 116.859375 78.898438 C 116.550781 78.871094 116.445312 79.234375 116.4375 79.460938 C 116.425781 79.867188 116.648438 80.382812 116.84375 80.726562 C 117.246094 81.4375 117.9375 82.421875 118.832031 82.511719 C 124.148438 83.03125 129.46875 83.550781 134.785156 84.070312 C 136.292969 84.21875 137.800781 84.367188 139.308594 84.515625 C 139.617188 84.542969 139.722656 84.179688 139.730469 83.957031 C 139.742188 83.546875 139.515625 83.03125 139.324219 82.691406 Z M 139.324219 82.691406 " fill-opacity="1" fill-rule="nonzero"/></g><path fill="#fdc330" d="M 109.167969 55.765625 C 114.03125 53.546875 118.894531 51.328125 123.757812 49.105469 C 125.136719 48.476562 126.519531 47.847656 127.898438 47.214844 C 128.164062 47.09375 128.078125 46.535156 128.039062 46.355469 C 127.9375 45.882812 127.664062 45.367188 127.382812 44.980469 C 127.089844 44.582031 126.75 44.152344 126.316406 43.902344 C 126.046875 43.742188 125.773438 43.605469 125.460938 43.746094 C 120.597656 45.964844 115.738281 48.183594 110.871094 50.40625 C 109.492188 51.035156 108.113281 51.667969 106.730469 52.296875 C 106.46875 52.417969 106.554688 52.980469 106.589844 53.15625 C 106.691406 53.628906 106.96875 54.144531 107.246094 54.53125 C 107.539062 54.929688 107.882812 55.359375 108.316406 55.609375 C 108.585938 55.769531 108.859375 55.910156 109.167969 55.765625 Z M 109.167969 55.765625 " fill-opacity="1" fill-rule="nonzero"/><path fill="#fdc330" d="M 103.371094 18.488281 C 103.089844 18.179688 102.734375 17.792969 102.320312 17.679688 C 102.015625 17.597656 101.847656 17.621094 101.65625 17.890625 C 98.550781 22.253906 95.441406 26.621094 92.335938 30.984375 C 91.453125 32.226562 90.574219 33.464844 89.691406 34.703125 C 89.519531 34.945312 89.75 35.597656 89.832031 35.796875 C 90.019531 36.285156 90.34375 36.804688 90.699219 37.1875 C 90.984375 37.492188 91.335938 37.878906 91.75 37.992188 C 92.054688 38.078125 92.222656 38.050781 92.414062 37.785156 C 95.519531 33.417969 98.628906 29.050781 101.734375 24.6875 C 102.617188 23.449219 103.5 22.207031 104.378906 20.96875 C 104.550781 20.730469 104.320312 20.078125 104.242188 19.875 C 104.050781 19.386719 103.726562 18.871094 103.371094 18.488281 Z M 103.371094 18.488281 " fill-opacity="1" fill-rule="nonzero"/><path fill="#fdc330" d="M 97.851562 96.566406 C 99.113281 95.167969 99.992188 93.441406 100.546875 91.648438 C 100.960938 90.316406 101.15625 88.945312 101.222656 87.5625 C 101.285156 87.449219 101.339844 87.335938 101.394531 87.21875 C 102.179688 85.566406 102.667969 83.828125 102.816406 82.003906 C 103.011719 79.539062 102.71875 77.082031 102.035156 74.730469 C 102.035156 74.6875 102.035156 74.644531 102.035156 74.597656 C 101.945312 70.699219 100.988281 66.898438 99.449219 63.328125 C 97.910156 59.769531 95.683594 56.503906 93.003906 53.714844 C 90.136719 50.738281 86.699219 48.34375 82.9375 46.664062 C 78.894531 44.855469 74.410156 43.921875 69.988281 43.863281 C 65.613281 43.804688 61.1875 44.578125 57.140625 46.269531 C 53.265625 47.894531 49.859375 50.320312 46.996094 53.398438 C 44.304688 56.285156 42.269531 59.722656 40.90625 63.425781 C 39.542969 67.117188 38.996094 71.082031 39.296875 75.011719 C 39.425781 76.675781 39.726562 78.332031 40.207031 79.929688 C 40.367188 82.226562 40.828125 84.496094 41.609375 86.65625 C 42.988281 90.464844 45.152344 93.894531 47.964844 96.804688 C 50.808594 99.742188 54.265625 102.085938 58.003906 103.714844 C 62.074219 105.488281 66.585938 106.367188 71.023438 106.316406 C 75.53125 106.261719 80.058594 105.34375 84.167969 103.453125 C 85.539062 102.820312 86.851562 102.09375 88.101562 101.273438 C 89.742188 101.09375 91.359375 100.722656 92.898438 100.078125 C 94.804688 99.28125 96.464844 98.105469 97.851562 96.566406 Z M 47.484375 82.777344 C 47.101562 82.0625 46.753906 81.324219 46.453125 80.570312 C 45.945312 79.199219 45.589844 77.785156 45.386719 76.347656 C 45.511719 75.09375 45.726562 73.851562 46.039062 72.632812 C 46.167969 73.519531 46.429688 74.367188 46.773438 75.210938 C 46.953125 75.648438 47.160156 76.066406 47.398438 76.460938 C 47.132812 78.683594 47.269531 80.949219 47.898438 83.089844 C 47.910156 83.132812 47.925781 83.175781 47.9375 83.214844 C 47.785156 83.074219 47.632812 82.925781 47.484375 82.777344 Z M 93.558594 76.839844 C 93.566406 76.851562 93.570312 76.867188 93.578125 76.878906 C 93.664062 77.113281 93.746094 77.355469 93.820312 77.59375 C 93.703125 77.761719 93.574219 77.925781 93.4375 78.082031 C 93.507812 77.671875 93.546875 77.257812 93.558594 76.839844 Z M 63.601562 48.230469 C 65.195312 47.828125 66.816406 47.554688 68.457031 47.417969 C 68.484375 47.550781 68.535156 47.683594 68.617188 47.808594 C 68.945312 48.332031 69.441406 48.625 69.984375 48.894531 C 70.132812 48.96875 70.28125 49.042969 70.429688 49.117188 C 71.929688 49.898438 73.390625 50.753906 74.804688 51.683594 C 74.742188 51.675781 74.679688 51.671875 74.617188 51.664062 C 73.726562 51.3125 72.820312 51 71.890625 50.722656 C 68 49.570312 63.769531 49.328125 59.769531 49.992188 C 59.296875 50.074219 58.828125 50.164062 58.355469 50.269531 C 60.035156 49.414062 61.792969 48.734375 63.601562 48.230469 Z M 78.464844 86.183594 C 78.070312 86.335938 77.664062 86.46875 77.257812 86.589844 C 76.296875 86.824219 75.316406 86.96875 74.332031 87.050781 C 72.648438 87.132812 70.960938 87.035156 69.289062 86.851562 C 69.019531 86.816406 68.75 86.78125 68.480469 86.746094 C 67.96875 86.613281 67.460938 86.476562 66.957031 86.328125 C 65.324219 85.820312 63.726562 85.203125 62.195312 84.445312 C 61.507812 84.078125 60.835938 83.683594 60.1875 83.25 C 62.15625 83.527344 64.152344 83.648438 66.140625 83.671875 C 66.183594 83.671875 66.226562 83.671875 66.269531 83.671875 C 67.289062 83.984375 68.324219 84.257812 69.375 84.449219 C 69.382812 84.453125 69.390625 84.453125 69.398438 84.453125 C 70.933594 84.949219 72.535156 85.246094 74.140625 85.351562 C 75.566406 85.710938 77 86.003906 78.464844 86.183594 Z M 78.292969 78.972656 C 78.316406 78.957031 78.34375 78.941406 78.371094 78.921875 C 80.769531 77.355469 82.722656 74.9375 83.761719 72.214844 C 83.78125 72.257812 83.796875 72.296875 83.816406 72.339844 C 83.742188 73.324219 83.515625 74.289062 83.148438 75.210938 C 82.652344 76.28125 81.972656 77.25 81.164062 78.105469 C 80.875 78.382812 80.574219 78.648438 80.261719 78.898438 C 80.09375 78.917969 79.921875 78.933594 79.753906 78.945312 C 79.265625 78.96875 78.777344 78.976562 78.292969 78.972656 Z M 69.175781 93.472656 C 68.726562 93.539062 68.269531 93.589844 67.816406 93.628906 C 66.960938 93.664062 66.105469 93.644531 65.257812 93.566406 C 64.890625 93.515625 64.527344 93.457031 64.167969 93.386719 C 63.941406 93.324219 63.714844 93.257812 63.488281 93.195312 C 63.035156 93.070312 62.582031 92.945312 62.128906 92.816406 C 61.566406 92.605469 61.011719 92.367188 60.472656 92.097656 C 60.28125 91.996094 60.09375 91.890625 59.910156 91.78125 C 62.964844 92.484375 66.058594 93.140625 69.175781 93.472656 Z M 68.660156 68.542969 C 68.960938 68.292969 69.28125 68.066406 69.613281 67.859375 C 69.734375 67.859375 69.855469 67.863281 69.976562 67.867188 C 70.007812 67.890625 70.035156 67.914062 70.066406 67.9375 C 70.160156 68.015625 70.25 68.09375 70.339844 68.175781 C 70.199219 68.1875 70.054688 68.203125 69.917969 68.222656 C 69.492188 68.28125 69.066406 68.386719 68.660156 68.542969 Z M 71.261719 71.945312 C 71.347656 71.875 71.4375 71.808594 71.53125 71.746094 C 71.546875 71.742188 71.5625 71.734375 71.574219 71.726562 C 71.613281 71.785156 71.648438 71.835938 71.6875 71.886719 C 71.542969 71.894531 71.398438 71.914062 71.261719 71.945312 Z M 57.257812 78.710938 C 57.519531 78.957031 57.789062 79.1875 58.066406 79.417969 C 57.78125 79.347656 57.496094 79.277344 57.214844 79.195312 C 57.152344 79.179688 57.09375 79.160156 57.03125 79.140625 C 56.941406 78.847656 56.859375 78.546875 56.789062 78.25 C 56.941406 78.40625 57.097656 78.558594 57.257812 78.710938 Z M 56.652344 87.464844 C 56.4375 87.40625 56.226562 87.34375 56.011719 87.28125 C 55.578125 87.144531 55.140625 87.003906 54.710938 86.855469 C 54.601562 86.6875 54.5 86.519531 54.398438 86.347656 C 55.121094 86.777344 55.878906 87.144531 56.652344 87.464844 Z M 76.671875 101.941406 C 74.972656 102.375 73.242188 102.65625 71.496094 102.785156 C 69.941406 102.863281 68.390625 102.820312 66.84375 102.65625 C 65.449219 102.472656 64.070312 102.1875 62.71875 101.800781 C 61.359375 101.367188 60.035156 100.832031 58.753906 100.199219 C 57.289062 99.425781 55.894531 98.523438 54.582031 97.507812 C 53.039062 96.253906 51.625 94.84375 50.375 93.289062 C 49.984375 92.777344 49.605469 92.25 49.25 91.710938 C 49.628906 91.933594 50.011719 92.144531 50.402344 92.34375 C 50.863281 92.703125 51.335938 93.054688 51.816406 93.390625 C 55.007812 95.628906 58.601562 97.359375 62.3125 98.53125 C 67.007812 100.011719 71.949219 100.871094 76.878906 100.609375 C 77.175781 100.59375 77.46875 100.570312 77.761719 100.550781 C 78.410156 100.683594 79.066406 100.804688 79.71875 100.910156 C 78.722656 101.3125 77.707031 101.65625 76.671875 101.941406 Z M 81.261719 96.300781 C 79.996094 96.621094 78.710938 96.851562 77.414062 97 C 76.355469 96.761719 75.304688 96.492188 74.257812 96.207031 C 75.425781 95.867188 76.5625 95.433594 77.652344 94.914062 C 77.996094 94.753906 78.332031 94.578125 78.667969 94.402344 C 80.671875 94.738281 82.691406 94.992188 84.714844 95.070312 C 83.597656 95.558594 82.445312 95.96875 81.261719 96.300781 Z M 83.730469 53.703125 C 82.769531 52.875 81.78125 52.074219 80.769531 51.308594 C 79.105469 50.054688 77.371094 48.914062 75.578125 47.875 C 76.34375 48.03125 77.105469 48.21875 77.859375 48.4375 C 79.261719 48.878906 80.632812 49.429688 81.953125 50.082031 C 83.429688 50.863281 84.832031 51.773438 86.152344 52.796875 C 87.734375 54.082031 89.1875 55.527344 90.484375 57.101562 C 88.390625 55.695312 86.109375 54.566406 83.730469 53.703125 Z M 93.761719 83.90625 C 93.363281 84.75 92.835938 85.515625 92.203125 86.195312 C 91.550781 86.816406 90.820312 87.347656 90.039062 87.796875 C 89.421875 88.109375 88.78125 88.375 88.125 88.589844 C 89.730469 87.140625 91.070312 85.367188 91.898438 83.378906 C 92.65625 83.230469 93.402344 83.03125 94.125 82.761719 C 94.03125 83.148438 93.90625 83.53125 93.761719 83.90625 Z M 93.761719 83.90625 " fill-opacity="1" fill-rule="nonzero"/></svg>