<svg xmlns="http://www.w3.org/2000/svg" xmlns:xlink="http://www.w3.org/1999/xlink" width="200" zoomAndPan="magnify" viewBox="0 0 150 149.999998" height="200" preserveAspectRatio="xMidYMid meet" version="1.0"><defs><clipPath id="7abd299594"><path d="M 75 0 C 33.578125 0 0 33.578125 0 75 C 0 116.421875 33.578125 150 75 150 C 116.421875 150 150 116.421875 150 75 C 150 33.578125 116.421875 0 75 0 Z M 75 0 " clip-rule="nonzero"/></clipPath><clipPath id="3ee47f872e"><path d="M 24 24.363281 L 127.648438 24.363281 L 127.648438 125 L 24 125 Z M 24 24.363281 " clip-rule="nonzero"/></clipPath><clipPath id="da0d59d81c"><path d="M 52 24.363281 L 64 24.363281 L 64 28 L 52 28 Z M 52 24.363281 " clip-rule="nonzero"/></clipPath><clipPath id="18a7cffd32"><path d="M 46 116 L 106 116 L 106 125.613281 L 46 125.613281 Z M 46 116 " clip-rule="nonzero"/></clipPath><clipPath id="daf1a6da86"><path d="M 107 82 L 127.648438 82 L 127.648438 116 L 107 116 Z M 107 82 " clip-rule="nonzero"/></clipPath></defs><g clip-path="url(#7abd299594)"><rect x="-15" width="180" fill="#30526a" y="-15" height="179.999997" fill-opacity="1"/></g><path fill="#f7bfd5" d="M 88.203125 49.621094 L 88.6875 50.605469 C 88.953125 51.140625 89.46875 51.511719 90.0625 51.597656 L 91.148438 51.757812 C 92.644531 51.972656 93.242188 53.804688 92.160156 54.855469 L 91.371094 55.621094 C 90.941406 56.039062 90.746094 56.640625 90.847656 57.230469 L 91.035156 58.308594 C 91.289062 59.792969 89.726562 60.925781 88.390625 60.226562 L 87.414062 59.714844 C 86.886719 59.4375 86.25 59.4375 85.71875 59.714844 L 84.746094 60.226562 C 83.410156 60.925781 81.84375 59.792969 82.101562 58.308594 L 82.285156 57.230469 C 82.386719 56.640625 82.191406 56.039062 81.761719 55.621094 L 80.976562 54.855469 C 79.894531 53.804688 80.488281 51.972656 81.984375 51.757812 L 83.074219 51.597656 C 83.667969 51.511719 84.179688 51.140625 84.445312 50.605469 L 84.933594 49.621094 C 85.601562 48.269531 87.535156 48.269531 88.203125 49.621094 Z M 88.203125 49.621094 " fill-opacity="1" fill-rule="nonzero"/><path fill="#fff0a6" d="M 71.183594 65.308594 L 71.753906 66.460938 C 72.066406 67.089844 72.667969 67.523438 73.363281 67.625 L 74.640625 67.8125 C 76.394531 68.066406 77.09375 70.214844 75.824219 71.445312 L 74.902344 72.34375 C 74.398438 72.835938 74.167969 73.539062 74.285156 74.230469 L 74.503906 75.5 C 74.804688 77.238281 72.96875 78.566406 71.402344 77.746094 L 70.257812 77.148438 C 69.636719 76.820312 68.890625 76.820312 68.269531 77.148438 L 67.128906 77.746094 C 65.558594 78.566406 63.726562 77.238281 64.027344 75.5 L 64.242188 74.230469 C 64.363281 73.539062 64.132812 72.835938 63.628906 72.34375 L 62.703125 71.445312 C 61.4375 70.214844 62.136719 68.066406 63.890625 67.8125 L 65.167969 67.625 C 65.863281 67.527344 66.464844 67.089844 66.777344 66.460938 L 67.347656 65.308594 C 68.132812 63.722656 70.398438 63.722656 71.183594 65.308594 Z M 71.183594 65.308594 " fill-opacity="1" fill-rule="nonzero"/><path fill="#d9eef6" d="M 91.941406 75.207031 L 92.265625 75.867188 C 92.445312 76.230469 92.789062 76.480469 93.191406 76.539062 L 93.921875 76.644531 C 94.925781 76.789062 95.328125 78.019531 94.601562 78.726562 L 94.070312 79.242188 C 93.78125 79.523438 93.648438 79.925781 93.71875 80.324219 L 93.84375 81.050781 C 94.015625 82.046875 92.964844 82.808594 92.066406 82.335938 L 91.410156 81.992188 C 91.054688 81.804688 90.628906 81.804688 90.269531 81.992188 L 89.617188 82.335938 C 88.71875 82.808594 87.667969 82.046875 87.835938 81.050781 L 87.960938 80.324219 C 88.03125 79.925781 87.898438 79.523438 87.609375 79.242188 L 87.082031 78.726562 C 86.351562 78.019531 86.753906 76.789062 87.757812 76.644531 L 88.492188 76.539062 C 88.890625 76.480469 89.234375 76.230469 89.414062 75.867188 L 89.742188 75.207031 C 90.191406 74.300781 91.492188 74.300781 91.941406 75.207031 Z M 91.941406 75.207031 " fill-opacity="1" fill-rule="nonzero"/><g clip-path="url(#3ee47f872e)"><path fill="#b0b1d9" d="M 127.074219 84.265625 C 127.125 83.628906 126.816406 83.023438 126.171875 82.839844 C 125.578125 82.671875 124.871094 82.925781 124.625 83.527344 C 121.566406 90.984375 113.675781 95.0625 106.042969 96.566406 C 96.613281 98.421875 86.503906 97.136719 77.65625 93.488281 C 68.9375 89.894531 60.9375 83.867188 56.253906 75.578125 C 51.816406 67.730469 50.601562 58.242188 51.6875 49.390625 C 52.179688 45.378906 53.089844 41.515625 54.636719 37.828125 C 56.109375 34.3125 58.171875 30.941406 61.058594 28.539062 C 61.769531 27.945312 62.527344 27.414062 63.320312 26.9375 C 63.570312 26.789062 63.722656 26.542969 63.796875 26.273438 C 63.804688 26.242188 63.808594 26.210938 63.816406 26.183594 C 63.824219 26.152344 63.832031 26.121094 63.835938 26.085938 C 63.851562 25.980469 63.863281 25.867188 63.847656 25.75 C 63.835938 25.636719 63.800781 25.523438 63.753906 25.417969 C 63.738281 25.375 63.722656 25.332031 63.699219 25.292969 C 63.695312 25.28125 63.6875 25.273438 63.679688 25.261719 C 63.660156 25.21875 63.636719 25.175781 63.609375 25.136719 C 63.492188 24.976562 63.347656 24.855469 63.191406 24.769531 C 62.960938 24.636719 62.695312 24.570312 62.421875 24.613281 C 55.742188 25.703125 49.421875 28.503906 44.011719 32.542969 C 38.304688 36.808594 33.703125 42.371094 30.40625 48.667969 C 26.867188 55.421875 24.835938 62.972656 24.242188 70.554688 C 23.628906 78.335938 24.402344 86.3125 27.199219 93.644531 C 29.589844 99.90625 33.421875 105.558594 38.183594 110.269531 C 42.960938 115.003906 48.746094 118.757812 55.023438 121.195312 C 62.164062 123.964844 69.871094 125.113281 77.515625 124.742188 C 84.738281 124.394531 91.921875 122.65625 98.488281 119.632812 C 104.582031 116.828125 110.15625 112.96875 114.855469 108.1875 C 119.800781 103.152344 123.882812 96.941406 125.929688 90.164062 C 126.511719 88.238281 126.917969 86.273438 127.074219 84.265625 Z M 127.074219 84.265625 " fill-opacity="1" fill-rule="nonzero"/></g><path fill="#644394" d="M 26.164062 59.53125 C 27.558594 54.371094 29.828125 49.46875 32.820312 45.035156 C 35.816406 40.589844 39.542969 36.617188 43.800781 33.347656 C 46.199219 31.507812 48.773438 29.894531 51.476562 28.535156 C 51.894531 28.320312 51.523438 27.695312 51.105469 27.90625 C 46.246094 30.355469 41.816406 33.628906 38.015625 37.515625 C 34.21875 41.402344 31.035156 45.898438 28.664062 50.78125 C 27.332031 53.527344 26.257812 56.394531 25.460938 59.339844 C 25.335938 59.792969 26.042969 59.984375 26.164062 59.53125 Z M 26.164062 59.53125 " fill-opacity="1" fill-rule="nonzero"/><g clip-path="url(#da0d59d81c)"><path fill="#644394" d="M 52.78125 27.929688 C 56.25 26.441406 59.996094 25.789062 63.695312 25.148438 C 64.15625 25.070312 63.960938 24.367188 63.5 24.449219 C 59.730469 25.101562 55.945312 25.78125 52.414062 27.300781 C 51.984375 27.484375 52.355469 28.113281 52.78125 27.929688 Z M 52.78125 27.929688 " fill-opacity="1" fill-rule="nonzero"/></g><path fill="#644394" d="M 52.507812 46.464844 C 52.785156 43.242188 53.976562 40.203125 55.324219 37.292969 C 55.984375 35.863281 56.632812 34.402344 57.507812 33.085938 C 58.371094 31.792969 59.441406 30.617188 60.53125 29.507812 C 61.789062 28.222656 63.152344 27.039062 64.59375 25.96875 C 64.96875 25.691406 64.605469 25.058594 64.226562 25.339844 C 61.65625 27.25 59.273438 29.488281 57.347656 32.054688 C 56.324219 33.417969 55.609375 34.96875 54.886719 36.507812 C 54.195312 37.984375 53.535156 39.480469 52.996094 41.019531 C 52.378906 42.78125 51.9375 44.597656 51.777344 46.464844 C 51.734375 46.929688 52.464844 46.925781 52.507812 46.464844 Z M 52.507812 46.464844 " fill-opacity="1" fill-rule="nonzero"/><path fill="#644394" d="M 57.089844 76.1875 C 55.054688 73.3125 53.761719 70.019531 52.945312 66.613281 C 52.105469 63.109375 51.667969 59.464844 51.527344 55.867188 C 51.4375 53.640625 51.554688 51.410156 52.164062 49.257812 C 52.289062 48.804688 51.585938 48.613281 51.457031 49.0625 C 50.390625 52.84375 50.75 56.867188 51.195312 60.714844 C 51.613281 64.304688 52.296875 67.894531 53.628906 71.265625 C 54.367188 73.132812 55.296875 74.914062 56.457031 76.554688 C 56.726562 76.933594 57.359375 76.570312 57.089844 76.1875 Z M 57.089844 76.1875 " fill-opacity="1" fill-rule="nonzero"/><path fill="#644394" d="M 43.457031 114.109375 C 40.101562 112.484375 37.417969 109.824219 35.210938 106.871094 C 32.953125 103.847656 31.050781 100.542969 29.445312 97.136719 C 26.191406 90.21875 24.238281 82.640625 24.023438 74.992188 C 23.902344 70.691406 24.34375 66.390625 25.390625 62.210938 C 25.503906 61.757812 24.800781 61.5625 24.6875 62.019531 C 22.792969 69.585938 22.882812 77.53125 24.566406 85.125 C 26.242188 92.695312 29.460938 100.035156 33.949219 106.371094 C 36.355469 109.765625 39.292969 112.894531 43.085938 114.738281 C 43.507812 114.941406 43.878906 114.316406 43.457031 114.109375 Z M 43.457031 114.109375 " fill-opacity="1" fill-rule="nonzero"/><g clip-path="url(#18a7cffd32)"><path fill="#644394" d="M 46.5 117.246094 C 53.414062 121.667969 61.453125 124.015625 69.585938 124.820312 C 77.589844 125.613281 85.96875 125.148438 93.691406 122.804688 C 97.96875 121.507812 102.058594 119.570312 105.621094 116.863281 C 105.992188 116.585938 105.628906 115.953125 105.253906 116.238281 C 98.925781 121.039062 91.082031 123.316406 83.25 124.089844 C 75.246094 124.882812 66.992188 124.363281 59.242188 122.140625 C 54.878906 120.890625 50.695312 119.0625 46.871094 116.617188 C 46.472656 116.363281 46.105469 116.992188 46.5 117.246094 Z M 46.5 117.246094 " fill-opacity="1" fill-rule="nonzero"/></g><g clip-path="url(#daf1a6da86)"><path fill="#644394" d="M 108.277344 115.214844 C 110.414062 113.863281 112.15625 111.921875 113.886719 110.101562 C 115.636719 108.261719 117.324219 106.359375 118.886719 104.355469 C 121.996094 100.375 124.617188 95.980469 126.128906 91.144531 C 126.972656 88.441406 127.453125 85.621094 127.46875 82.785156 C 127.472656 82.320312 126.742188 82.316406 126.738281 82.785156 C 126.675781 92.957031 120.695312 101.75 113.992188 108.925781 C 112.128906 110.921875 110.234375 113.117188 107.90625 114.585938 C 107.511719 114.835938 107.878906 115.46875 108.277344 115.214844 Z M 108.277344 115.214844 " fill-opacity="1" fill-rule="nonzero"/></g><path fill="#644394" d="M 58.84375 80.175781 C 63.125 84.835938 68.257812 88.714844 73.921875 91.558594 C 79.953125 94.585938 86.554688 96.410156 93.285156 96.941406 C 97.222656 97.25 101.179688 97.101562 105.085938 96.527344 C 105.546875 96.460938 105.351562 95.757812 104.890625 95.828125 C 98.046875 96.832031 91.011719 96.445312 84.320312 94.703125 C 78.179688 93.105469 72.367188 90.351562 67.222656 86.648438 C 64.367188 84.597656 61.734375 82.246094 59.359375 79.660156 C 59.042969 79.3125 58.527344 79.828125 58.84375 80.175781 Z M 58.84375 80.175781 " fill-opacity="1" fill-rule="nonzero"/><path fill="#644394" d="M 108.640625 95.839844 C 114.269531 94.394531 119.425781 91.253906 123.3125 86.941406 C 124.414062 85.714844 125.410156 84.398438 126.292969 83.007812 C 126.542969 82.613281 125.914062 82.246094 125.660156 82.640625 C 122.632812 87.417969 118.179688 91.234375 113.011719 93.550781 C 111.539062 94.210938 110.011719 94.738281 108.449219 95.140625 C 107.992188 95.257812 108.183594 95.957031 108.640625 95.839844 Z M 108.640625 95.839844 " fill-opacity="1" fill-rule="nonzero"/><path fill="#644394" d="M 83.867188 51.601562 C 84.941406 51.128906 85.183594 49.871094 86.128906 49.273438 C 87.40625 48.476562 87.976562 50.519531 88.503906 51.253906 C 89.1875 52.207031 90.152344 52.210938 91.222656 52.332031 C 91.878906 52.40625 92.605469 52.691406 92.585938 53.480469 C 92.570312 53.9375 92.261719 54.3125 91.960938 54.628906 C 91.363281 55.261719 90.621094 55.84375 90.441406 56.742188 C 90.242188 57.746094 91.046875 59.273438 89.949219 59.925781 C 89.664062 60.09375 89.257812 60.21875 88.925781 60.203125 C 88.597656 60.183594 88.367188 59.980469 88.101562 59.820312 C 87.613281 59.53125 87.0625 59.367188 86.492188 59.339844 C 85.851562 59.3125 85.277344 59.527344 84.679688 59.726562 C 84.097656 59.921875 83.238281 60.160156 82.832031 59.53125 C 82.441406 58.925781 82.789062 58.027344 82.777344 57.371094 C 82.765625 56.730469 82.515625 56.214844 82.128906 55.714844 C 81.707031 55.164062 81.222656 54.632812 81.066406 53.933594 C 80.910156 53.222656 81.253906 52.296875 82.101562 52.296875 C 82.570312 52.296875 82.574219 51.570312 82.101562 51.570312 C 80.773438 51.570312 80.09375 52.953125 80.363281 54.125 C 80.527344 54.832031 80.964844 55.414062 81.40625 55.96875 C 81.644531 56.265625 81.890625 56.574219 81.992188 56.945312 C 82.109375 57.371094 82.015625 57.832031 81.972656 58.261719 C 81.90625 58.882812 81.914062 59.585938 82.339844 60.089844 C 82.746094 60.574219 83.390625 60.714844 83.996094 60.644531 C 84.800781 60.554688 85.511719 60.078125 86.328125 60.066406 C 86.738281 60.058594 87.144531 60.152344 87.511719 60.328125 C 87.828125 60.480469 88.089844 60.722656 88.425781 60.839844 C 89.609375 61.253906 91.101562 60.378906 91.246094 59.140625 C 91.324219 58.46875 91.085938 57.804688 91.125 57.132812 C 91.164062 56.5 91.570312 56.054688 91.996094 55.625 C 92.738281 54.878906 93.636719 53.996094 93.199219 52.84375 C 92.632812 51.34375 91.042969 51.832031 89.847656 51.421875 C 89.027344 51.136719 88.796875 50.214844 88.386719 49.546875 C 88.042969 48.988281 87.542969 48.46875 86.863281 48.382812 C 85.117188 48.167969 84.804688 50.398438 83.496094 50.976562 C 83.070312 51.164062 83.441406 51.792969 83.867188 51.601562 Z M 83.867188 51.601562 " fill-opacity="1" fill-rule="nonzero"/><path fill="#644394" d="M 69.523438 63.886719 C 68.828125 63.882812 68.058594 63.910156 67.5 64.375 C 66.859375 64.902344 66.832031 65.808594 66.285156 66.40625 C 65.117188 67.671875 63.070312 66.835938 61.890625 68.121094 C 60.855469 69.25 61.050781 70.933594 62.058594 72.007812 C 62.550781 72.53125 63.328125 72.964844 63.546875 73.691406 C 63.765625 74.421875 63.332031 75.203125 63.199219 75.914062 C 63.085938 76.535156 63.144531 77.179688 63.589844 77.664062 C 64.089844 78.207031 64.917969 78.484375 65.628906 78.574219 C 66.457031 78.679688 67.054688 78.394531 67.6875 77.898438 C 68.070312 77.59375 68.429688 77.382812 68.941406 77.40625 C 69.453125 77.429688 69.929688 77.625 70.390625 77.835938 C 71.601562 78.402344 73.363281 79.148438 74.363281 77.789062 C 75.414062 76.359375 74.03125 74.378906 75.175781 73.050781 C 75.703125 72.4375 76.410156 72.007812 76.710938 71.222656 C 76.964844 70.554688 76.914062 69.789062 76.617188 69.144531 C 76.285156 68.425781 75.667969 67.976562 74.929688 67.734375 C 74.097656 67.460938 73.183594 67.4375 72.453125 66.910156 C 72.074219 66.632812 71.710938 67.265625 72.085938 67.539062 C 73.132812 68.296875 74.757812 68.015625 75.648438 68.980469 C 76.066406 69.433594 76.234375 70.117188 76.101562 70.714844 C 75.945312 71.421875 75.351562 71.832031 74.867188 72.316406 C 74.417969 72.765625 74.105469 73.28125 74.019531 73.917969 C 73.917969 74.664062 74.09375 75.398438 74.089844 76.140625 C 74.085938 76.867188 73.855469 77.636719 73.050781 77.804688 C 72.296875 77.957031 71.574219 77.59375 70.914062 77.28125 C 70.265625 76.976562 69.589844 76.671875 68.855469 76.675781 C 68.183594 76.675781 67.683594 76.976562 67.171875 77.382812 C 66.449219 77.953125 65.726562 77.960938 64.882812 77.636719 C 64.140625 77.347656 63.761719 76.84375 63.917969 76.039062 C 64.15625 74.839844 64.683594 73.761719 63.800781 72.683594 C 63.410156 72.203125 62.882812 71.855469 62.480469 71.386719 C 61.96875 70.792969 61.757812 69.9375 62.058594 69.199219 C 62.746094 67.503906 64.976562 68.230469 66.269531 67.367188 C 66.859375 66.972656 67.222656 66.417969 67.480469 65.769531 C 67.65625 65.328125 67.832031 64.917969 68.3125 64.742188 C 68.695312 64.601562 69.121094 64.613281 69.523438 64.617188 C 69.992188 64.617188 69.992188 63.890625 69.523438 63.886719 Z M 69.523438 63.886719 " fill-opacity="1" fill-rule="nonzero"/><path fill="#644394" d="M 93.292969 76.105469 C 92.996094 75.28125 92.460938 74.488281 91.59375 74.195312 C 90.867188 73.945312 89.980469 74.121094 89.5 74.746094 C 89.265625 75.050781 89.164062 75.417969 88.984375 75.753906 C 88.722656 76.246094 88.28125 76.269531 87.785156 76.375 C 87.027344 76.535156 86.464844 77.015625 86.34375 77.800781 C 86.21875 78.589844 86.566406 79.230469 87.136719 79.75 C 87.476562 80.0625 87.8125 80.320312 87.828125 80.820312 C 87.839844 81.292969 87.683594 81.738281 87.820312 82.207031 C 88.089844 83.109375 89.035156 83.167969 89.773438 82.816406 C 90.144531 82.640625 90.492188 82.351562 90.921875 82.359375 C 91.355469 82.367188 91.777344 82.613281 92.167969 82.769531 C 92.949219 83.082031 93.890625 83.105469 94.332031 82.253906 C 94.515625 81.902344 94.554688 81.488281 94.492188 81.097656 C 94.425781 80.671875 93.875 80.015625 94.347656 79.703125 C 94.734375 79.445312 94.371094 78.816406 93.976562 79.074219 C 93.714844 79.25 93.519531 79.484375 93.441406 79.796875 C 93.335938 80.214844 93.535156 80.523438 93.6875 80.894531 C 93.898438 81.421875 93.804688 82.289062 93.066406 82.265625 C 92.390625 82.246094 91.800781 81.742188 91.132812 81.652344 C 90.816406 81.613281 90.515625 81.652344 90.21875 81.773438 C 89.867188 81.917969 89.546875 82.179688 89.171875 82.273438 C 88.109375 82.542969 88.636719 81 88.523438 80.453125 C 88.375 79.75 87.761719 79.4375 87.332031 78.925781 C 86.964844 78.480469 86.90625 77.683594 87.398438 77.296875 C 87.667969 77.085938 88.058594 77.070312 88.382812 77 C 88.722656 76.929688 89.054688 76.804688 89.304688 76.558594 C 89.855469 76.007812 89.820312 74.960938 90.734375 74.824219 C 91.664062 74.6875 92.308594 75.523438 92.589844 76.300781 C 92.746094 76.734375 93.453125 76.546875 93.292969 76.105469 Z M 93.292969 76.105469 " fill-opacity="1" fill-rule="nonzero"/><path fill="#644394" d="M 28.792969 78.773438 C 27.222656 70.863281 27.730469 62.59375 30.203125 54.921875 C 30.902344 52.75 31.761719 50.636719 32.769531 48.589844 C 32.976562 48.167969 32.347656 47.800781 32.140625 48.222656 C 28.503906 55.597656 26.800781 63.878906 27.230469 72.085938 C 27.347656 74.398438 27.640625 76.695312 28.089844 78.964844 C 28.183594 79.425781 28.886719 79.230469 28.792969 78.773438 Z M 28.792969 78.773438 " fill-opacity="1" fill-rule="nonzero"/><path fill="#644394" d="M 34.871094 45.984375 C 34.902344 45.8125 34.9375 45.644531 34.988281 45.476562 C 35.011719 45.394531 35.042969 45.3125 35.070312 45.230469 C 35.085938 45.191406 35.101562 45.152344 35.117188 45.109375 C 35.089844 45.183594 35.140625 45.0625 35.148438 45.050781 C 35.21875 44.890625 35.300781 44.738281 35.394531 44.59375 C 35.4375 44.519531 35.488281 44.445312 35.539062 44.375 C 35.546875 44.367188 35.625 44.261719 35.578125 44.320312 C 35.605469 44.285156 35.632812 44.253906 35.660156 44.21875 C 35.78125 44.074219 35.816406 43.847656 35.660156 43.707031 C 35.527344 43.582031 35.273438 43.550781 35.144531 43.707031 C 34.644531 44.304688 34.296875 45.019531 34.167969 45.789062 C 34.136719 45.976562 34.21875 46.191406 34.425781 46.238281 C 34.597656 46.277344 34.839844 46.183594 34.871094 45.984375 Z M 34.871094 45.984375 " fill-opacity="1" fill-rule="nonzero"/><path fill="#644394" d="M 40.226562 39.710938 C 40.859375 38.863281 41.5625 38.058594 42.316406 37.304688 C 42.453125 37.167969 42.453125 36.929688 42.316406 36.792969 C 42.175781 36.652344 41.9375 36.652344 41.800781 36.792969 C 41.003906 37.585938 40.269531 38.441406 39.597656 39.34375 C 39.480469 39.503906 39.570312 39.75 39.726562 39.84375 C 39.914062 39.953125 40.109375 39.871094 40.226562 39.710938 Z M 40.226562 39.710938 " fill-opacity="1" fill-rule="nonzero"/><path fill="#644394" d="M 33.746094 62.222656 C 33.71875 61.195312 33.78125 60.167969 33.941406 59.152344 C 33.972656 58.957031 33.890625 58.757812 33.6875 58.703125 C 33.511719 58.65625 33.269531 58.761719 33.238281 58.957031 C 33.066406 60.039062 32.988281 61.128906 33.015625 62.222656 C 33.023438 62.691406 33.753906 62.691406 33.746094 62.222656 Z M 33.746094 62.222656 " fill-opacity="1" fill-rule="nonzero"/><path fill="#644394" d="M 34.015625 97.539062 C 36.09375 103.347656 39.839844 108.519531 44.71875 112.316406 C 46.085938 113.382812 47.535156 114.335938 49.058594 115.171875 C 49.472656 115.398438 49.839844 114.769531 49.429688 114.542969 C 44.160156 111.65625 39.773438 107.28125 36.851562 102.042969 C 36.011719 100.539062 35.300781 98.96875 34.71875 97.347656 C 34.5625 96.910156 33.855469 97.097656 34.015625 97.539062 Z M 34.015625 97.539062 " fill-opacity="1" fill-rule="nonzero"/><path fill="#644394" d="M 55.265625 118.175781 C 55.835938 118.546875 56.453125 118.839844 57.097656 119.050781 C 57.28125 119.113281 57.503906 118.984375 57.546875 118.796875 C 57.59375 118.597656 57.488281 118.414062 57.292969 118.351562 C 57.144531 118.300781 56.996094 118.246094 56.851562 118.191406 C 56.835938 118.183594 56.714844 118.132812 56.792969 118.167969 C 56.753906 118.148438 56.714844 118.132812 56.679688 118.117188 C 56.605469 118.085938 56.535156 118.050781 56.464844 118.015625 C 56.179688 117.878906 55.902344 117.71875 55.636719 117.546875 C 55.476562 117.441406 55.226562 117.507812 55.136719 117.675781 C 55.039062 117.859375 55.097656 118.0625 55.265625 118.175781 Z M 55.265625 118.175781 " fill-opacity="1" fill-rule="nonzero"/><path fill="#644394" d="M 53.914062 114.238281 C 53.839844 114.21875 53.769531 114.199219 53.699219 114.175781 C 53.664062 114.164062 53.628906 114.152344 53.59375 114.140625 C 53.574219 114.132812 53.558594 114.125 53.539062 114.117188 C 53.492188 114.101562 53.539062 114.117188 53.554688 114.125 C 53.417969 114.058594 53.28125 113.996094 53.152344 113.914062 C 53.089844 113.875 53.027344 113.835938 52.96875 113.792969 C 52.960938 113.785156 52.914062 113.75 52.957031 113.785156 C 53 113.820312 52.945312 113.773438 52.9375 113.765625 C 52.90625 113.742188 52.878906 113.71875 52.851562 113.695312 C 52.738281 113.59375 52.628906 113.488281 52.53125 113.371094 C 52.410156 113.222656 52.140625 113.234375 52.015625 113.371094 C 51.871094 113.527344 51.886719 113.726562 52.015625 113.882812 C 52.453125 114.402344 53.0625 114.777344 53.71875 114.941406 C 53.902344 114.984375 54.125 114.878906 54.167969 114.683594 C 54.210938 114.496094 54.109375 114.285156 53.914062 114.238281 Z M 53.914062 114.238281 " fill-opacity="1" fill-rule="nonzero"/><path fill="#644394" d="M 57.976562 82.625 C 55.285156 81.007812 53.0625 78.703125 51.539062 75.964844 C 51.3125 75.554688 50.683594 75.921875 50.910156 76.332031 C 52.488281 79.175781 54.8125 81.574219 57.605469 83.25 C 58.011719 83.492188 58.378906 82.863281 57.976562 82.625 Z M 57.976562 82.625 " fill-opacity="1" fill-rule="nonzero"/><path fill="#644394" d="M 49.394531 71.171875 C 48.988281 70.285156 48.714844 69.335938 48.566406 68.375 C 48.535156 68.179688 48.292969 68.070312 48.117188 68.117188 C 47.910156 68.175781 47.832031 68.371094 47.863281 68.566406 C 48.023438 69.597656 48.332031 70.59375 48.765625 71.539062 C 48.847656 71.71875 49.105469 71.761719 49.261719 71.671875 C 49.449219 71.5625 49.476562 71.351562 49.394531 71.171875 Z M 49.394531 71.171875 " fill-opacity="1" fill-rule="nonzero"/><path fill="#644394" d="M 48.199219 62.320312 C 48.160156 62 48.125 61.679688 48.089844 61.359375 C 48.078125 61.261719 48.054688 61.175781 47.980469 61.101562 C 47.917969 61.039062 47.816406 60.992188 47.722656 60.996094 C 47.628906 61 47.53125 61.03125 47.464844 61.101562 C 47.40625 61.167969 47.347656 61.265625 47.359375 61.359375 C 47.394531 61.679688 47.429688 62 47.46875 62.320312 C 47.480469 62.417969 47.5 62.503906 47.574219 62.578125 C 47.636719 62.640625 47.742188 62.6875 47.832031 62.683594 C 47.925781 62.679688 48.023438 62.648438 48.089844 62.578125 C 48.152344 62.511719 48.207031 62.414062 48.199219 62.320312 Z M 48.199219 62.320312 " fill-opacity="1" fill-rule="nonzero"/><path fill="#644394" d="M 91.503906 100.71875 C 98.929688 101.699219 106.601562 100.304688 113.242188 96.863281 C 115.121094 95.886719 116.910156 94.746094 118.585938 93.457031 C 118.953125 93.175781 118.589844 92.542969 118.214844 92.828125 C 112.34375 97.347656 105.082031 99.96875 97.671875 100.273438 C 95.613281 100.359375 93.546875 100.261719 91.503906 99.992188 C 91.039062 99.929688 91.042969 100.660156 91.503906 100.71875 Z M 91.503906 100.71875 " fill-opacity="1" fill-rule="nonzero"/><path fill="#644394" d="M 103.042969 115.449219 C 109.085938 111.929688 114.234375 106.988281 117.996094 101.105469 C 118.25 100.707031 117.621094 100.34375 117.367188 100.738281 C 113.671875 106.515625 108.609375 111.363281 102.675781 114.820312 C 102.269531 115.054688 102.636719 115.6875 103.042969 115.449219 Z M 103.042969 115.449219 " fill-opacity="1" fill-rule="nonzero"/><path fill="#644394" d="M 120.769531 96.828125 C 121.496094 95.667969 122.222656 94.507812 122.953125 93.347656 C 123.203125 92.949219 122.570312 92.582031 122.320312 92.980469 C 121.59375 94.140625 120.867188 95.296875 120.136719 96.457031 C 119.886719 96.855469 120.519531 97.222656 120.769531 96.828125 Z M 120.769531 96.828125 " fill-opacity="1" fill-rule="nonzero"/><path fill="#644394" d="M 124.222656 90.46875 C 124.285156 90.242188 124.347656 90.019531 124.414062 89.792969 C 124.4375 89.703125 124.421875 89.59375 124.375 89.511719 C 124.332031 89.4375 124.246094 89.367188 124.15625 89.347656 C 124.0625 89.324219 123.957031 89.328125 123.875 89.382812 C 123.796875 89.433594 123.734375 89.507812 123.707031 89.601562 C 123.644531 89.824219 123.582031 90.050781 123.519531 90.273438 C 123.492188 90.363281 123.507812 90.472656 123.554688 90.554688 C 123.601562 90.628906 123.6875 90.703125 123.773438 90.722656 C 123.867188 90.742188 123.972656 90.738281 124.054688 90.683594 C 124.136719 90.632812 124.195312 90.558594 124.222656 90.46875 Z M 124.222656 90.46875 " fill-opacity="1" fill-rule="nonzero"/><path fill="#644394" d="M 74.929688 120.777344 C 76.617188 121.148438 78.359375 121.128906 80.039062 120.726562 C 80.496094 120.613281 80.300781 119.914062 79.84375 120.023438 C 78.292969 120.394531 76.679688 120.417969 75.121094 120.078125 C 74.664062 119.976562 74.46875 120.679688 74.929688 120.777344 Z M 74.929688 120.777344 " fill-opacity="1" fill-rule="nonzero"/><path fill="#644394" d="M 77.625 118.507812 C 77.847656 118.507812 78.074219 118.507812 78.296875 118.507812 C 78.390625 118.507812 78.488281 118.46875 78.554688 118.402344 C 78.617188 118.335938 78.667969 118.234375 78.664062 118.144531 C 78.660156 118.050781 78.628906 117.953125 78.554688 117.886719 C 78.484375 117.820312 78.394531 117.78125 78.296875 117.78125 C 78.074219 117.78125 77.847656 117.78125 77.625 117.78125 C 77.53125 117.78125 77.429688 117.820312 77.363281 117.886719 C 77.300781 117.949219 77.253906 118.054688 77.257812 118.144531 C 77.261719 118.238281 77.292969 118.335938 77.363281 118.402344 C 77.4375 118.464844 77.523438 118.507812 77.625 118.507812 Z M 77.625 118.507812 " fill-opacity="1" fill-rule="nonzero"/><path fill="#644394" d="M 70.488281 117.832031 C 70.671875 117.894531 70.867188 117.925781 71.0625 117.945312 C 71.257812 117.960938 71.453125 117.941406 71.648438 117.914062 C 71.730469 117.898438 71.824219 117.816406 71.867188 117.746094 C 71.910156 117.667969 71.929688 117.554688 71.902344 117.464844 C 71.875 117.378906 71.820312 117.292969 71.734375 117.246094 C 71.707031 117.234375 71.675781 117.222656 71.648438 117.210938 C 71.582031 117.195312 71.519531 117.195312 71.453125 117.210938 C 71.4375 117.214844 71.417969 117.214844 71.402344 117.21875 C 71.433594 117.214844 71.464844 117.210938 71.496094 117.207031 C 71.320312 117.226562 71.140625 117.226562 70.964844 117.207031 C 70.996094 117.210938 71.03125 117.214844 71.0625 117.21875 C 70.933594 117.199219 70.804688 117.171875 70.679688 117.128906 C 70.5 117.070312 70.273438 117.199219 70.230469 117.382812 C 70.1875 117.585938 70.292969 117.769531 70.488281 117.832031 Z M 70.488281 117.832031 " fill-opacity="1" fill-rule="nonzero"/><path fill="#644394" d="M 49.339844 80.519531 C 49.214844 80.390625 49.097656 80.253906 48.980469 80.113281 C 48.964844 80.09375 48.949219 80.074219 48.933594 80.054688 C 48.929688 80.046875 48.886719 79.996094 48.910156 80.027344 C 48.9375 80.058594 48.894531 80.007812 48.890625 80 C 48.878906 79.984375 48.867188 79.96875 48.851562 79.949219 C 48.796875 79.875 48.742188 79.796875 48.6875 79.714844 C 48.480469 79.414062 48.300781 79.09375 48.148438 78.761719 C 48.066406 78.589844 47.800781 78.53125 47.648438 78.632812 C 47.46875 78.746094 47.429688 78.945312 47.515625 79.128906 C 47.84375 79.832031 48.289062 80.476562 48.824219 81.035156 C 48.957031 81.171875 49.210938 81.175781 49.339844 81.035156 C 49.476562 80.886719 49.480469 80.667969 49.339844 80.519531 Z M 49.339844 80.519531 " fill-opacity="1" fill-rule="nonzero"/><path fill="#644394" d="M 49.996094 45.019531 C 50.867188 41.308594 52.46875 37.820312 54.703125 34.730469 C 54.976562 34.347656 54.34375 33.984375 54.070312 34.363281 C 51.804688 37.496094 50.175781 41.0625 49.289062 44.824219 C 49.183594 45.28125 49.886719 45.472656 49.996094 45.019531 Z M 49.996094 45.019531 " fill-opacity="1" fill-rule="nonzero"/><path fill="#644394" d="M 57.613281 30.226562 C 57.742188 30 57.871094 29.777344 58 29.554688 C 58.046875 29.472656 58.0625 29.363281 58.035156 29.273438 C 58.011719 29.1875 57.949219 29.097656 57.867188 29.054688 C 57.785156 29.011719 57.679688 28.988281 57.585938 29.019531 C 57.496094 29.046875 57.417969 29.101562 57.371094 29.1875 C 57.242188 29.410156 57.113281 29.632812 56.984375 29.859375 C 56.9375 29.941406 56.921875 30.046875 56.949219 30.140625 C 56.96875 30.222656 57.035156 30.316406 57.117188 30.355469 C 57.199219 30.402344 57.300781 30.421875 57.394531 30.394531 C 57.488281 30.363281 57.566406 30.308594 57.613281 30.226562 Z M 57.613281 30.226562 " fill-opacity="1" fill-rule="nonzero"/><path fill="#644394" d="M 51.164062 33.496094 C 51.289062 33.238281 51.410156 32.976562 51.535156 32.71875 C 51.578125 32.628906 51.597656 32.539062 51.570312 32.441406 C 51.550781 32.355469 51.484375 32.261719 51.402344 32.222656 C 51.320312 32.175781 51.214844 32.15625 51.121094 32.183594 C 51.035156 32.214844 50.945312 32.269531 50.90625 32.351562 C 50.78125 32.609375 50.65625 32.871094 50.53125 33.128906 C 50.488281 33.21875 50.46875 33.308594 50.496094 33.40625 C 50.519531 33.492188 50.585938 33.582031 50.664062 33.625 C 50.75 33.671875 50.851562 33.691406 50.945312 33.664062 C 51.03125 33.632812 51.121094 33.578125 51.164062 33.496094 Z M 51.164062 33.496094 " fill-opacity="1" fill-rule="nonzero"/><path fill="#644394" d="M 83.367188 55.183594 C 82.957031 55.121094 82.730469 54.773438 82.753906 54.371094 C 82.785156 53.929688 83.085938 53.5625 83.429688 53.304688 C 83.816406 53.015625 84.269531 52.835938 84.667969 52.558594 C 85.074219 52.269531 85.402344 51.917969 85.574219 51.445312 C 85.730469 51 85.023438 50.8125 84.867188 51.25 C 84.695312 51.734375 84.199219 52.007812 83.777344 52.242188 C 83.277344 52.523438 82.785156 52.8125 82.433594 53.277344 C 82.097656 53.71875 81.9375 54.292969 82.070312 54.839844 C 82.199219 55.355469 82.636719 55.800781 83.171875 55.886719 C 83.367188 55.917969 83.5625 55.835938 83.621094 55.632812 C 83.667969 55.457031 83.5625 55.214844 83.367188 55.183594 Z M 83.367188 55.183594 " fill-opacity="1" fill-rule="nonzero"/><path fill="#644394" d="M 86.148438 50.832031 C 86.214844 50.757812 86.285156 50.691406 86.363281 50.632812 C 86.335938 50.652344 86.3125 50.667969 86.289062 50.6875 C 86.367188 50.628906 86.453125 50.574219 86.542969 50.527344 C 86.585938 50.503906 86.621094 50.472656 86.644531 50.433594 C 86.679688 50.398438 86.699219 50.359375 86.710938 50.3125 C 86.726562 50.261719 86.730469 50.214844 86.71875 50.164062 C 86.714844 50.117188 86.699219 50.074219 86.675781 50.03125 C 86.625 49.953125 86.550781 49.882812 86.457031 49.863281 C 86.421875 49.859375 86.390625 49.855469 86.359375 49.851562 C 86.292969 49.851562 86.230469 49.867188 86.175781 49.898438 C 86.085938 49.945312 86 50 85.921875 50.058594 C 85.816406 50.140625 85.71875 50.21875 85.632812 50.316406 C 85.597656 50.351562 85.570312 50.390625 85.558594 50.433594 C 85.535156 50.476562 85.523438 50.523438 85.523438 50.574219 C 85.523438 50.625 85.535156 50.671875 85.558594 50.714844 C 85.570312 50.761719 85.597656 50.796875 85.632812 50.832031 C 85.703125 50.894531 85.792969 50.941406 85.890625 50.9375 C 85.984375 50.933594 86.085938 50.902344 86.148438 50.832031 Z M 86.148438 50.832031 " fill-opacity="1" fill-rule="nonzero"/><path fill="#644394" d="M 85.167969 54.074219 C 85.179688 54.03125 85.195312 53.996094 85.210938 53.957031 C 85.199219 53.984375 85.183594 54.015625 85.171875 54.042969 C 85.210938 53.957031 85.257812 53.875 85.316406 53.796875 C 85.296875 53.824219 85.277344 53.847656 85.261719 53.871094 C 85.289062 53.835938 85.320312 53.800781 85.351562 53.765625 C 85.417969 53.703125 85.460938 53.601562 85.460938 53.511719 C 85.460938 53.460938 85.449219 53.414062 85.425781 53.371094 C 85.414062 53.324219 85.386719 53.285156 85.351562 53.253906 C 85.28125 53.1875 85.191406 53.140625 85.09375 53.144531 C 84.996094 53.152344 84.90625 53.183594 84.835938 53.253906 C 84.660156 53.425781 84.535156 53.644531 84.464844 53.878906 C 84.449219 53.925781 84.445312 53.976562 84.457031 54.023438 C 84.460938 54.074219 84.472656 54.117188 84.5 54.160156 C 84.523438 54.203125 84.554688 54.234375 84.59375 54.261719 C 84.628906 54.292969 84.671875 54.316406 84.71875 54.328125 C 84.8125 54.347656 84.917969 54.34375 85 54.289062 C 85.082031 54.238281 85.140625 54.164062 85.167969 54.074219 Z M 85.167969 54.074219 " fill-opacity="1" fill-rule="nonzero"/><path fill="#644394" d="M 83.160156 58.175781 C 83.175781 58.308594 83.203125 58.417969 83.265625 58.535156 C 83.296875 58.589844 83.335938 58.640625 83.378906 58.6875 C 83.398438 58.710938 83.421875 58.734375 83.449219 58.753906 C 83.496094 58.792969 83.546875 58.835938 83.601562 58.863281 C 83.65625 58.894531 83.714844 58.917969 83.773438 58.9375 C 83.832031 58.957031 83.898438 58.960938 83.960938 58.96875 C 83.992188 58.972656 84.027344 58.972656 84.0625 58.964844 C 84.113281 58.96875 84.160156 58.957031 84.203125 58.933594 C 84.25 58.921875 84.289062 58.894531 84.320312 58.859375 C 84.382812 58.796875 84.429688 58.695312 84.425781 58.601562 C 84.421875 58.507812 84.390625 58.410156 84.320312 58.34375 C 84.296875 58.328125 84.269531 58.308594 84.246094 58.289062 C 84.191406 58.257812 84.128906 58.238281 84.0625 58.238281 C 84.023438 58.246094 83.984375 58.242188 83.945312 58.238281 C 83.976562 58.242188 84.007812 58.246094 84.042969 58.25 C 84.003906 58.246094 83.964844 58.234375 83.929688 58.21875 C 83.957031 58.230469 83.988281 58.246094 84.015625 58.257812 C 83.976562 58.238281 83.9375 58.21875 83.902344 58.191406 C 83.925781 58.210938 83.949219 58.230469 83.972656 58.246094 C 83.9375 58.21875 83.90625 58.191406 83.878906 58.15625 C 83.898438 58.179688 83.917969 58.203125 83.9375 58.226562 C 83.910156 58.195312 83.890625 58.160156 83.875 58.121094 C 83.886719 58.148438 83.898438 58.179688 83.910156 58.207031 C 83.898438 58.171875 83.886719 58.136719 83.882812 58.101562 C 83.886719 58.132812 83.890625 58.167969 83.894531 58.199219 C 83.894531 58.191406 83.894531 58.183594 83.890625 58.175781 C 83.894531 58.125 83.882812 58.078125 83.859375 58.035156 C 83.847656 57.988281 83.820312 57.953125 83.785156 57.917969 C 83.722656 57.855469 83.617188 57.808594 83.527344 57.8125 C 83.433594 57.816406 83.335938 57.847656 83.269531 57.917969 C 83.207031 57.984375 83.152344 58.082031 83.160156 58.175781 Z M 83.160156 58.175781 " fill-opacity="1" fill-rule="nonzero"/><path fill="#644394" d="M 89.5625 59.496094 C 89.625 59.445312 89.671875 59.382812 89.71875 59.320312 C 89.765625 59.253906 89.792969 59.179688 89.824219 59.109375 C 89.851562 59.035156 89.859375 58.957031 89.871094 58.878906 C 89.878906 58.796875 89.867188 58.71875 89.851562 58.636719 C 89.839844 58.589844 89.820312 58.546875 89.789062 58.511719 C 89.761719 58.472656 89.726562 58.441406 89.683594 58.417969 C 89.644531 58.394531 89.597656 58.378906 89.550781 58.375 C 89.5 58.367188 89.453125 58.367188 89.402344 58.382812 C 89.316406 58.410156 89.230469 58.464844 89.183594 58.550781 C 89.171875 58.578125 89.160156 58.609375 89.148438 58.636719 C 89.132812 58.703125 89.132812 58.765625 89.148438 58.832031 C 89.148438 58.835938 89.148438 58.839844 89.152344 58.847656 C 89.148438 58.8125 89.140625 58.78125 89.136719 58.75 C 89.144531 58.792969 89.144531 58.839844 89.136719 58.882812 C 89.140625 58.851562 89.148438 58.820312 89.152344 58.789062 C 89.144531 58.835938 89.132812 58.882812 89.113281 58.925781 C 89.125 58.898438 89.136719 58.867188 89.152344 58.839844 C 89.132812 58.882812 89.109375 58.925781 89.078125 58.964844 C 89.097656 58.9375 89.117188 58.914062 89.136719 58.890625 C 89.109375 58.925781 89.078125 58.953125 89.046875 58.980469 C 89.011719 59.015625 88.984375 59.054688 88.96875 59.097656 C 88.949219 59.140625 88.9375 59.1875 88.9375 59.238281 C 88.9375 59.289062 88.945312 59.335938 88.96875 59.378906 C 88.984375 59.425781 89.011719 59.460938 89.046875 59.496094 C 89.117188 59.558594 89.207031 59.605469 89.304688 59.601562 C 89.335938 59.597656 89.367188 59.59375 89.402344 59.589844 C 89.460938 59.570312 89.515625 59.539062 89.5625 59.496094 Z M 89.5625 59.496094 " fill-opacity="1" fill-rule="nonzero"/><path fill="#644394" d="M 64.636719 68.410156 C 63.597656 68.554688 63.042969 69.429688 63.351562 70.4375 C 63.511719 70.957031 63.859375 71.375 64.15625 71.820312 C 64.5 72.339844 64.703125 72.917969 64.734375 73.546875 C 64.777344 74.578125 64.558594 75.796875 65.425781 76.578125 C 66.152344 77.226562 67.25 77.015625 67.800781 76.261719 C 68.074219 75.882812 67.441406 75.519531 67.167969 75.894531 C 66.976562 76.160156 66.613281 76.292969 66.292969 76.226562 C 65.917969 76.148438 65.6875 75.820312 65.574219 75.476562 C 65.300781 74.660156 65.546875 73.757812 65.390625 72.917969 C 65.234375 72.070312 64.75 71.460938 64.304688 70.753906 C 64.113281 70.445312 63.941406 70.082031 64.003906 69.707031 C 64.074219 69.28125 64.449219 69.164062 64.828125 69.113281 C 65.292969 69.046875 65.097656 68.347656 64.636719 68.410156 Z M 64.636719 68.410156 " fill-opacity="1" fill-rule="nonzero"/><path fill="#644394" d="M 71.097656 76.550781 C 71.464844 77.152344 72.230469 77.300781 72.855469 77.035156 C 73.011719 76.972656 73.164062 76.890625 73.277344 76.757812 C 73.398438 76.621094 73.472656 76.464844 73.535156 76.292969 C 73.648438 75.984375 73.683594 75.640625 73.644531 75.316406 C 73.628906 75.214844 73.609375 75.132812 73.535156 75.058594 C 73.472656 74.996094 73.367188 74.945312 73.277344 74.953125 C 73.101562 74.960938 72.886719 75.113281 72.914062 75.316406 C 72.929688 75.4375 72.933594 75.5625 72.925781 75.6875 C 72.921875 75.71875 72.921875 75.753906 72.914062 75.789062 C 72.925781 75.707031 72.910156 75.816406 72.90625 75.824219 C 72.898438 75.878906 72.882812 75.933594 72.867188 75.988281 C 72.859375 76.019531 72.847656 76.054688 72.835938 76.085938 C 72.832031 76.09375 72.792969 76.191406 72.828125 76.113281 C 72.804688 76.160156 72.78125 76.203125 72.757812 76.246094 C 72.71875 76.316406 72.792969 76.21875 72.742188 76.265625 C 72.726562 76.277344 72.660156 76.328125 72.722656 76.289062 C 72.675781 76.320312 72.625 76.34375 72.574219 76.371094 C 72.539062 76.390625 72.625 76.355469 72.558594 76.375 C 72.527344 76.386719 72.5 76.398438 72.46875 76.40625 C 72.441406 76.414062 72.417969 76.417969 72.390625 76.425781 C 72.378906 76.429688 72.28125 76.441406 72.328125 76.4375 C 72.378906 76.433594 72.292969 76.4375 72.28125 76.441406 C 72.25 76.441406 72.21875 76.441406 72.1875 76.441406 C 72.167969 76.4375 72.074219 76.425781 72.15625 76.441406 C 72.132812 76.4375 72.109375 76.429688 72.082031 76.425781 C 72.058594 76.421875 72.039062 76.414062 72.015625 76.40625 C 71.996094 76.402344 71.910156 76.382812 71.996094 76.402344 C 71.949219 76.390625 71.898438 76.351562 71.859375 76.328125 C 71.824219 76.304688 71.820312 76.292969 71.855469 76.324219 C 71.832031 76.304688 71.8125 76.289062 71.792969 76.265625 C 71.78125 76.257812 71.726562 76.183594 71.773438 76.253906 C 71.757812 76.230469 71.742188 76.207031 71.730469 76.183594 C 71.628906 76.023438 71.398438 75.945312 71.230469 76.054688 C 71.066406 76.160156 70.992188 76.378906 71.097656 76.550781 Z M 71.097656 76.550781 " fill-opacity="1" fill-rule="nonzero"/><path fill="#644394" d="M 73.796875 72.980469 C 73.8125 72.925781 73.832031 72.867188 73.851562 72.8125 C 73.859375 72.789062 73.871094 72.761719 73.882812 72.734375 C 73.886719 72.71875 73.894531 72.703125 73.902344 72.6875 C 73.894531 72.699219 73.867188 72.761719 73.886719 72.714844 C 73.9375 72.609375 73.988281 72.503906 74.050781 72.402344 C 74.109375 72.300781 74.171875 72.207031 74.242188 72.113281 C 74.253906 72.097656 74.292969 72.054688 74.226562 72.128906 C 74.238281 72.121094 74.246094 72.109375 74.253906 72.097656 C 74.273438 72.078125 74.289062 72.054688 74.308594 72.035156 C 74.347656 71.988281 74.390625 71.941406 74.433594 71.894531 C 74.566406 71.757812 74.582031 71.515625 74.433594 71.378906 C 74.289062 71.25 74.058594 71.234375 73.917969 71.378906 C 73.535156 71.777344 73.25 72.261719 73.09375 72.789062 C 73.039062 72.972656 73.15625 73.195312 73.347656 73.238281 C 73.542969 73.28125 73.738281 73.175781 73.796875 72.980469 Z M 73.796875 72.980469 " fill-opacity="1" fill-rule="nonzero"/><path fill="#644394" d="M 75.128906 70.898438 C 75.179688 70.769531 75.222656 70.640625 75.222656 70.5 C 75.21875 70.445312 75.210938 70.394531 75.203125 70.34375 C 75.199219 70.320312 75.191406 70.300781 75.183594 70.28125 C 75.164062 70.234375 75.148438 70.183594 75.121094 70.140625 C 75.089844 70.101562 75.058594 70.054688 75.019531 70.023438 C 74.988281 69.988281 74.949219 69.960938 74.902344 69.949219 C 74.859375 69.925781 74.8125 69.914062 74.761719 69.914062 C 74.671875 69.914062 74.566406 69.957031 74.503906 70.023438 C 74.441406 70.09375 74.394531 70.183594 74.398438 70.28125 C 74.402344 70.371094 74.429688 70.476562 74.503906 70.535156 C 74.515625 70.546875 74.527344 70.558594 74.535156 70.570312 C 74.519531 70.546875 74.5 70.519531 74.480469 70.496094 C 74.492188 70.515625 74.503906 70.535156 74.515625 70.554688 C 74.503906 70.527344 74.492188 70.5 74.476562 70.46875 C 74.488281 70.496094 74.496094 70.523438 74.5 70.550781 C 74.496094 70.519531 74.492188 70.488281 74.488281 70.457031 C 74.492188 70.492188 74.492188 70.527344 74.488281 70.5625 C 74.492188 70.53125 74.496094 70.496094 74.5 70.464844 C 74.488281 70.550781 74.457031 70.628906 74.421875 70.707031 C 74.40625 70.753906 74.40625 70.800781 74.417969 70.851562 C 74.417969 70.898438 74.433594 70.945312 74.460938 70.984375 C 74.503906 71.0625 74.589844 71.132812 74.679688 71.152344 C 74.773438 71.175781 74.875 71.167969 74.960938 71.117188 C 74.984375 71.097656 75.007812 71.078125 75.035156 71.058594 C 75.078125 71.015625 75.109375 70.960938 75.128906 70.898438 Z M 75.128906 70.898438 " fill-opacity="1" fill-rule="nonzero"/><path fill="#644394" d="M 72.429688 69.5 C 72.515625 69.558594 72.605469 69.613281 72.695312 69.667969 C 72.738281 69.695312 72.78125 69.707031 72.832031 69.710938 C 72.878906 69.722656 72.925781 69.71875 72.976562 69.703125 C 73.023438 69.691406 73.066406 69.671875 73.101562 69.640625 C 73.140625 69.613281 73.171875 69.578125 73.195312 69.535156 C 73.207031 69.507812 73.21875 69.480469 73.230469 69.449219 C 73.25 69.386719 73.25 69.320312 73.230469 69.257812 C 73.21875 69.226562 73.207031 69.199219 73.195312 69.167969 C 73.164062 69.113281 73.117188 69.070312 73.0625 69.039062 C 72.976562 68.984375 72.886719 68.929688 72.796875 68.871094 C 72.753906 68.847656 72.710938 68.832031 72.660156 68.828125 C 72.613281 68.820312 72.5625 68.820312 72.515625 68.835938 C 72.46875 68.847656 72.425781 68.871094 72.390625 68.902344 C 72.351562 68.925781 72.320312 68.960938 72.296875 69.003906 C 72.285156 69.03125 72.273438 69.0625 72.261719 69.089844 C 72.242188 69.15625 72.242188 69.21875 72.261719 69.285156 C 72.273438 69.3125 72.285156 69.34375 72.296875 69.371094 C 72.328125 69.425781 72.375 69.46875 72.429688 69.5 Z M 72.429688 69.5 " fill-opacity="1" fill-rule="nonzero"/><path fill="#644394" d="M 88.324219 78.484375 C 88.34375 78.363281 88.390625 78.304688 88.503906 78.238281 C 88.644531 78.164062 88.8125 78.132812 88.964844 78.101562 C 89.300781 78.03125 89.65625 77.945312 89.945312 77.75 C 90.265625 77.539062 90.4375 77.238281 90.585938 76.894531 C 90.652344 76.742188 90.714844 76.574219 90.820312 76.445312 C 90.898438 76.351562 90.964844 76.308594 91.09375 76.289062 C 91.289062 76.261719 91.398438 76.015625 91.347656 75.84375 C 91.292969 75.632812 91.097656 75.558594 90.902344 75.585938 C 90.503906 75.648438 90.210938 75.984375 90.042969 76.328125 C 89.898438 76.636719 89.808594 76.992188 89.5 77.171875 C 89.203125 77.34375 88.835938 77.367188 88.5 77.464844 C 88.101562 77.582031 87.695312 77.851562 87.617188 78.289062 C 87.585938 78.484375 87.671875 78.683594 87.875 78.738281 C 88.050781 78.785156 88.289062 78.679688 88.324219 78.484375 Z M 88.324219 78.484375 " fill-opacity="1" fill-rule="nonzero"/><path fill="#644394" d="M 92.074219 77.601562 C 92.234375 77.742188 92.421875 77.816406 92.632812 77.84375 C 92.71875 77.855469 92.808594 77.863281 92.898438 77.867188 C 92.941406 77.867188 92.988281 77.871094 93.03125 77.875 C 93.046875 77.875 93.066406 77.878906 93.082031 77.878906 C 93.164062 77.886719 93 77.859375 93.082031 77.878906 C 93.117188 77.890625 93.15625 77.898438 93.191406 77.910156 C 93.25 77.929688 93.132812 77.878906 93.167969 77.902344 C 93.183594 77.910156 93.199219 77.914062 93.214844 77.925781 C 93.226562 77.933594 93.242188 77.941406 93.253906 77.949219 C 93.292969 77.972656 93.191406 77.894531 93.238281 77.9375 C 93.261719 77.957031 93.285156 77.984375 93.308594 78.007812 C 93.355469 78.054688 93.261719 77.933594 93.296875 77.996094 C 93.304688 78.007812 93.3125 78.015625 93.320312 78.027344 C 93.332031 78.042969 93.339844 78.0625 93.347656 78.082031 C 93.378906 78.136719 93.328125 78.015625 93.335938 78.054688 C 93.339844 78.0625 93.351562 78.101562 93.351562 78.101562 C 93.351562 78.101562 93.335938 77.996094 93.34375 78.070312 C 93.347656 78.109375 93.371094 77.984375 93.347656 78.039062 C 93.355469 78.019531 93.363281 78 93.371094 77.984375 C 93.414062 77.933594 93.421875 77.925781 93.394531 77.953125 C 93.261719 78.085938 93.25 78.332031 93.394531 78.464844 C 93.542969 78.597656 93.769531 78.613281 93.914062 78.464844 C 94.289062 78.085938 93.945312 77.480469 93.546875 77.277344 C 93.339844 77.167969 93.117188 77.148438 92.886719 77.136719 C 92.839844 77.136719 92.792969 77.132812 92.746094 77.128906 C 92.714844 77.128906 92.65625 77.109375 92.753906 77.132812 C 92.734375 77.128906 92.714844 77.125 92.691406 77.121094 C 92.671875 77.117188 92.652344 77.109375 92.628906 77.105469 C 92.625 77.101562 92.617188 77.101562 92.609375 77.097656 C 92.574219 77.085938 92.582031 77.089844 92.640625 77.109375 C 92.628906 77.101562 92.605469 77.09375 92.59375 77.085938 C 92.519531 77.042969 92.644531 77.132812 92.589844 77.085938 C 92.449219 76.960938 92.214844 76.9375 92.074219 77.085938 C 91.949219 77.226562 91.921875 77.464844 92.074219 77.601562 Z M 92.074219 77.601562 " fill-opacity="1" fill-rule="nonzero"/><path fill="#644394" d="M 91.675781 81.089844 C 91.816406 81.335938 92.078125 81.484375 92.351562 81.523438 C 92.507812 81.546875 92.660156 81.558594 92.816406 81.527344 C 93.039062 81.476562 93.21875 81.289062 93.21875 81.050781 C 93.21875 80.960938 93.179688 80.859375 93.113281 80.796875 C 93.050781 80.730469 92.945312 80.683594 92.855469 80.6875 C 92.65625 80.699219 92.488281 80.847656 92.488281 81.050781 C 92.488281 81.058594 92.488281 81.066406 92.488281 81.074219 C 92.492188 81.039062 92.496094 81.007812 92.5 80.976562 C 92.5 80.980469 92.5 80.988281 92.496094 80.992188 C 92.507812 80.964844 92.519531 80.9375 92.53125 80.90625 C 92.527344 80.914062 92.523438 80.921875 92.519531 80.929688 C 92.539062 80.90625 92.558594 80.882812 92.578125 80.855469 C 92.570312 80.863281 92.5625 80.871094 92.554688 80.875 C 92.582031 80.855469 92.605469 80.839844 92.628906 80.820312 C 92.617188 80.828125 92.601562 80.835938 92.585938 80.84375 C 92.613281 80.832031 92.644531 80.820312 92.671875 80.808594 C 92.644531 80.816406 92.617188 80.824219 92.589844 80.828125 C 92.621094 80.824219 92.652344 80.820312 92.683594 80.816406 C 92.605469 80.824219 92.527344 80.820312 92.449219 80.808594 C 92.480469 80.8125 92.515625 80.816406 92.546875 80.820312 C 92.476562 80.8125 92.40625 80.792969 92.339844 80.765625 C 92.367188 80.78125 92.394531 80.792969 92.425781 80.804688 C 92.378906 80.785156 92.335938 80.761719 92.296875 80.730469 C 92.320312 80.75 92.34375 80.769531 92.371094 80.789062 C 92.339844 80.765625 92.3125 80.738281 92.289062 80.707031 C 92.308594 80.734375 92.328125 80.757812 92.347656 80.78125 C 92.332031 80.761719 92.320312 80.742188 92.308594 80.722656 C 92.261719 80.644531 92.175781 80.582031 92.089844 80.554688 C 92.003906 80.53125 91.886719 80.542969 91.808594 80.59375 C 91.640625 80.699219 91.578125 80.914062 91.675781 81.089844 Z M 91.675781 81.089844 " fill-opacity="1" fill-rule="nonzero"/></svg>