<svg xmlns="http://www.w3.org/2000/svg" xmlns:xlink="http://www.w3.org/1999/xlink" width="500" zoomAndPan="magnify" viewBox="0 0 375 374.999991" height="500" preserveAspectRatio="xMidYMid meet" version="1.0"><defs><filter x="0%" y="0%" width="100%" height="100%" id="7cbe271177"><feColorMatrix values="0 0 0 0 1 0 0 0 0 1 0 0 0 0 1 0 0 0 1 0" color-interpolation-filters="sRGB"/></filter><g/><clipPath id="13aa3f3cd1"><path d="M 185.269531 333.269531 L 189.769531 333.269531 L 189.769531 375 L 185.269531 375 Z M 185.269531 333.269531 " clip-rule="nonzero"/></clipPath><clipPath id="95fe29f00c"><path d="M 185.269531 0 L 189.769531 0 L 189.769531 41.730469 L 185.269531 41.730469 Z M 185.269531 0 " clip-rule="nonzero"/></clipPath><clipPath id="22f9614870"><path d="M 0 185.269531 L 41.726562 185.269531 L 41.726562 189.765625 L 0 189.765625 Z M 0 185.269531 " clip-rule="nonzero"/></clipPath><clipPath id="e2e6aa8e2d"><path d="M 333.265625 185.269531 L 374.996094 185.269531 L 374.996094 189.765625 L 333.265625 189.765625 Z M 333.265625 185.269531 " clip-rule="nonzero"/></clipPath><clipPath id="32ed103f87"><path d="M 86 310 L 113 310 L 113 348 L 86 348 Z M 86 310 " clip-rule="nonzero"/></clipPath><clipPath id="56c381eb16"><path d="M 112.359375 312.429688 L 90.296875 347.855469 L 86.480469 345.476562 L 108.542969 310.050781 Z M 112.359375 312.429688 " clip-rule="nonzero"/></clipPath><clipPath id="05bf795362"><path d="M 262 27 L 289 27 L 289 65 L 262 65 Z M 262 27 " clip-rule="nonzero"/></clipPath><clipPath id="aa22ff7cfa"><path d="M 288.550781 29.542969 L 266.488281 64.964844 L 262.667969 62.585938 L 284.730469 27.164062 Z M 288.550781 29.542969 " clip-rule="nonzero"/></clipPath><clipPath id="21b6d26c17"><path d="M 27 86 L 65 86 L 65 113 L 27 113 Z M 27 86 " clip-rule="nonzero"/></clipPath><clipPath id="ed3244b033"><path d="M 62.5625 112.359375 L 27.140625 90.296875 L 29.519531 86.476562 L 64.941406 108.539062 Z M 62.5625 112.359375 " clip-rule="nonzero"/></clipPath><clipPath id="ed8078efbd"><path d="M 310 262 L 348 262 L 348 289 L 310 289 Z M 310 262 " clip-rule="nonzero"/></clipPath><clipPath id="785baf3977"><path d="M 345.453125 288.546875 L 310.027344 266.484375 L 312.40625 262.667969 L 347.832031 284.730469 Z M 345.453125 288.546875 " clip-rule="nonzero"/></clipPath><clipPath id="7948e481bd"><path d="M 22 256 L 62 256 L 62 282 L 22 282 Z M 22 256 " clip-rule="nonzero"/></clipPath><clipPath id="f836359f48"><path d="M 61.464844 260.773438 L 25.066406 281.183594 L 22.863281 277.261719 L 59.261719 256.847656 Z M 61.464844 260.773438 " clip-rule="nonzero"/></clipPath><clipPath id="0b6b0cc875"><path d="M 313 93 L 353 93 L 353 119 L 313 119 Z M 313 93 " clip-rule="nonzero"/></clipPath><clipPath id="580755f38d"><path d="M 352.148438 97.769531 L 315.75 118.183594 L 313.550781 114.257812 L 349.949219 93.847656 Z M 352.148438 97.769531 " clip-rule="nonzero"/></clipPath><clipPath id="5f146c1658"><path d="M 93 22 L 119 22 L 119 62 L 93 62 Z M 93 22 " clip-rule="nonzero"/></clipPath><clipPath id="146fe26f13"><path d="M 114.222656 61.460938 L 93.808594 25.0625 L 97.734375 22.863281 L 118.144531 59.261719 Z M 114.222656 61.460938 " clip-rule="nonzero"/></clipPath><clipPath id="cb3ca8ba0b"><path d="M 256 313 L 282 313 L 282 353 L 256 353 Z M 256 313 " clip-rule="nonzero"/></clipPath><clipPath id="43b23bb98b"><path d="M 277.222656 352.148438 L 256.8125 315.75 L 260.738281 313.546875 L 281.148438 349.945312 Z M 277.222656 352.148438 " clip-rule="nonzero"/></clipPath><mask id="ed5be801e2"><g filter="url(#7cbe271177)"><rect x="-37.5" width="450" fill="#000000" y="-37.499999" height="449.999989" fill-opacity="0.2"/></g></mask><clipPath id="a3db950337"><path d="M 0.328125 0 L 212.578125 0 L 212.578125 375 L 0.328125 375 Z M 0.328125 0 " clip-rule="nonzero"/></clipPath><clipPath id="83ef9bd157"><rect x="0" width="214" y="0" height="375"/></clipPath></defs><rect x="-37.5" width="450" fill="#ffffff" y="-37.499999" height="449.999989" fill-opacity="1"/><rect x="-37.5" width="450" fill="#ffc6c7" y="-37.499999" height="449.999989" fill-opacity="1"/><g clip-path="url(#13aa3f3cd1)"><path fill="#000000" d="M 202.515625 333.269531 L 202.515625 374.980469 L 172.519531 374.980469 L 172.519531 333.269531 Z M 202.515625 333.269531 " fill-opacity="1" fill-rule="nonzero"/></g><g clip-path="url(#95fe29f00c)"><path fill="#000000" d="M 202.515625 0 L 202.515625 41.710938 L 172.519531 41.710938 L 172.519531 0 Z M 202.515625 0 " fill-opacity="1" fill-rule="nonzero"/></g><g clip-path="url(#22f9614870)"><path fill="#000000" d="M 41.726562 202.515625 L 0.015625 202.515625 L 0.015625 172.519531 L 41.726562 172.519531 Z M 41.726562 202.515625 " fill-opacity="1" fill-rule="nonzero"/></g><g clip-path="url(#e2e6aa8e2d)"><path fill="#000000" d="M 374.996094 202.515625 L 333.285156 202.515625 L 333.285156 172.519531 L 374.996094 172.519531 Z M 374.996094 202.515625 " fill-opacity="1" fill-rule="nonzero"/></g><g clip-path="url(#32ed103f87)"><g clip-path="url(#56c381eb16)"><path fill="#000000" d="M 123.183594 319.171875 L 101.128906 354.578125 L 75.667969 338.71875 L 97.71875 303.3125 Z M 123.183594 319.171875 " fill-opacity="1" fill-rule="nonzero"/></g></g><g clip-path="url(#05bf795362)"><g clip-path="url(#aa22ff7cfa)"><path fill="#000000" d="M 299.371094 36.28125 L 277.316406 71.691406 L 251.855469 55.832031 L 273.910156 20.425781 Z M 299.371094 36.28125 " fill-opacity="1" fill-rule="nonzero"/></g></g><g clip-path="url(#21b6d26c17)"><g clip-path="url(#ed3244b033)"><path fill="#000000" d="M 55.824219 123.179688 L 20.417969 101.128906 L 36.273438 75.667969 L 71.683594 97.71875 Z M 55.824219 123.179688 " fill-opacity="1" fill-rule="nonzero"/></g></g><g clip-path="url(#ed8078efbd)"><g clip-path="url(#785baf3977)"><path fill="#000000" d="M 338.710938 299.371094 L 303.304688 277.316406 L 319.164062 251.855469 L 354.570312 273.90625 Z M 338.710938 299.371094 " fill-opacity="1" fill-rule="nonzero"/></g></g><g clip-path="url(#7948e481bd)"><g clip-path="url(#f836359f48)"><path fill="#000000" d="M 67.699219 271.894531 L 31.316406 292.296875 L 16.644531 266.132812 L 53.027344 245.730469 Z M 67.699219 271.894531 " fill-opacity="1" fill-rule="nonzero"/></g></g><g clip-path="url(#0b6b0cc875)"><g clip-path="url(#580755f38d)"><path fill="#000000" d="M 358.382812 108.890625 L 322 129.292969 L 307.332031 103.128906 L 343.714844 82.726562 Z M 358.382812 108.890625 " fill-opacity="1" fill-rule="nonzero"/></g></g><g clip-path="url(#5f146c1658)"><g clip-path="url(#146fe26f13)"><path fill="#000000" d="M 103.101562 67.699219 L 82.699219 31.316406 L 108.863281 16.644531 L 129.265625 53.027344 Z M 103.101562 67.699219 " fill-opacity="1" fill-rule="nonzero"/></g></g><g clip-path="url(#cb3ca8ba0b)"><g clip-path="url(#43b23bb98b)"><path fill="#000000" d="M 266.105469 358.382812 L 245.703125 322 L 271.867188 307.328125 L 292.269531 343.710938 Z M 266.105469 358.382812 " fill-opacity="1" fill-rule="nonzero"/></g></g><g fill="#000000" fill-opacity="1"><g transform="translate(124.665421, 205.177136)"><g><path d="M 10.703125 -28.984375 C 10.703125 -29.453125 10.53125 -29.796875 10.1875 -30.015625 C 9.84375 -30.242188 9.460938 -30.359375 9.046875 -30.359375 C 8.234375 -30.359375 7.4375 -30.238281 6.65625 -30 C 5.882812 -29.757812 5.1875 -29.429688 4.5625 -29.015625 C 3.945312 -28.597656 3.453125 -28.097656 3.078125 -27.515625 C 2.710938 -26.941406 2.53125 -26.316406 2.53125 -25.640625 C 2.53125 -25.171875 2.59375 -24.796875 2.71875 -24.515625 C 2.84375 -24.242188 2.984375 -24.035156 3.140625 -23.890625 C 3.304688 -23.753906 3.472656 -23.664062 3.640625 -23.625 C 3.804688 -23.59375 3.925781 -23.578125 4 -23.578125 C 4.363281 -23.578125 4.660156 -23.640625 4.890625 -23.765625 C 5.128906 -23.890625 5.34375 -24.019531 5.53125 -24.15625 C 5.726562 -24.300781 5.910156 -24.429688 6.078125 -24.546875 C 6.242188 -24.671875 6.4375 -24.734375 6.65625 -24.734375 C 6.832031 -24.734375 7.019531 -24.691406 7.21875 -24.609375 C 7.414062 -24.535156 7.597656 -24.410156 7.765625 -24.234375 C 7.929688 -24.054688 8.070312 -23.820312 8.1875 -23.53125 C 8.3125 -23.25 8.375 -22.90625 8.375 -22.5 C 8.375 -21.914062 8.257812 -21.410156 8.03125 -20.984375 C 7.800781 -20.554688 7.503906 -20.195312 7.140625 -19.90625 C 6.785156 -19.625 6.378906 -19.414062 5.921875 -19.28125 C 5.460938 -19.144531 5.003906 -19.078125 4.546875 -19.078125 C 3.847656 -19.078125 3.210938 -19.195312 2.640625 -19.4375 C 2.078125 -19.675781 1.597656 -20.007812 1.203125 -20.4375 C 0.804688 -20.863281 0.503906 -21.359375 0.296875 -21.921875 C 0.0976562 -22.492188 0 -23.101562 0 -23.75 C 0 -25.582031 0.457031 -27.085938 1.375 -28.265625 C 2.300781 -29.441406 3.554688 -30.367188 5.140625 -31.046875 C 6.734375 -31.734375 8.585938 -32.203125 10.703125 -32.453125 C 12.828125 -32.710938 15.082031 -32.84375 17.46875 -32.84375 C 20.195312 -32.84375 22.660156 -32.566406 24.859375 -32.015625 C 27.066406 -31.472656 28.953125 -30.585938 30.515625 -29.359375 C 32.085938 -28.128906 33.296875 -26.519531 34.140625 -24.53125 C 34.992188 -22.550781 35.421875 -20.128906 35.421875 -17.265625 C 35.421875 -14.410156 34.96875 -11.875 34.0625 -9.65625 C 33.164062 -7.445312 31.9375 -5.59375 30.375 -4.09375 C 28.8125 -2.59375 26.976562 -1.453125 24.875 -0.671875 C 22.78125 0.109375 20.53125 0.5 18.125 0.5 C 16.53125 0.5 15.242188 0.421875 14.265625 0.265625 C 13.296875 0.117188 12.546875 -0.140625 12.015625 -0.515625 C 11.492188 -0.890625 11.144531 -1.382812 10.96875 -2 C 10.789062 -2.625 10.703125 -3.414062 10.703125 -4.375 Z M 17.953125 -4.171875 C 17.953125 -3.335938 18.140625 -2.738281 18.515625 -2.375 C 18.890625 -2.019531 19.441406 -1.84375 20.171875 -1.84375 C 21.265625 -1.84375 22.273438 -2.082031 23.203125 -2.5625 C 24.140625 -3.050781 24.941406 -3.882812 25.609375 -5.0625 C 26.285156 -6.238281 26.816406 -7.804688 27.203125 -9.765625 C 27.585938 -11.734375 27.78125 -14.207031 27.78125 -17.1875 C 27.78125 -19.175781 27.65625 -20.898438 27.40625 -22.359375 C 27.164062 -23.816406 26.847656 -25.050781 26.453125 -26.0625 C 26.054688 -27.082031 25.601562 -27.910156 25.09375 -28.546875 C 24.59375 -29.191406 24.078125 -29.691406 23.546875 -30.046875 C 23.023438 -30.410156 22.507812 -30.648438 22 -30.765625 C 21.5 -30.890625 21.050781 -30.953125 20.65625 -30.953125 C 19.695312 -30.953125 19.003906 -30.738281 18.578125 -30.3125 C 18.160156 -29.894531 17.953125 -29.132812 17.953125 -28.03125 Z M 17.953125 -4.171875 "/></g></g></g><g fill="#000000" fill-opacity="1"><g transform="translate(161.922403, 205.177136)"><g><path d="M 12.640625 -11.375 C 12.640625 -11.75 12.519531 -12.03125 12.28125 -12.21875 C 12.050781 -12.40625 11.75 -12.5 11.375 -12.5 C 10.863281 -12.5 10.378906 -12.378906 9.921875 -12.140625 C 9.460938 -11.910156 9.054688 -11.566406 8.703125 -11.109375 C 8.347656 -10.660156 8.066406 -10.101562 7.859375 -9.4375 C 7.660156 -8.769531 7.5625 -8 7.5625 -7.125 C 7.5625 -6.269531 7.625 -5.5625 7.75 -5 C 7.875 -4.445312 8.039062 -4.003906 8.25 -3.671875 C 8.457031 -3.347656 8.703125 -3.117188 8.984375 -2.984375 C 9.265625 -2.859375 9.554688 -2.796875 9.859375 -2.796875 C 10.242188 -2.796875 10.601562 -2.894531 10.9375 -3.09375 C 11.28125 -3.289062 11.570312 -3.539062 11.8125 -3.84375 C 12.0625 -4.15625 12.257812 -4.5 12.40625 -4.875 C 12.5625 -5.257812 12.640625 -5.640625 12.640625 -6.015625 Z M 9.140625 -21 C 8.640625 -21 8.175781 -20.941406 7.75 -20.828125 C 7.332031 -20.710938 6.96875 -20.566406 6.65625 -20.390625 C 6.351562 -20.210938 6.113281 -20.015625 5.9375 -19.796875 C 5.757812 -19.585938 5.671875 -19.390625 5.671875 -19.203125 C 5.671875 -18.984375 5.78125 -18.828125 6 -18.734375 C 6.226562 -18.640625 6.484375 -18.53125 6.765625 -18.40625 C 7.046875 -18.28125 7.296875 -18.101562 7.515625 -17.875 C 7.742188 -17.644531 7.859375 -17.296875 7.859375 -16.828125 C 7.859375 -16.523438 7.796875 -16.242188 7.671875 -15.984375 C 7.554688 -15.722656 7.390625 -15.492188 7.171875 -15.296875 C 6.960938 -15.097656 6.710938 -14.941406 6.421875 -14.828125 C 6.140625 -14.722656 5.84375 -14.671875 5.53125 -14.671875 C 4.71875 -14.671875 4.054688 -14.945312 3.546875 -15.5 C 3.046875 -16.0625 2.796875 -16.804688 2.796875 -17.734375 C 2.796875 -18.628906 3.03125 -19.394531 3.5 -20.03125 C 3.96875 -20.664062 4.578125 -21.1875 5.328125 -21.59375 C 6.078125 -22.007812 6.925781 -22.316406 7.875 -22.515625 C 8.832031 -22.710938 9.789062 -22.8125 10.75 -22.8125 C 11.882812 -22.8125 12.972656 -22.6875 14.015625 -22.4375 C 15.054688 -22.1875 15.972656 -21.789062 16.765625 -21.25 C 17.566406 -20.707031 18.207031 -20.019531 18.6875 -19.1875 C 19.164062 -18.351562 19.40625 -17.34375 19.40625 -16.15625 L 19.40625 -3.734375 C 19.40625 -3.597656 19.410156 -3.445312 19.421875 -3.28125 C 19.441406 -3.125 19.476562 -2.976562 19.53125 -2.84375 C 19.59375 -2.71875 19.679688 -2.609375 19.796875 -2.515625 C 19.910156 -2.429688 20.078125 -2.390625 20.296875 -2.390625 C 20.566406 -2.390625 20.8125 -2.488281 21.03125 -2.6875 C 21.257812 -2.882812 21.460938 -3.085938 21.640625 -3.296875 L 22.1875 -2.828125 C 21.96875 -2.523438 21.703125 -2.191406 21.390625 -1.828125 C 21.085938 -1.460938 20.71875 -1.117188 20.28125 -0.796875 C 19.84375 -0.472656 19.328125 -0.203125 18.734375 0.015625 C 18.148438 0.242188 17.488281 0.359375 16.75 0.359375 C 15.820312 0.359375 15 0.0820312 14.28125 -0.46875 C 13.5625 -1.019531 13.09375 -1.867188 12.875 -3.015625 C 12.40625 -2.378906 11.914062 -1.847656 11.40625 -1.421875 C 10.90625 -1.003906 10.390625 -0.660156 9.859375 -0.390625 C 9.335938 -0.128906 8.804688 0.0546875 8.265625 0.171875 C 7.734375 0.296875 7.195312 0.359375 6.65625 0.359375 C 5.957031 0.359375 5.273438 0.242188 4.609375 0.015625 C 3.953125 -0.203125 3.363281 -0.546875 2.84375 -1.015625 C 2.320312 -1.492188 1.90625 -2.113281 1.59375 -2.875 C 1.28125 -3.632812 1.125 -4.566406 1.125 -5.671875 C 1.125 -7.003906 1.382812 -8.09375 1.90625 -8.9375 C 2.4375 -9.789062 3.128906 -10.503906 3.984375 -11.078125 C 4.847656 -11.660156 5.820312 -12.15625 6.90625 -12.5625 C 8 -12.976562 9.117188 -13.410156 10.265625 -13.859375 C 11.109375 -14.203125 11.722656 -14.707031 12.109375 -15.375 C 12.503906 -16.039062 12.703125 -16.722656 12.703125 -17.421875 C 12.703125 -18.503906 12.378906 -19.367188 11.734375 -20.015625 C 11.097656 -20.671875 10.234375 -21 9.140625 -21 Z M 9.140625 -21 "/></g></g></g><g fill="#000000" fill-opacity="1"><g transform="translate(184.373673, 205.177136)"><g><path d="M 15.671875 -10.9375 C 15.671875 -12.789062 15.582031 -14.269531 15.40625 -15.375 C 15.238281 -16.476562 15.015625 -17.316406 14.734375 -17.890625 C 14.460938 -18.472656 14.15625 -18.851562 13.8125 -19.03125 C 13.476562 -19.21875 13.132812 -19.3125 12.78125 -19.3125 C 12.363281 -19.3125 11.988281 -19.195312 11.65625 -18.96875 C 11.320312 -18.75 11.035156 -18.488281 10.796875 -18.1875 C 10.554688 -17.894531 10.351562 -17.601562 10.1875 -17.3125 C 10.019531 -17.019531 9.875 -16.800781 9.75 -16.65625 L 9.75 -1.984375 C 9.75 -1.785156 9.71875 -1.550781 9.65625 -1.28125 C 9.601562 -1.007812 9.460938 -0.753906 9.234375 -0.515625 C 9.015625 -0.273438 8.679688 -0.0703125 8.234375 0.09375 C 7.785156 0.269531 7.171875 0.359375 6.390625 0.359375 C 5.617188 0.359375 5.007812 0.265625 4.5625 0.078125 C 4.113281 -0.109375 3.769531 -0.320312 3.53125 -0.5625 C 3.300781 -0.8125 3.15625 -1.066406 3.09375 -1.328125 C 3.039062 -1.597656 3.015625 -1.816406 3.015625 -1.984375 L 3.015625 -18.9375 C 3.015625 -19.363281 2.914062 -19.734375 2.71875 -20.046875 C 2.519531 -20.359375 2.1875 -20.515625 1.71875 -20.515625 C 1.46875 -20.515625 1.253906 -20.472656 1.078125 -20.390625 C 0.898438 -20.304688 0.707031 -20.179688 0.5 -20.015625 L 0.046875 -20.5625 C 0.378906 -20.84375 0.753906 -21.117188 1.171875 -21.390625 C 1.585938 -21.660156 2.035156 -21.894531 2.515625 -22.09375 C 3.003906 -22.300781 3.523438 -22.472656 4.078125 -22.609375 C 4.640625 -22.742188 5.226562 -22.8125 5.84375 -22.8125 C 6.789062 -22.8125 7.53125 -22.648438 8.0625 -22.328125 C 8.59375 -22.015625 8.984375 -21.640625 9.234375 -21.203125 C 9.484375 -20.765625 9.628906 -20.304688 9.671875 -19.828125 C 9.722656 -19.347656 9.75 -18.953125 9.75 -18.640625 C 10.289062 -19.410156 10.910156 -20.101562 11.609375 -20.71875 C 11.878906 -20.976562 12.1875 -21.234375 12.53125 -21.484375 C 12.875 -21.734375 13.238281 -21.957031 13.625 -22.15625 C 14.019531 -22.351562 14.429688 -22.507812 14.859375 -22.625 C 15.296875 -22.75 15.738281 -22.8125 16.1875 -22.8125 C 17.1875 -22.8125 18.070312 -22.617188 18.84375 -22.234375 C 19.613281 -21.859375 20.257812 -21.222656 20.78125 -20.328125 C 21.3125 -19.429688 21.710938 -18.242188 21.984375 -16.765625 C 22.265625 -15.296875 22.40625 -13.472656 22.40625 -11.296875 C 22.40625 -9.171875 22.210938 -7.320312 21.828125 -5.75 C 21.453125 -4.1875 20.957031 -2.851562 20.34375 -1.75 C 19.726562 -0.65625 19.03125 0.238281 18.25 0.9375 C 17.476562 1.632812 16.695312 2.179688 15.90625 2.578125 C 15.113281 2.972656 14.351562 3.242188 13.625 3.390625 C 12.90625 3.546875 12.28125 3.628906 11.75 3.640625 L 11.515625 2.75 C 11.953125 2.644531 12.359375 2.484375 12.734375 2.265625 C 13.109375 2.046875 13.445312 1.722656 13.75 1.296875 C 14.0625 0.867188 14.332031 0.332031 14.5625 -0.3125 C 14.800781 -0.96875 15.003906 -1.785156 15.171875 -2.765625 C 15.335938 -3.742188 15.460938 -4.90625 15.546875 -6.25 C 15.628906 -7.59375 15.671875 -9.15625 15.671875 -10.9375 Z M 15.671875 -10.9375 "/></g></g></g><g fill="#000000" fill-opacity="1"><g transform="translate(208.626231, 205.177136)"><g><path d="M 16.703125 -15.203125 C 16.242188 -15.203125 15.859375 -15.269531 15.546875 -15.40625 C 15.242188 -15.550781 15 -15.738281 14.8125 -15.96875 C 14.625 -16.207031 14.484375 -16.46875 14.390625 -16.75 C 14.304688 -17.039062 14.265625 -17.335938 14.265625 -17.640625 C 14.265625 -18.035156 14.289062 -18.414062 14.34375 -18.78125 C 14.394531 -19.15625 14.398438 -19.488281 14.359375 -19.78125 C 14.316406 -20.070312 14.203125 -20.304688 14.015625 -20.484375 C 13.828125 -20.660156 13.492188 -20.75 13.015625 -20.75 C 12.492188 -20.75 11.945312 -20.597656 11.375 -20.296875 C 10.8125 -20.003906 10.296875 -19.539062 9.828125 -18.90625 C 9.359375 -18.28125 8.96875 -17.472656 8.65625 -16.484375 C 8.351562 -15.492188 8.203125 -14.304688 8.203125 -12.921875 C 8.203125 -11.378906 8.34375 -9.972656 8.625 -8.703125 C 8.90625 -7.441406 9.332031 -6.363281 9.90625 -5.46875 C 10.476562 -4.570312 11.1875 -3.878906 12.03125 -3.390625 C 12.882812 -2.898438 13.882812 -2.65625 15.03125 -2.65625 C 15.539062 -2.65625 16.023438 -2.710938 16.484375 -2.828125 C 16.953125 -2.953125 17.390625 -3.113281 17.796875 -3.3125 C 18.203125 -3.519531 18.59375 -3.757812 18.96875 -4.03125 C 19.34375 -4.300781 19.707031 -4.59375 20.0625 -4.90625 L 20.609375 -4.375 C 20.273438 -3.914062 19.84375 -3.414062 19.3125 -2.875 C 18.78125 -2.332031 18.140625 -1.820312 17.390625 -1.34375 C 16.648438 -0.875 15.78125 -0.476562 14.78125 -0.15625 C 13.789062 0.15625 12.65625 0.3125 11.375 0.3125 C 10.101562 0.3125 8.863281 0.0664062 7.65625 -0.421875 C 6.445312 -0.921875 5.375 -1.640625 4.4375 -2.578125 C 3.5 -3.515625 2.75 -4.648438 2.1875 -5.984375 C 1.625 -7.328125 1.34375 -8.851562 1.34375 -10.5625 C 1.34375 -11.894531 1.507812 -13.125 1.84375 -14.25 C 2.175781 -15.375 2.632812 -16.390625 3.21875 -17.296875 C 3.800781 -18.203125 4.472656 -19 5.234375 -19.6875 C 6.003906 -20.375 6.8125 -20.945312 7.65625 -21.40625 C 8.507812 -21.875 9.378906 -22.222656 10.265625 -22.453125 C 11.160156 -22.691406 12.015625 -22.8125 12.828125 -22.8125 C 13.910156 -22.8125 14.851562 -22.6875 15.65625 -22.4375 C 16.46875 -22.1875 17.140625 -21.851562 17.671875 -21.4375 C 18.210938 -21.03125 18.613281 -20.554688 18.875 -20.015625 C 19.132812 -19.484375 19.265625 -18.9375 19.265625 -18.375 C 19.265625 -17.945312 19.207031 -17.535156 19.09375 -17.140625 C 18.988281 -16.753906 18.828125 -16.414062 18.609375 -16.125 C 18.398438 -15.84375 18.132812 -15.617188 17.8125 -15.453125 C 17.5 -15.285156 17.128906 -15.203125 16.703125 -15.203125 Z M 16.703125 -15.203125 "/></g></g></g><g fill="#000000" fill-opacity="1"><g transform="translate(229.495881, 205.177136)"><g><path d="M 8.421875 -10.078125 C 8.421875 -9.609375 8.488281 -9.097656 8.625 -8.546875 C 8.757812 -8.003906 8.957031 -7.453125 9.21875 -6.890625 C 9.488281 -6.335938 9.816406 -5.804688 10.203125 -5.296875 C 10.585938 -4.796875 11.035156 -4.347656 11.546875 -3.953125 C 12.054688 -3.554688 12.617188 -3.238281 13.234375 -3 C 13.847656 -2.769531 14.519531 -2.65625 15.25 -2.65625 C 15.757812 -2.65625 16.234375 -2.710938 16.671875 -2.828125 C 17.117188 -2.953125 17.53125 -3.113281 17.90625 -3.3125 C 18.289062 -3.519531 18.65625 -3.757812 19 -4.03125 C 19.351562 -4.300781 19.707031 -4.59375 20.0625 -4.90625 L 20.609375 -4.375 C 20.273438 -3.914062 19.84375 -3.414062 19.3125 -2.875 C 18.78125 -2.332031 18.140625 -1.820312 17.390625 -1.34375 C 16.648438 -0.875 15.78125 -0.476562 14.78125 -0.15625 C 13.789062 0.15625 12.65625 0.3125 11.375 0.3125 C 10.101562 0.3125 8.863281 0.0820312 7.65625 -0.375 C 6.445312 -0.84375 5.375 -1.535156 4.4375 -2.453125 C 3.5 -3.378906 2.75 -4.53125 2.1875 -5.90625 C 1.625 -7.28125 1.34375 -8.894531 1.34375 -10.75 C 1.34375 -12.082031 1.507812 -13.300781 1.84375 -14.40625 C 2.175781 -15.519531 2.632812 -16.523438 3.21875 -17.421875 C 3.800781 -18.316406 4.472656 -19.097656 5.234375 -19.765625 C 6.003906 -20.441406 6.8125 -21.003906 7.65625 -21.453125 C 8.507812 -21.898438 9.378906 -22.238281 10.265625 -22.46875 C 11.160156 -22.695312 12.015625 -22.8125 12.828125 -22.8125 C 13.910156 -22.8125 14.851562 -22.691406 15.65625 -22.453125 C 16.46875 -22.222656 17.140625 -21.910156 17.671875 -21.515625 C 18.210938 -21.117188 18.613281 -20.660156 18.875 -20.140625 C 19.132812 -19.617188 19.265625 -19.070312 19.265625 -18.5 C 19.265625 -17.8125 19.066406 -17.191406 18.671875 -16.640625 C 18.273438 -16.097656 17.75 -15.617188 17.09375 -15.203125 Z M 12.828125 -14.546875 C 13.023438 -14.660156 13.179688 -14.769531 13.296875 -14.875 C 13.421875 -14.988281 13.519531 -15.125 13.59375 -15.28125 C 13.675781 -15.4375 13.734375 -15.625 13.765625 -15.84375 C 13.804688 -16.070312 13.828125 -16.359375 13.828125 -16.703125 C 13.828125 -17.066406 13.785156 -17.472656 13.703125 -17.921875 C 13.617188 -18.367188 13.484375 -18.789062 13.296875 -19.1875 C 13.109375 -19.582031 12.863281 -19.910156 12.5625 -20.171875 C 12.269531 -20.429688 11.921875 -20.5625 11.515625 -20.5625 C 10.984375 -20.5625 10.53125 -20.40625 10.15625 -20.09375 C 9.789062 -19.78125 9.484375 -19.375 9.234375 -18.875 C 8.992188 -18.375 8.800781 -17.804688 8.65625 -17.171875 C 8.519531 -16.535156 8.414062 -15.894531 8.34375 -15.25 C 8.269531 -14.601562 8.226562 -13.984375 8.21875 -13.390625 C 8.207031 -12.796875 8.203125 -12.296875 8.203125 -11.890625 Z M 12.828125 -14.546875 "/></g></g></g><g mask="url(#ed5be801e2)"><g transform="matrix(1, 0, 0, 1, 81, 0)"><g clip-path="url(#83ef9bd157)"><g clip-path="url(#a3db950337)"><path fill="#000000" d="M 104.164062 105.238281 C 104.242188 105.164062 104.320312 105.011719 104.394531 104.859375 C 103.480469 108.59375 105.386719 113.707031 107.519531 116.757812 C 109.808594 120.1875 113.847656 121.027344 117.964844 122.171875 C 113.773438 122.324219 108.816406 121.945312 106.070312 118.28125 C 103.785156 115.15625 101.878906 108.824219 104.164062 105.238281 Z M 114.078125 208.511719 C 114.152344 206.53125 114.304688 204.625 114.535156 202.640625 C 114.6875 201.417969 114.839844 199.894531 114.914062 198.75 C 114.914062 198.597656 114.6875 198.519531 114.609375 198.675781 C 113.925781 200.429688 113.085938 202.03125 112.476562 203.785156 C 111.714844 205.84375 111.105469 208.054688 110.644531 210.191406 C 109.808594 214.539062 109.730469 219.113281 111.027344 223.386719 C 112.703125 228.726562 116.59375 233.300781 121.777344 235.285156 C 132.070312 239.25 148.003906 233.910156 151.433594 232.921875 C 159.972656 230.554688 167.597656 228.496094 175.984375 225.675781 C 176.820312 225.371094 177.738281 225.140625 178.804688 224.835938 C 178.269531 225.21875 177.660156 225.597656 177.203125 225.902344 C 174.078125 228.191406 171.714844 231.699219 169.273438 234.523438 C 165.917969 238.335938 161.957031 241.617188 158.523438 245.429688 C 158.296875 245.734375 158.601562 246.117188 158.90625 245.886719 C 163.25 243.140625 167.519531 239.707031 170.800781 235.820312 C 173.238281 232.84375 175.222656 229.335938 177.964844 226.589844 C 178.574219 225.980469 179.796875 225.21875 180.632812 224.757812 C 180.9375 224.605469 181.015625 224.378906 181.015625 224.226562 C 185.4375 223.003906 190.699219 221.859375 193.898438 221.402344 C 196.109375 221.097656 194.433594 220.105469 193.671875 220.183594 C 186.277344 221.175781 169.121094 226.820312 162.640625 228.421875 C 155.398438 230.25 148.15625 232.617188 140.609375 232.996094 C 133.898438 233.378906 125.894531 231.546875 120.480469 227.429688 C 114.761719 223.082031 113.847656 215.226562 114.078125 208.511719 Z M 209.679688 213.316406 C 206.554688 210.34375 202.4375 208.511719 198.398438 206.988281 C 194.355469 205.460938 190.164062 204.242188 185.96875 203.328125 C 177.964844 201.574219 164.394531 198.367188 158.90625 198.902344 C 158.523438 198.902344 158.523438 199.511719 158.90625 199.511719 C 165.308594 199.742188 177.28125 201.648438 185.742188 203.707031 C 190.238281 204.777344 194.738281 206.148438 199.007812 207.980469 C 202.894531 209.65625 207.394531 211.714844 210.0625 215.226562 C 211.207031 216.75 211.585938 218.199219 210.75 219.878906 C 209.984375 221.554688 208.691406 222.929688 207.46875 224.300781 C 205.105469 226.742188 202.515625 228.953125 199.921875 231.089844 C 196.949219 233.605469 194.050781 236.199219 190.925781 238.566406 C 187.265625 241.308594 183.53125 243.597656 179.71875 245.964844 C 176.820312 247.71875 173.847656 249.394531 170.953125 251.148438 C 167.671875 253.054688 164.777344 255.039062 161.726562 257.25 C 158.828125 259.464844 155.855469 262.285156 152.578125 263.886719 C 148.996094 265.640625 145.03125 266.9375 141.292969 268.386719 C 139.160156 269.226562 137.101562 270.066406 134.964844 270.828125 C 132.832031 271.515625 130.621094 272.046875 128.484375 272.507812 C 127.648438 272.734375 125.664062 273.421875 124.75 273.117188 C 123.835938 272.8125 124.21875 270.292969 124.523438 269.457031 C 124.980469 267.929688 125.96875 266.632812 127.34375 265.871094 C 129.402344 264.726562 131.917969 264.117188 134.050781 263.199219 C 135.5 262.589844 137.40625 261.902344 138.09375 260.378906 C 138.398438 259.617188 138.625 258.851562 138.929688 258.089844 C 139.847656 255.726562 142.515625 251.605469 143.808594 250.15625 C 144.191406 249.777344 143.429688 249.167969 143.046875 249.546875 C 141.445312 251.074219 139.386719 255.421875 138.398438 257.710938 C 138.09375 258.472656 137.863281 259.234375 137.40625 259.921875 C 136.796875 260.988281 135.652344 261.371094 134.585938 261.828125 C 130.238281 263.507812 124.445312 263.886719 122.769531 269.148438 C 122.3125 270.597656 122.082031 272.429688 122.691406 273.804688 C 123.226562 275.097656 124.0625 275.253906 125.359375 275.253906 C 128.640625 275.175781 131.992188 274.261719 135.117188 273.496094 C 140.53125 272.125 145.867188 269.988281 151.054688 268.007812 C 157.457031 265.566406 162.945312 260.683594 168.207031 256.335938 C 169.503906 255.421875 172.019531 253.742188 173.773438 252.597656 C 175.984375 251.074219 178.195312 249.625 180.40625 248.175781 C 184.597656 245.429688 188.867188 242.757812 192.757812 239.554688 C 195.578125 237.269531 198.320312 234.75 201.066406 232.308594 C 204.269531 229.566406 207.546875 226.742188 210.0625 223.386719 C 211.207031 221.9375 212.578125 220.03125 212.5 218.046875 C 212.347656 216.140625 210.976562 214.539062 209.679688 213.316406 Z M 134.203125 250.464844 C 136.1875 247.105469 133.824219 248.9375 133.289062 249.851562 C 131.308594 253.285156 128.792969 257.328125 126.886719 260.300781 C 124.828125 263.507812 123.074219 266.175781 120.710938 270.21875 C 117.660156 275.40625 115.296875 280.363281 111.257812 284.9375 C 110.035156 286.3125 108.433594 287.761719 107.824219 289.515625 C 107.0625 291.957031 106.683594 294.550781 106.148438 297.066406 C 104.851562 303.320312 103.859375 309.652344 101.800781 315.675781 C 99.742188 321.777344 97.6875 327.804688 97 334.289062 C 96.695312 337.183594 96.238281 340.007812 95.703125 342.828125 C 95.320312 344.8125 94.789062 346.871094 93.644531 348.550781 C 90.976562 352.515625 88.15625 356.328125 85.257812 360.066406 C 82.589844 363.574219 80.074219 367.390625 76.492188 369.984375 C 76.035156 370.289062 74.128906 369.523438 74.128906 367.769531 C 74.128906 365.558594 75.347656 363.269531 76.339844 361.363281 C 77.863281 358.160156 80.761719 354.5 79.617188 350.839844 C 78.703125 348.015625 77.328125 345.421875 76.414062 342.601562 C 76.109375 341.609375 75.652344 340.390625 75.730469 339.320312 C 75.882812 338.253906 76.871094 337.71875 77.710938 337.261719 C 78.703125 336.804688 80.988281 336.574219 82.285156 336.804688 C 82.894531 336.957031 82.972656 335.890625 82.363281 335.8125 C 80.835938 335.507812 78.550781 336.347656 77.480469 336.726562 C 75.117188 337.566406 74.507812 338.941406 74.890625 341.304688 C 75.421875 344.964844 77.101562 348.398438 77.789062 352.058594 C 77.863281 352.289062 77.863281 352.59375 77.789062 352.820312 C 77.480469 354.347656 76.261719 355.949219 75.421875 357.246094 C 73.289062 360.675781 69.859375 365.101562 70.542969 369.371094 C 71 372.117188 74.203125 374.789062 77.101562 374.332031 C 77.863281 374.179688 78.398438 373.644531 78.929688 373.109375 C 80 371.964844 80.988281 370.820312 81.980469 369.679688 C 84.574219 366.625 87.089844 363.652344 89.375 360.371094 C 91.359375 357.398438 93.339844 354.421875 95.246094 351.449219 C 99.058594 345.652344 98.828125 338.40625 99.589844 331.695312 C 100.050781 327.347656 101.421875 323.152344 102.71875 318.957031 C 104.011719 314.761719 105.082031 310.71875 105.917969 306.371094 C 106.757812 301.871094 107.445312 297.371094 108.28125 292.792969 C 108.511719 291.652344 108.585938 290.355469 109.046875 289.285156 C 109.730469 287.761719 111.105469 286.539062 112.171875 285.320312 C 114.914062 282.117188 116.898438 278.761719 119.03125 275.097656 C 121.242188 271.210938 123.53125 267.472656 125.894531 263.660156 C 128.484375 259.234375 131.460938 255.117188 134.203125 250.464844 Z M 103.023438 260.683594 C 100.734375 266.328125 98.449219 272.199219 95.09375 277.234375 C 91.816406 282.191406 88.765625 286.996094 87.242188 292.871094 C 85.867188 298.210938 85.792969 303.777344 85.867188 309.269531 C 85.945312 312.855469 86.25 316.4375 86.632812 320.023438 C 86.9375 323.378906 87.46875 326.8125 87.546875 330.167969 C 87.621094 329.785156 87.699219 329.558594 87.773438 329.328125 C 88.6875 325.898438 88.84375 322.160156 89.148438 318.574219 C 89.453125 314.609375 89.757812 310.566406 90.136719 306.601562 C 90.671875 301.566406 91.207031 296.457031 93.035156 291.652344 C 94.863281 286.84375 97.992188 282.957031 100.429688 278.457031 C 107.292969 266.023438 109.503906 251.835938 112.171875 238.105469 C 110.339844 241.464844 109.046875 245.199219 107.671875 248.785156 C 106.070312 252.902344 104.546875 256.792969 103.023438 260.683594 Z M 121.167969 108.136719 C 123.53125 103.179688 125.894531 98.144531 128.640625 93.339844 C 133.746094 84.265625 133.519531 73.433594 135.347656 63.441406 C 136.1875 58.5625 137.789062 54.058594 139.007812 49.253906 C 140.53125 43.382812 141.21875 37.28125 142.894531 31.40625 C 143.582031 29.121094 144.496094 26.832031 145.5625 24.542969 C 146.097656 23.398438 146.632812 22.332031 147.164062 21.1875 L 148.613281 18.210938 C 148.613281 18.210938 151.359375 13.558594 152.804688 11.578125 C 154.253906 9.515625 155.78125 7.535156 157.457031 5.628906 C 159.058594 3.71875 160.734375 2.042969 162.71875 0.210938 C 160.507812 1.507812 158.601562 3.1875 156.769531 4.941406 C 154.941406 6.695312 153.265625 8.601562 151.585938 10.585938 C 149.984375 12.566406 148.382812 14.550781 146.9375 16.761719 L 145.03125 20.042969 C 144.34375 21.109375 143.734375 22.253906 143.046875 23.324219 C 141.75 25.535156 140.609375 27.824219 139.695312 30.339844 C 137.175781 37.203125 136.261719 44.527344 134.128906 51.542969 C 132.679688 56.425781 131.6875 61.304688 131.003906 66.417969 C 130.46875 71.070312 130.46875 75.796875 129.78125 80.375 C 129.097656 84.796875 128.105469 88.917969 126.273438 92.960938 C 124.0625 97.839844 122.234375 102.875 120.632812 107.984375 C 120.632812 108.289062 121.015625 108.441406 121.167969 108.136719 Z M 51.179688 172.894531 C 57.660156 169.234375 64.0625 165.417969 70.390625 161.527344 C 74.355469 159.089844 77.710938 155.960938 81.21875 152.910156 C 83.351562 151.003906 85.488281 149.019531 87.546875 147.039062 C 89.300781 145.359375 91.207031 143.605469 92.730469 141.699219 C 92.804688 141.621094 92.957031 141.394531 93.265625 141.011719 C 91.359375 143.375 88.765625 145.207031 86.554688 147.191406 C 84.191406 149.25 81.75 151.230469 79.3125 153.214844 C 76.261719 155.730469 73.289062 158.25 69.859375 160.15625 C 61.472656 164.886719 53.160156 169.691406 44.777344 174.34375 C 40.734375 176.554688 36.769531 178.765625 32.730469 181.054688 C 28.460938 183.417969 23.960938 185.707031 20.148438 188.757812 C 15.882812 192.191406 11.765625 196.003906 8.105469 200.125 C 4.75 203.9375 0.480469 209.046875 0.328125 214.386719 C 0.632812 211.335938 2.539062 208.511719 4.367188 206.074219 C 6.351562 203.480469 8.636719 201.039062 11 198.75 C 14.964844 194.9375 19.234375 191.046875 23.886719 188.148438 C 32.730469 182.734375 42.105469 178.082031 51.179688 172.894531 Z M 97.992188 157.640625 C 90.746094 161.605469 83.886719 166.183594 76.949219 170.683594 C 73.289062 173.046875 69.554688 175.488281 65.894531 177.925781 C 62.617188 180.0625 59.335938 181.589844 55.601562 182.886719 C 49.960938 184.792969 44.242188 186.394531 38.449219 188.070312 C 35.625 188.910156 32.882812 190.359375 30.289062 191.808594 C 27.089844 193.5625 23.886719 195.394531 20.835938 197.378906 C 27.316406 194.328125 33.796875 190.742188 40.886719 189.140625 C 44.625 188.300781 48.359375 187.308594 52.019531 186.164062 C 55.601562 185.097656 59.414062 184.03125 62.769531 182.273438 C 64.140625 181.589844 65.4375 180.671875 66.734375 179.757812 C 69.859375 177.699219 72.90625 175.5625 76.035156 173.425781 C 83.429688 168.316406 90.746094 162.976562 97.992188 157.640625 Z M 101.800781 160.230469 C 103.328125 160.84375 104.777344 161.527344 106.148438 162.367188 C 109.730469 164.578125 112.933594 167.554688 115.066406 171.0625 C 118.5 176.632812 117.277344 182.808594 116.746094 188.910156 C 116.746094 189.0625 116.898438 189.0625 116.972656 188.988281 C 119.183594 182.886719 120.558594 176.019531 116.972656 170.222656 C 114.535156 166.257812 110.417969 162.75 105.84375 160.996094 C 104.546875 160.539062 103.25 160.15625 101.878906 160.003906 C 101.726562 159.925781 101.648438 160.15625 101.800781 160.230469 Z M 150.59375 183.496094 C 150.671875 183.648438 150.902344 183.570312 150.824219 183.417969 C 148.917969 174.875 146.097656 163.207031 146.171875 153.292969 C 146.171875 153.140625 145.945312 153.140625 145.945312 153.214844 C 144.34375 158.097656 144.800781 163.589844 145.714844 168.546875 C 146.707031 173.734375 148.308594 178.84375 150.59375 183.496094 Z M 53.3125 140.554688 C 56.363281 132.242188 56.667969 123.164062 59.871094 114.925781 C 61.320312 111.265625 63.605469 108.214844 66.960938 106.078125 C 68.636719 105.011719 70.46875 104.25 72.375 103.636719 C 74.203125 103.027344 76.1875 102.722656 78.09375 102.1875 C 78.09375 102.1875 78.320312 102.113281 78.855469 101.960938 C 76.414062 102.570312 73.898438 102.492188 71.460938 103.027344 C 69.171875 103.5625 66.960938 104.476562 64.980469 105.699219 C 57.355469 110.65625 56.058594 120.339844 54.457031 128.578125 C 52.855469 136.894531 51.484375 146.273438 45.308594 152.605469 C 49.273438 149.707031 51.714844 145.128906 53.3125 140.554688 Z M 68.484375 131.628906 C 64.828125 136.511719 63.074219 142.613281 63.226562 148.640625 C 64.828125 143.070312 66.65625 137.578125 70.164062 132.851562 C 73.519531 128.351562 79.84375 122.476562 81.21875 119.882812 C 77.175781 124.003906 71.992188 126.902344 68.484375 131.628906 Z M 148.84375 36.976562 C 148.308594 41.246094 148.003906 45.519531 147.621094 49.789062 C 147.242188 55.355469 146.9375 60.847656 146.554688 66.417969 C 146.25 71.757812 144.421875 77.019531 143.046875 82.128906 C 141.066406 89.527344 139.234375 97.003906 137.710938 104.476562 C 136.949219 108.136719 136.339844 111.800781 135.882812 115.460938 C 135.5 118.738281 134.738281 123.011719 136.109375 126.136719 C 135.804688 123.621094 135.957031 120.265625 136.414062 117.671875 C 136.871094 114.773438 137.484375 111.953125 138.167969 109.128906 C 139.464844 103.484375 140.914062 97.917969 142.4375 92.347656 C 143.65625 87.695312 144.953125 83.042969 146.25 78.390625 C 146.9375 75.949219 147.621094 73.433594 148.15625 70.917969 C 148.691406 68.398438 148.691406 65.804688 148.84375 63.214844 C 148.996094 59.171875 149.148438 55.050781 149.300781 51.007812 C 149.453125 47.273438 149.605469 43.535156 149.757812 39.796875 C 149.910156 37.28125 149.984375 34.761719 150.214844 32.246094 C 150.367188 29.804688 150.976562 26.296875 151.28125 24.847656 C 149.527344 28.507812 149.300781 33.007812 148.84375 36.976562 Z M 140.914062 147.191406 C 140.53125 148.410156 140.074219 149.628906 139.539062 150.851562 C 138.398438 153.292969 136.949219 155.730469 135.578125 158.171875 C 134.203125 160.613281 132.832031 163.054688 131.535156 165.570312 C 130.238281 168.089844 129.019531 170.605469 127.800781 173.121094 C 126.582031 175.640625 125.359375 178.15625 124.21875 180.75 C 123.074219 183.265625 121.851562 185.859375 120.785156 188.453125 C 121.320312 187.15625 122.007812 185.9375 122.617188 184.714844 C 123.226562 183.496094 123.910156 182.199219 124.597656 180.980469 C 125.894531 178.539062 127.265625 176.097656 128.640625 173.65625 C 130.011719 171.214844 131.382812 168.773438 132.832031 166.410156 C 134.28125 164.046875 135.730469 161.679688 137.328125 159.394531 C 138.855469 157.105469 140.53125 154.816406 142.058594 152.375 C 142.820312 151.15625 143.582031 149.859375 144.117188 148.410156 C 144.726562 146.960938 145.03125 145.433594 145.105469 143.832031 C 145.257812 140.707031 144.191406 137.503906 142.363281 135.0625 C 141.445312 133.84375 140.378906 132.773438 139.234375 131.859375 C 138.015625 130.945312 136.796875 130.257812 135.425781 129.722656 C 137.328125 131.859375 139.007812 134.070312 140 136.433594 C 140.53125 137.578125 140.914062 138.800781 141.140625 140.019531 C 141.371094 141.242188 141.445312 142.460938 141.371094 143.679688 C 141.445312 144.75 141.21875 145.96875 140.914062 147.191406 Z M 140.914062 147.191406 " fill-opacity="1" fill-rule="nonzero"/></g></g></g></g></svg>