<svg xmlns="http://www.w3.org/2000/svg" xmlns:xlink="http://www.w3.org/1999/xlink" width="200" zoomAndPan="magnify" viewBox="0 0 150 149.999998" height="200" preserveAspectRatio="xMidYMid meet" version="1.0"><path fill="#ff8ba7" d="M 78.261719 73.433594 C 65.542969 48.851562 71.765625 19.949219 89.96875 1.164062 C 78.640625 0.132812 66.601562 1.242188 54.722656 5.40625 C 35.167969 12.214844 19.65625 26.589844 12.023438 45.289062 C 4.328125 63.847656 4.511719 86.730469 15.117188 107.070312 C 25.597656 127.484375 44.179688 140.84375 63.769531 145.28125 C 83.445312 149.84375 104.136719 145.484375 120.992188 133.445312 C 131.792969 125.765625 139.933594 115.992188 145.683594 105.558594 C 119.28125 110.285156 91.1875 98.648438 78.261719 73.433594 " fill-opacity="1" fill-rule="nonzero"/><path fill="#ffffff" d="M 60.195312 59.417969 C 52.960938 65.339844 50.152344 66.292969 46.5 67.371094 C 42.851562 68.453125 39.992188 68.101562 37.40625 67.996094 C 34.816406 67.902344 31.65625 66.25 31.65625 66.25 C 31.65625 66.25 34.273438 68.101562 42.925781 66.492188 C 51.566406 64.886719 60.195312 59.417969 60.195312 59.417969 " fill-opacity="1" fill-rule="nonzero"/><path fill="#231f20" d="M 52.730469 72.828125 C 52.757812 72.816406 52.789062 72.804688 52.8125 72.789062 C 52.976562 72.699219 53.085938 72.554688 53.140625 72.386719 C 53.195312 72.21875 53.175781 72.035156 53.085938 71.875 L 50.335938 66.835938 L 50.71875 66.675781 C 52.1875 66.0625 53.65625 65.308594 55.101562 64.4375 L 55.386719 64.269531 L 58.492188 68.292969 C 58.671875 68.527344 58.976562 68.613281 59.257812 68.511719 C 59.320312 68.488281 59.378906 68.457031 59.433594 68.414062 C 59.726562 68.1875 59.78125 67.765625 59.554688 67.476562 L 56.519531 63.539062 L 56.847656 63.316406 C 57.65625 62.765625 58.46875 62.175781 59.257812 61.550781 L 59.507812 61.355469 L 62.492188 64.160156 C 62.679688 64.332031 62.949219 64.390625 63.191406 64.300781 C 63.289062 64.265625 63.378906 64.203125 63.445312 64.128906 C 63.570312 64 63.636719 63.832031 63.625 63.648438 C 63.621094 63.46875 63.550781 63.304688 63.414062 63.179688 L 60.554688 60.496094 L 60.867188 60.222656 C 60.980469 60.121094 61.101562 60.023438 61.21875 59.917969 C 61.351562 59.800781 61.429688 59.636719 61.445312 59.457031 C 61.457031 59.28125 61.398438 59.109375 61.28125 58.976562 C 61.097656 58.765625 60.804688 58.6875 60.539062 58.785156 C 60.464844 58.816406 60.394531 58.855469 60.332031 58.910156 C 56.660156 62.132812 52.855469 64.484375 49.023438 65.898438 C 39.421875 69.4375 32.660156 65.988281 32.375 65.839844 C 32.203125 65.746094 32.007812 65.730469 31.832031 65.800781 C 31.675781 65.855469 31.546875 65.96875 31.46875 66.113281 C 31.292969 66.445312 31.421875 66.847656 31.742188 67.023438 C 31.800781 67.054688 32.101562 67.210938 32.617188 67.414062 L 33.042969 67.585938 L 29.28125 73.289062 C 29.078125 73.597656 29.15625 74.015625 29.46875 74.21875 C 29.648438 74.335938 29.871094 74.359375 30.074219 74.285156 C 30.207031 74.234375 30.320312 74.144531 30.402344 74.027344 L 34.363281 68.011719 L 34.621094 68.089844 C 35.765625 68.398438 36.96875 68.609375 38.203125 68.734375 L 38.65625 68.773438 L 36.671875 75.238281 C 36.566406 75.59375 36.761719 75.96875 37.121094 76.074219 C 37.261719 76.117188 37.40625 76.117188 37.546875 76.0625 C 37.746094 75.992188 37.898438 75.832031 37.957031 75.628906 L 40.039062 68.839844 L 40.3125 68.839844 C 41.382812 68.84375 42.46875 68.773438 43.546875 68.636719 L 43.894531 68.59375 L 45.046875 74.347656 C 45.121094 74.707031 45.472656 74.949219 45.835938 74.871094 C 45.871094 74.867188 45.902344 74.855469 45.933594 74.84375 C 46.25 74.730469 46.425781 74.40625 46.359375 74.082031 L 45.21875 68.371094 L 45.574219 68.292969 C 46.636719 68.074219 47.714844 67.777344 48.773438 67.414062 L 49.074219 67.3125 L 51.90625 72.519531 C 52.066406 72.808594 52.417969 72.941406 52.730469 72.828125 " fill-opacity="1" fill-rule="nonzero"/><path fill="#ffc6c7" d="M 56.144531 111.753906 C 56.144531 117.449219 51.527344 122.0625 45.835938 122.0625 C 40.144531 122.0625 35.527344 117.449219 35.527344 111.753906 C 35.527344 106.0625 40.144531 101.441406 45.835938 101.441406 C 51.527344 101.441406 56.144531 106.0625 56.144531 111.753906 " fill-opacity="1" fill-rule="nonzero"/><path fill="#231f20" d="M 86.976562 101.835938 C 84.574219 102.515625 82.019531 101.757812 79.910156 100 C 81.878906 102.808594 84.882812 104.289062 87.648438 103.507812 C 90.765625 102.632812 92.628906 99.15625 92.421875 95.160156 C 91.757812 98.453125 89.800781 101.039062 86.976562 101.835938 " fill-opacity="1" fill-rule="nonzero"/></svg>