<svg xmlns="http://www.w3.org/2000/svg" xmlns:xlink="http://www.w3.org/1999/xlink" width="500" zoomAndPan="magnify" viewBox="0 0 375 374.999991" height="500" preserveAspectRatio="xMidYMid meet" version="1.0"><defs><filter x="0%" y="0%" width="100%" height="100%" id="857bd4ec69"><feColorMatrix values="0 0 0 0 1 0 0 0 0 1 0 0 0 0 1 0 0 0 1 0" color-interpolation-filters="sRGB"/></filter><g/><clipPath id="3d677ca247"><path d="M 185.269531 333.269531 L 189.769531 333.269531 L 189.769531 375 L 185.269531 375 Z M 185.269531 333.269531 " clip-rule="nonzero"/></clipPath><clipPath id="a3a8fa9f82"><path d="M 185.269531 0 L 189.769531 0 L 189.769531 41.730469 L 185.269531 41.730469 Z M 185.269531 0 " clip-rule="nonzero"/></clipPath><clipPath id="fa42c77f44"><path d="M 0 185.269531 L 41.726562 185.269531 L 41.726562 189.765625 L 0 189.765625 Z M 0 185.269531 " clip-rule="nonzero"/></clipPath><clipPath id="f2f99ac2b5"><path d="M 333.265625 185.269531 L 374.996094 185.269531 L 374.996094 189.765625 L 333.265625 189.765625 Z M 333.265625 185.269531 " clip-rule="nonzero"/></clipPath><clipPath id="e60b71e253"><path d="M 86 310 L 113 310 L 113 348 L 86 348 Z M 86 310 " clip-rule="nonzero"/></clipPath><clipPath id="1b47e44c7f"><path d="M 112.359375 312.429688 L 90.296875 347.855469 L 86.480469 345.476562 L 108.542969 310.050781 Z M 112.359375 312.429688 " clip-rule="nonzero"/></clipPath><clipPath id="21ced4af18"><path d="M 262 27 L 289 27 L 289 65 L 262 65 Z M 262 27 " clip-rule="nonzero"/></clipPath><clipPath id="6328dec90b"><path d="M 288.550781 29.542969 L 266.488281 64.964844 L 262.667969 62.585938 L 284.730469 27.164062 Z M 288.550781 29.542969 " clip-rule="nonzero"/></clipPath><clipPath id="ef314950ac"><path d="M 27 86 L 65 86 L 65 113 L 27 113 Z M 27 86 " clip-rule="nonzero"/></clipPath><clipPath id="21b19aaed2"><path d="M 62.5625 112.359375 L 27.140625 90.296875 L 29.519531 86.476562 L 64.941406 108.539062 Z M 62.5625 112.359375 " clip-rule="nonzero"/></clipPath><clipPath id="c6900797f9"><path d="M 310 262 L 348 262 L 348 289 L 310 289 Z M 310 262 " clip-rule="nonzero"/></clipPath><clipPath id="e6c56584c8"><path d="M 345.453125 288.546875 L 310.027344 266.484375 L 312.40625 262.667969 L 347.832031 284.730469 Z M 345.453125 288.546875 " clip-rule="nonzero"/></clipPath><clipPath id="bc5d9a9b86"><path d="M 22 256 L 62 256 L 62 282 L 22 282 Z M 22 256 " clip-rule="nonzero"/></clipPath><clipPath id="a1be2e842e"><path d="M 61.464844 260.773438 L 25.066406 281.183594 L 22.863281 277.261719 L 59.261719 256.847656 Z M 61.464844 260.773438 " clip-rule="nonzero"/></clipPath><clipPath id="07cc43659f"><path d="M 313 93 L 353 93 L 353 119 L 313 119 Z M 313 93 " clip-rule="nonzero"/></clipPath><clipPath id="71e505c31a"><path d="M 352.148438 97.769531 L 315.75 118.183594 L 313.550781 114.257812 L 349.949219 93.847656 Z M 352.148438 97.769531 " clip-rule="nonzero"/></clipPath><clipPath id="aa4a1bb508"><path d="M 93 22 L 119 22 L 119 62 L 93 62 Z M 93 22 " clip-rule="nonzero"/></clipPath><clipPath id="0987b24258"><path d="M 114.222656 61.460938 L 93.808594 25.0625 L 97.734375 22.863281 L 118.144531 59.261719 Z M 114.222656 61.460938 " clip-rule="nonzero"/></clipPath><clipPath id="c93f691364"><path d="M 256 313 L 282 313 L 282 353 L 256 353 Z M 256 313 " clip-rule="nonzero"/></clipPath><clipPath id="c980222383"><path d="M 277.222656 352.148438 L 256.8125 315.75 L 260.738281 313.546875 L 281.148438 349.945312 Z M 277.222656 352.148438 " clip-rule="nonzero"/></clipPath><mask id="7d45105641"><g filter="url(#857bd4ec69)"><rect x="-37.5" width="450" fill="#000000" y="-37.499999" height="449.999989" fill-opacity="0.2"/></g></mask><clipPath id="c90900e43b"><path d="M 0.453125 0 L 304.203125 0 L 304.203125 375 L 0.453125 375 Z M 0.453125 0 " clip-rule="nonzero"/></clipPath><clipPath id="83478638bf"><rect x="0" width="306" y="0" height="375"/></clipPath></defs><rect x="-37.5" width="450" fill="#ffffff" y="-37.499999" height="449.999989" fill-opacity="1"/><rect x="-37.5" width="450" fill="#ffc6c7" y="-37.499999" height="449.999989" fill-opacity="1"/><g clip-path="url(#3d677ca247)"><path fill="#000000" d="M 202.515625 333.269531 L 202.515625 374.980469 L 172.519531 374.980469 L 172.519531 333.269531 Z M 202.515625 333.269531 " fill-opacity="1" fill-rule="nonzero"/></g><g clip-path="url(#a3a8fa9f82)"><path fill="#000000" d="M 202.515625 0 L 202.515625 41.710938 L 172.519531 41.710938 L 172.519531 0 Z M 202.515625 0 " fill-opacity="1" fill-rule="nonzero"/></g><g clip-path="url(#fa42c77f44)"><path fill="#000000" d="M 41.726562 202.515625 L 0.015625 202.515625 L 0.015625 172.519531 L 41.726562 172.519531 Z M 41.726562 202.515625 " fill-opacity="1" fill-rule="nonzero"/></g><g clip-path="url(#f2f99ac2b5)"><path fill="#000000" d="M 374.996094 202.515625 L 333.285156 202.515625 L 333.285156 172.519531 L 374.996094 172.519531 Z M 374.996094 202.515625 " fill-opacity="1" fill-rule="nonzero"/></g><g clip-path="url(#e60b71e253)"><g clip-path="url(#1b47e44c7f)"><path fill="#000000" d="M 123.183594 319.171875 L 101.128906 354.578125 L 75.667969 338.71875 L 97.71875 303.3125 Z M 123.183594 319.171875 " fill-opacity="1" fill-rule="nonzero"/></g></g><g clip-path="url(#21ced4af18)"><g clip-path="url(#6328dec90b)"><path fill="#000000" d="M 299.371094 36.28125 L 277.316406 71.691406 L 251.855469 55.832031 L 273.910156 20.425781 Z M 299.371094 36.28125 " fill-opacity="1" fill-rule="nonzero"/></g></g><g clip-path="url(#ef314950ac)"><g clip-path="url(#21b19aaed2)"><path fill="#000000" d="M 55.824219 123.179688 L 20.417969 101.128906 L 36.273438 75.667969 L 71.683594 97.71875 Z M 55.824219 123.179688 " fill-opacity="1" fill-rule="nonzero"/></g></g><g clip-path="url(#c6900797f9)"><g clip-path="url(#e6c56584c8)"><path fill="#000000" d="M 338.710938 299.371094 L 303.304688 277.316406 L 319.164062 251.855469 L 354.570312 273.90625 Z M 338.710938 299.371094 " fill-opacity="1" fill-rule="nonzero"/></g></g><g clip-path="url(#bc5d9a9b86)"><g clip-path="url(#a1be2e842e)"><path fill="#000000" d="M 67.699219 271.894531 L 31.316406 292.296875 L 16.644531 266.132812 L 53.027344 245.730469 Z M 67.699219 271.894531 " fill-opacity="1" fill-rule="nonzero"/></g></g><g clip-path="url(#07cc43659f)"><g clip-path="url(#71e505c31a)"><path fill="#000000" d="M 358.382812 108.890625 L 322 129.292969 L 307.332031 103.128906 L 343.714844 82.726562 Z M 358.382812 108.890625 " fill-opacity="1" fill-rule="nonzero"/></g></g><g clip-path="url(#aa4a1bb508)"><g clip-path="url(#0987b24258)"><path fill="#000000" d="M 103.101562 67.699219 L 82.699219 31.316406 L 108.863281 16.644531 L 129.265625 53.027344 Z M 103.101562 67.699219 " fill-opacity="1" fill-rule="nonzero"/></g></g><g clip-path="url(#c93f691364)"><g clip-path="url(#c980222383)"><path fill="#000000" d="M 266.105469 358.382812 L 245.703125 322 L 271.867188 307.328125 L 292.269531 343.710938 Z M 266.105469 358.382812 " fill-opacity="1" fill-rule="nonzero"/></g></g><g fill="#000000" fill-opacity="1"><g transform="translate(127.149796, 205.177076)"><g><path d="M 22.625 -7.859375 L 14.71875 -23.625 L 14.4375 -18.328125 C 14.34375 -16.785156 14.265625 -15.253906 14.203125 -13.734375 C 14.140625 -12.222656 14.019531 -10.78125 13.84375 -9.40625 C 13.664062 -8.039062 13.390625 -6.769531 13.015625 -5.59375 C 12.640625 -4.425781 12.097656 -3.414062 11.390625 -2.5625 C 10.679688 -1.707031 9.757812 -1.035156 8.625 -0.546875 C 7.488281 -0.0664062 6.070312 0.171875 4.375 0.171875 C 3.625 0.171875 2.90625 0.109375 2.21875 -0.015625 C 1.53125 -0.140625 0.921875 -0.3125 0.390625 -0.53125 C -0.128906 -0.75 -0.546875 -1.007812 -0.859375 -1.3125 C -1.179688 -1.613281 -1.34375 -1.9375 -1.34375 -2.28125 C -1.34375 -2.550781 -1.304688 -2.820312 -1.234375 -3.09375 C -1.160156 -3.363281 -1.050781 -3.609375 -0.90625 -3.828125 C -0.757812 -4.054688 -0.578125 -4.238281 -0.359375 -4.375 C -0.148438 -4.519531 0.0859375 -4.59375 0.359375 -4.59375 C 0.515625 -4.59375 0.65625 -4.507812 0.78125 -4.34375 C 0.90625 -4.1875 1.03125 -3.988281 1.15625 -3.75 C 1.289062 -3.507812 1.441406 -3.25 1.609375 -2.96875 C 1.785156 -2.6875 2.007812 -2.425781 2.28125 -2.1875 C 2.550781 -1.945312 2.875 -1.742188 3.25 -1.578125 C 3.632812 -1.421875 4.113281 -1.34375 4.6875 -1.34375 C 5.8125 -1.34375 6.753906 -1.535156 7.515625 -1.921875 C 8.285156 -2.304688 8.921875 -2.863281 9.421875 -3.59375 C 9.921875 -4.332031 10.300781 -5.222656 10.5625 -6.265625 C 10.832031 -7.304688 11.03125 -8.484375 11.15625 -9.796875 C 11.21875 -10.535156 11.273438 -11.242188 11.328125 -11.921875 C 11.390625 -12.597656 11.453125 -13.273438 11.515625 -13.953125 C 11.578125 -14.628906 11.628906 -15.3125 11.671875 -16 C 11.722656 -16.695312 11.78125 -17.4375 11.84375 -18.21875 C 11.914062 -19.34375 11.976562 -20.414062 12.03125 -21.4375 C 12.09375 -22.457031 12.140625 -23.40625 12.171875 -24.28125 C 12.210938 -25.15625 12.242188 -25.941406 12.265625 -26.640625 C 12.296875 -27.347656 12.316406 -27.960938 12.328125 -28.484375 C 12.078125 -28.992188 11.851562 -29.40625 11.65625 -29.71875 C 11.46875 -30.03125 11.269531 -30.269531 11.0625 -30.4375 C 10.863281 -30.613281 10.640625 -30.726562 10.390625 -30.78125 C 10.140625 -30.84375 9.84375 -30.875 9.5 -30.875 C 9.195312 -30.875 8.828125 -30.816406 8.390625 -30.703125 C 7.960938 -30.597656 7.519531 -30.441406 7.0625 -30.234375 C 6.601562 -30.023438 6.140625 -29.769531 5.671875 -29.46875 C 5.210938 -29.175781 4.800781 -28.832031 4.4375 -28.4375 C 4.082031 -28.050781 3.789062 -27.625 3.5625 -27.15625 C 3.34375 -26.6875 3.234375 -26.179688 3.234375 -25.640625 C 3.234375 -25.171875 3.296875 -24.796875 3.421875 -24.515625 C 3.546875 -24.242188 3.691406 -24.035156 3.859375 -23.890625 C 4.023438 -23.753906 4.191406 -23.664062 4.359375 -23.625 C 4.523438 -23.59375 4.644531 -23.578125 4.71875 -23.578125 C 5.09375 -23.578125 5.394531 -23.640625 5.625 -23.765625 C 5.863281 -23.890625 6.078125 -24.019531 6.265625 -24.15625 C 6.453125 -24.300781 6.628906 -24.429688 6.796875 -24.546875 C 6.960938 -24.671875 7.160156 -24.734375 7.390625 -24.734375 C 7.554688 -24.734375 7.738281 -24.691406 7.9375 -24.609375 C 8.132812 -24.535156 8.316406 -24.410156 8.484375 -24.234375 C 8.660156 -24.054688 8.804688 -23.820312 8.921875 -23.53125 C 9.035156 -23.25 9.09375 -22.90625 9.09375 -22.5 C 9.09375 -21.914062 8.976562 -21.410156 8.75 -20.984375 C 8.53125 -20.554688 8.238281 -20.195312 7.875 -19.90625 C 7.519531 -19.625 7.109375 -19.414062 6.640625 -19.28125 C 6.179688 -19.144531 5.726562 -19.078125 5.28125 -19.078125 C 4.570312 -19.078125 3.9375 -19.195312 3.375 -19.4375 C 2.8125 -19.675781 2.332031 -20.007812 1.9375 -20.4375 C 1.539062 -20.863281 1.238281 -21.359375 1.03125 -21.921875 C 0.820312 -22.492188 0.71875 -23.101562 0.71875 -23.75 C 0.71875 -25.269531 1.066406 -26.597656 1.765625 -27.734375 C 2.472656 -28.867188 3.398438 -29.816406 4.546875 -30.578125 C 5.691406 -31.347656 6.984375 -31.914062 8.421875 -32.28125 C 9.867188 -32.65625 11.335938 -32.84375 12.828125 -32.84375 C 14.035156 -32.84375 15.039062 -32.722656 15.84375 -32.484375 C 16.644531 -32.242188 17.316406 -31.921875 17.859375 -31.515625 C 18.398438 -31.117188 18.847656 -30.648438 19.203125 -30.109375 C 19.554688 -29.566406 19.878906 -28.992188 20.171875 -28.390625 L 25.96875 -16.609375 C 27.476562 -19.585938 28.851562 -22.25 30.09375 -24.59375 C 31.332031 -26.945312 32.476562 -29.015625 33.53125 -30.796875 C 34.582031 -32.585938 35.566406 -34.113281 36.484375 -35.375 C 37.398438 -36.632812 38.285156 -37.660156 39.140625 -38.453125 C 40.003906 -39.253906 40.851562 -39.835938 41.6875 -40.203125 C 42.53125 -40.578125 43.40625 -40.765625 44.3125 -40.765625 C 45.09375 -40.765625 45.722656 -40.597656 46.203125 -40.265625 C 46.691406 -39.929688 46.9375 -39.4375 46.9375 -38.78125 C 46.9375 -38.195312 46.835938 -37.710938 46.640625 -37.328125 C 46.453125 -36.953125 46.191406 -36.765625 45.859375 -36.765625 C 45.578125 -36.765625 45.363281 -36.867188 45.21875 -37.078125 C 45.070312 -37.285156 44.925781 -37.515625 44.78125 -37.765625 C 44.644531 -38.015625 44.472656 -38.242188 44.265625 -38.453125 C 44.066406 -38.671875 43.769531 -38.78125 43.375 -38.78125 C 43.132812 -38.78125 42.847656 -38.710938 42.515625 -38.578125 C 42.179688 -38.453125 41.832031 -38.253906 41.46875 -37.984375 C 41.113281 -37.722656 40.757812 -37.394531 40.40625 -37 C 40.050781 -36.601562 39.742188 -36.140625 39.484375 -35.609375 C 39.222656 -35.085938 39.019531 -34.488281 38.875 -33.8125 C 38.726562 -33.144531 38.679688 -32.40625 38.734375 -31.59375 C 38.796875 -30.675781 38.878906 -29.597656 38.984375 -28.359375 C 39.085938 -27.117188 39.195312 -25.789062 39.3125 -24.375 C 39.4375 -22.96875 39.566406 -21.507812 39.703125 -20 C 39.847656 -18.488281 39.992188 -17 40.140625 -15.53125 C 40.285156 -14.070312 40.425781 -12.664062 40.5625 -11.3125 C 40.707031 -9.96875 40.835938 -8.75 40.953125 -7.65625 C 41.078125 -6.5625 41.1875 -5.632812 41.28125 -4.875 C 41.382812 -4.125 41.46875 -3.613281 41.53125 -3.34375 C 41.613281 -2.914062 41.726562 -2.570312 41.875 -2.3125 C 42.019531 -2.0625 42.285156 -1.9375 42.671875 -1.9375 C 43.066406 -1.9375 43.4375 -2.003906 43.78125 -2.140625 C 44.132812 -2.273438 44.453125 -2.421875 44.734375 -2.578125 L 45.09375 -1.765625 C 44.820312 -1.566406 44.484375 -1.347656 44.078125 -1.109375 C 43.679688 -0.867188 43.222656 -0.640625 42.703125 -0.421875 C 42.179688 -0.203125 41.609375 -0.0195312 40.984375 0.125 C 40.367188 0.28125 39.703125 0.359375 38.984375 0.359375 C 37.972656 0.359375 37.171875 0.226562 36.578125 -0.03125 C 35.992188 -0.289062 35.546875 -0.601562 35.234375 -0.96875 C 34.921875 -1.34375 34.707031 -1.738281 34.59375 -2.15625 C 34.488281 -2.582031 34.40625 -2.960938 34.34375 -3.296875 C 34.207031 -4.046875 34.066406 -4.945312 33.921875 -6 C 33.773438 -7.050781 33.628906 -8.179688 33.484375 -9.390625 C 33.347656 -10.597656 33.210938 -11.84375 33.078125 -13.125 C 32.953125 -14.40625 32.832031 -15.65625 32.71875 -16.875 C 32.613281 -18.101562 32.515625 -19.257812 32.421875 -20.34375 C 32.335938 -21.425781 32.269531 -22.375 32.21875 -23.1875 C 31.769531 -22.46875 31.359375 -21.773438 30.984375 -21.109375 C 30.617188 -20.441406 30.257812 -19.757812 29.90625 -19.0625 C 29.550781 -18.363281 29.191406 -17.632812 28.828125 -16.875 C 28.460938 -16.113281 28.078125 -15.285156 27.671875 -14.390625 C 27.273438 -13.492188 26.835938 -12.507812 26.359375 -11.4375 C 25.878906 -10.375 25.351562 -9.179688 24.78125 -7.859375 Z M 22.625 -7.859375 "/></g></g></g><g fill="#000000" fill-opacity="1"><g transform="translate(172.314874, 205.177076)"><g><path d="M 21.953125 -3.828125 C 21.953125 -3.691406 21.957031 -3.546875 21.96875 -3.390625 C 21.988281 -3.242188 22.023438 -3.097656 22.078125 -2.953125 C 22.140625 -2.816406 22.226562 -2.703125 22.34375 -2.609375 C 22.457031 -2.523438 22.628906 -2.484375 22.859375 -2.484375 C 23.128906 -2.484375 23.375 -2.582031 23.59375 -2.78125 C 23.8125 -2.976562 24.019531 -3.179688 24.21875 -3.390625 L 24.734375 -2.921875 C 24.515625 -2.617188 24.238281 -2.28125 23.90625 -1.90625 C 23.582031 -1.53125 23.1875 -1.171875 22.71875 -0.828125 C 22.25 -0.492188 21.710938 -0.210938 21.109375 0.015625 C 20.515625 0.242188 19.835938 0.359375 19.078125 0.359375 C 18.429688 0.359375 17.867188 0.269531 17.390625 0.09375 C 16.910156 -0.0703125 16.503906 -0.296875 16.171875 -0.578125 C 15.847656 -0.867188 15.601562 -1.207031 15.4375 -1.59375 C 15.28125 -1.976562 15.203125 -2.390625 15.203125 -2.828125 L 15.203125 -3.828125 C 14.472656 -3.035156 13.703125 -2.335938 12.890625 -1.734375 C 12.546875 -1.472656 12.175781 -1.21875 11.78125 -0.96875 C 11.382812 -0.71875 10.972656 -0.492188 10.546875 -0.296875 C 10.117188 -0.0976562 9.675781 0.0546875 9.21875 0.171875 C 8.769531 0.296875 8.316406 0.359375 7.859375 0.359375 C 6.984375 0.359375 6.234375 0.203125 5.609375 -0.109375 C 4.992188 -0.429688 4.492188 -0.847656 4.109375 -1.359375 C 3.722656 -1.867188 3.441406 -2.445312 3.265625 -3.09375 C 3.097656 -3.738281 3.015625 -4.382812 3.015625 -5.03125 L 3.015625 -18.640625 C 3.015625 -18.765625 3.003906 -18.90625 2.984375 -19.0625 C 2.972656 -19.21875 2.9375 -19.363281 2.875 -19.5 C 2.820312 -19.632812 2.734375 -19.742188 2.609375 -19.828125 C 2.492188 -19.921875 2.328125 -19.96875 2.109375 -19.96875 C 1.847656 -19.96875 1.601562 -19.867188 1.375 -19.671875 C 1.144531 -19.472656 0.941406 -19.273438 0.765625 -19.078125 L 0.21875 -19.53125 C 0.4375 -19.84375 0.707031 -20.179688 1.03125 -20.546875 C 1.363281 -20.921875 1.765625 -21.273438 2.234375 -21.609375 C 2.703125 -21.953125 3.238281 -22.238281 3.84375 -22.46875 C 4.457031 -22.695312 5.140625 -22.8125 5.890625 -22.8125 C 6.535156 -22.8125 7.097656 -22.722656 7.578125 -22.546875 C 8.066406 -22.378906 8.46875 -22.15625 8.78125 -21.875 C 9.101562 -21.59375 9.34375 -21.253906 9.5 -20.859375 C 9.664062 -20.472656 9.75 -20.0625 9.75 -19.625 L 9.75 -4.9375 C 9.75 -4.738281 9.78125 -4.53125 9.84375 -4.3125 C 9.914062 -4.101562 10.015625 -3.910156 10.140625 -3.734375 C 10.265625 -3.554688 10.421875 -3.410156 10.609375 -3.296875 C 10.804688 -3.191406 11.035156 -3.140625 11.296875 -3.140625 C 11.722656 -3.140625 12.144531 -3.25 12.5625 -3.46875 C 12.988281 -3.6875 13.378906 -3.945312 13.734375 -4.25 C 14.085938 -4.550781 14.390625 -4.847656 14.640625 -5.140625 C 14.898438 -5.429688 15.085938 -5.648438 15.203125 -5.796875 L 15.203125 -18.640625 C 15.203125 -18.765625 15.191406 -18.90625 15.171875 -19.0625 C 15.160156 -19.21875 15.125 -19.363281 15.0625 -19.5 C 15.007812 -19.632812 14.925781 -19.742188 14.8125 -19.828125 C 14.695312 -19.921875 14.523438 -19.96875 14.296875 -19.96875 C 14.035156 -19.96875 13.789062 -19.867188 13.5625 -19.671875 C 13.34375 -19.472656 13.144531 -19.273438 12.96875 -19.078125 L 12.421875 -19.53125 C 12.640625 -19.84375 12.910156 -20.179688 13.234375 -20.546875 C 13.566406 -20.921875 13.96875 -21.273438 14.4375 -21.609375 C 14.90625 -21.953125 15.441406 -22.238281 16.046875 -22.46875 C 16.660156 -22.695312 17.335938 -22.8125 18.078125 -22.8125 C 18.722656 -22.8125 19.285156 -22.722656 19.765625 -22.546875 C 20.253906 -22.378906 20.660156 -22.15625 20.984375 -21.875 C 21.304688 -21.59375 21.546875 -21.253906 21.703125 -20.859375 C 21.867188 -20.472656 21.953125 -20.0625 21.953125 -19.625 Z M 21.953125 -3.828125 "/></g></g></g><g fill="#000000" fill-opacity="1"><g transform="translate(197.33628, 205.177076)"><g><path d="M 9.796875 -21.046875 C 9.460938 -21.046875 9.144531 -21 8.84375 -20.90625 C 8.539062 -20.820312 8.269531 -20.679688 8.03125 -20.484375 C 7.800781 -20.285156 7.617188 -20.035156 7.484375 -19.734375 C 7.359375 -19.441406 7.296875 -19.085938 7.296875 -18.671875 C 7.296875 -18.097656 7.503906 -17.53125 7.921875 -16.96875 C 8.335938 -16.40625 8.859375 -15.816406 9.484375 -15.203125 C 10.109375 -14.597656 10.78125 -13.96875 11.5 -13.3125 C 12.226562 -12.664062 12.898438 -11.976562 13.515625 -11.25 C 14.140625 -10.53125 14.660156 -9.757812 15.078125 -8.9375 C 15.492188 -8.125 15.703125 -7.25 15.703125 -6.3125 C 15.703125 -5.25 15.523438 -4.304688 15.171875 -3.484375 C 14.816406 -2.671875 14.304688 -1.976562 13.640625 -1.40625 C 12.972656 -0.832031 12.164062 -0.394531 11.21875 -0.09375 C 10.269531 0.207031 9.21875 0.359375 8.0625 0.359375 C 7.050781 0.359375 6.132812 0.21875 5.3125 -0.0625 C 4.5 -0.351562 3.769531 -0.707031 3.125 -1.125 C 2.488281 -1.550781 1.941406 -2 1.484375 -2.46875 C 1.035156 -2.9375 0.6875 -3.359375 0.4375 -3.734375 L 1.203125 -4.28125 C 1.398438 -4.0625 1.644531 -3.820312 1.9375 -3.5625 C 2.226562 -3.3125 2.550781 -3.078125 2.90625 -2.859375 C 3.269531 -2.640625 3.65625 -2.457031 4.0625 -2.3125 C 4.476562 -2.175781 4.894531 -2.109375 5.3125 -2.109375 C 6.375 -2.109375 7.238281 -2.359375 7.90625 -2.859375 C 8.582031 -3.367188 8.921875 -4.125 8.921875 -5.125 C 8.921875 -5.675781 8.738281 -6.25 8.375 -6.84375 C 8.007812 -7.4375 7.546875 -8.046875 6.984375 -8.671875 C 6.429688 -9.304688 5.832031 -9.957031 5.1875 -10.625 C 4.539062 -11.300781 3.9375 -12 3.375 -12.71875 C 2.820312 -13.4375 2.363281 -14.175781 2 -14.9375 C 1.632812 -15.695312 1.453125 -16.488281 1.453125 -17.3125 C 1.453125 -18.238281 1.640625 -19.046875 2.015625 -19.734375 C 2.390625 -20.421875 2.882812 -20.988281 3.5 -21.4375 C 4.125 -21.894531 4.832031 -22.238281 5.625 -22.46875 C 6.425781 -22.695312 7.253906 -22.8125 8.109375 -22.8125 C 9.085938 -22.8125 9.976562 -22.722656 10.78125 -22.546875 C 11.59375 -22.367188 12.285156 -22.097656 12.859375 -21.734375 C 13.441406 -21.378906 13.890625 -20.929688 14.203125 -20.390625 C 14.515625 -19.847656 14.671875 -19.21875 14.671875 -18.5 C 14.671875 -17.945312 14.488281 -17.460938 14.125 -17.046875 C 13.757812 -16.640625 13.25 -16.4375 12.59375 -16.4375 C 11.957031 -16.4375 11.472656 -16.570312 11.140625 -16.84375 C 10.816406 -17.113281 10.65625 -17.484375 10.65625 -17.953125 C 10.65625 -18.253906 10.734375 -18.492188 10.890625 -18.671875 C 11.046875 -18.847656 11.21875 -18.988281 11.40625 -19.09375 C 11.59375 -19.207031 11.765625 -19.304688 11.921875 -19.390625 C 12.078125 -19.472656 12.15625 -19.578125 12.15625 -19.703125 C 12.15625 -20.117188 11.929688 -20.445312 11.484375 -20.6875 C 11.046875 -20.925781 10.484375 -21.046875 9.796875 -21.046875 Z M 9.796875 -21.046875 "/></g></g></g><g fill="#000000" fill-opacity="1"><g transform="translate(214.427618, 205.177076)"><g><path d="M 9.75 -1.984375 C 9.75 -1.785156 9.71875 -1.550781 9.65625 -1.28125 C 9.59375 -1.007812 9.4375 -0.753906 9.1875 -0.515625 C 8.945312 -0.273438 8.597656 -0.0703125 8.140625 0.09375 C 7.691406 0.269531 7.082031 0.359375 6.3125 0.359375 C 5.53125 0.359375 4.921875 0.265625 4.484375 0.078125 C 4.046875 -0.109375 3.71875 -0.320312 3.5 -0.5625 C 3.28125 -0.8125 3.144531 -1.066406 3.09375 -1.328125 C 3.039062 -1.597656 3.015625 -1.816406 3.015625 -1.984375 L 3.015625 -18.9375 C 3.015625 -19.363281 2.914062 -19.734375 2.71875 -20.046875 C 2.519531 -20.359375 2.1875 -20.515625 1.71875 -20.515625 C 1.46875 -20.515625 1.253906 -20.472656 1.078125 -20.390625 C 0.898438 -20.304688 0.707031 -20.179688 0.5 -20.015625 L 0.046875 -20.5625 C 0.378906 -20.84375 0.753906 -21.117188 1.171875 -21.390625 C 1.585938 -21.660156 2.035156 -21.894531 2.515625 -22.09375 C 3.003906 -22.300781 3.523438 -22.472656 4.078125 -22.609375 C 4.640625 -22.742188 5.226562 -22.8125 5.84375 -22.8125 C 6.789062 -22.8125 7.53125 -22.679688 8.0625 -22.421875 C 8.59375 -22.160156 8.984375 -21.84375 9.234375 -21.46875 C 9.484375 -21.101562 9.628906 -20.707031 9.671875 -20.28125 C 9.722656 -19.851562 9.75 -19.476562 9.75 -19.15625 Z M 2.328125 -27.8125 C 2.328125 -28.226562 2.414062 -28.617188 2.59375 -28.984375 C 2.78125 -29.359375 3.039062 -29.6875 3.375 -29.96875 C 3.707031 -30.25 4.085938 -30.46875 4.515625 -30.625 C 4.941406 -30.789062 5.414062 -30.875 5.9375 -30.875 C 6.4375 -30.875 6.898438 -30.789062 7.328125 -30.625 C 7.753906 -30.46875 8.128906 -30.25 8.453125 -29.96875 C 8.773438 -29.6875 9.03125 -29.359375 9.21875 -28.984375 C 9.40625 -28.617188 9.5 -28.226562 9.5 -27.8125 C 9.5 -27.394531 9.40625 -27 9.21875 -26.625 C 9.03125 -26.257812 8.773438 -25.941406 8.453125 -25.671875 C 8.128906 -25.398438 7.753906 -25.179688 7.328125 -25.015625 C 6.898438 -24.859375 6.4375 -24.78125 5.9375 -24.78125 C 5.414062 -24.78125 4.941406 -24.859375 4.515625 -25.015625 C 4.085938 -25.179688 3.707031 -25.398438 3.375 -25.671875 C 3.039062 -25.941406 2.78125 -26.257812 2.59375 -26.625 C 2.414062 -27 2.328125 -27.394531 2.328125 -27.8125 Z M 2.328125 -27.8125 "/></g></g></g><g fill="#000000" fill-opacity="1"><g transform="translate(227.01574, 205.177076)"><g><path d="M 16.703125 -15.203125 C 16.242188 -15.203125 15.859375 -15.269531 15.546875 -15.40625 C 15.242188 -15.550781 15 -15.738281 14.8125 -15.96875 C 14.625 -16.207031 14.484375 -16.46875 14.390625 -16.75 C 14.304688 -17.039062 14.265625 -17.335938 14.265625 -17.640625 C 14.265625 -18.035156 14.289062 -18.414062 14.34375 -18.78125 C 14.394531 -19.15625 14.398438 -19.488281 14.359375 -19.78125 C 14.316406 -20.070312 14.203125 -20.304688 14.015625 -20.484375 C 13.828125 -20.660156 13.492188 -20.75 13.015625 -20.75 C 12.492188 -20.75 11.945312 -20.597656 11.375 -20.296875 C 10.8125 -20.003906 10.296875 -19.539062 9.828125 -18.90625 C 9.359375 -18.28125 8.96875 -17.472656 8.65625 -16.484375 C 8.351562 -15.492188 8.203125 -14.304688 8.203125 -12.921875 C 8.203125 -11.378906 8.34375 -9.972656 8.625 -8.703125 C 8.90625 -7.441406 9.332031 -6.363281 9.90625 -5.46875 C 10.476562 -4.570312 11.1875 -3.878906 12.03125 -3.390625 C 12.882812 -2.898438 13.882812 -2.65625 15.03125 -2.65625 C 15.539062 -2.65625 16.023438 -2.710938 16.484375 -2.828125 C 16.953125 -2.953125 17.390625 -3.113281 17.796875 -3.3125 C 18.203125 -3.519531 18.59375 -3.757812 18.96875 -4.03125 C 19.34375 -4.300781 19.707031 -4.59375 20.0625 -4.90625 L 20.609375 -4.375 C 20.273438 -3.914062 19.84375 -3.414062 19.3125 -2.875 C 18.78125 -2.332031 18.140625 -1.820312 17.390625 -1.34375 C 16.648438 -0.875 15.78125 -0.476562 14.78125 -0.15625 C 13.789062 0.15625 12.65625 0.3125 11.375 0.3125 C 10.101562 0.3125 8.863281 0.0664062 7.65625 -0.421875 C 6.445312 -0.921875 5.375 -1.640625 4.4375 -2.578125 C 3.5 -3.515625 2.75 -4.648438 2.1875 -5.984375 C 1.625 -7.328125 1.34375 -8.851562 1.34375 -10.5625 C 1.34375 -11.894531 1.507812 -13.125 1.84375 -14.25 C 2.175781 -15.375 2.632812 -16.390625 3.21875 -17.296875 C 3.800781 -18.203125 4.472656 -19 5.234375 -19.6875 C 6.003906 -20.375 6.8125 -20.945312 7.65625 -21.40625 C 8.507812 -21.875 9.378906 -22.222656 10.265625 -22.453125 C 11.160156 -22.691406 12.015625 -22.8125 12.828125 -22.8125 C 13.910156 -22.8125 14.851562 -22.6875 15.65625 -22.4375 C 16.46875 -22.1875 17.140625 -21.851562 17.671875 -21.4375 C 18.210938 -21.03125 18.613281 -20.554688 18.875 -20.015625 C 19.132812 -19.484375 19.265625 -18.9375 19.265625 -18.375 C 19.265625 -17.945312 19.207031 -17.535156 19.09375 -17.140625 C 18.988281 -16.753906 18.828125 -16.414062 18.609375 -16.125 C 18.398438 -15.84375 18.132812 -15.617188 17.8125 -15.453125 C 17.5 -15.285156 17.128906 -15.203125 16.703125 -15.203125 Z M 16.703125 -15.203125 "/></g></g></g><g mask="url(#7d45105641)"><g transform="matrix(1, 0, 0, 1, 35, 0)"><g clip-path="url(#83478638bf)"><g clip-path="url(#c90900e43b)"><path fill="#000000" d="M 289.359375 142.433594 C 266.210938 137.015625 241.863281 134.808594 229.25 133.96875 L 227.507812 128.335938 C 239.175781 124.390625 256.714844 116.164062 271.160156 104.835938 C 281.855469 96.445312 294.46875 83.449219 296.105469 67.953125 C 296.105469 67.9375 296.113281 67.929688 296.113281 67.921875 C 296.113281 67.914062 296.113281 67.902344 296.113281 67.894531 C 296.222656 66.800781 296.285156 65.699219 296.285156 64.582031 C 296.285156 52.457031 281.132812 47.074219 266.308594 43.664062 L 293.480469 7.234375 C 293.488281 7.226562 293.488281 7.21875 293.488281 7.203125 C 293.511719 7.164062 293.535156 7.121094 293.542969 7.074219 C 293.542969 7.058594 293.550781 7.046875 293.550781 7.03125 C 293.550781 7.023438 293.558594 7.015625 293.558594 7.007812 L 293.558594 4.570312 C 293.558594 4.367188 293.398438 4.203125 293.195312 4.195312 L 199.070312 0.113281 C 199.054688 0.113281 199.042969 0.121094 199.027344 0.121094 C 198.957031 0.113281 198.890625 0.113281 198.824219 0.144531 C 198.6875 0.203125 198.613281 0.324219 198.605469 0.460938 L 112.59375 116.105469 L 109.800781 115.417969 C 109.640625 115.382812 109.476562 115.449219 109.394531 115.585938 L 94.019531 140.449219 C 93.945312 140.375 93.847656 140.335938 93.734375 140.335938 L 30.074219 144.289062 C 28.085938 144.410156 26.519531 146.070312 26.503906 148.070312 L 26.347656 169.476562 C 26.308594 174.433594 22.976562 178.71875 18.621094 179.441406 L 6.695312 180.96875 C 2.375 181.59375 0.453125 184.144531 0.453125 189.242188 L 0.671875 206.796875 C 0.671875 206.933594 0.757812 207.0625 0.875 207.128906 L 4.78125 209.160156 C 4.789062 209.160156 4.792969 209.160156 4.792969 209.164062 C 4.839844 209.1875 4.894531 209.203125 4.953125 209.203125 C 4.976562 209.203125 5 209.203125 5.019531 209.195312 L 6.914062 208.855469 L 51.859375 232.015625 L 55.003906 290.238281 C 55.011719 290.359375 55.070312 290.464844 55.167969 290.53125 L 56.066406 291.128906 L 56.609375 301.167969 C 56.617188 301.289062 56.675781 301.394531 56.773438 301.464844 L 61.824219 304.828125 C 61.882812 304.875 61.957031 304.890625 62.035156 304.890625 C 62.0625 304.890625 62.09375 304.890625 62.125 304.875 L 70.714844 302.6875 C 70.871094 302.648438 70.984375 302.511719 71 302.347656 L 71.730469 292.3125 L 72.71875 292.0625 C 72.875 292.027344 72.988281 291.882812 73.003906 291.726562 L 75.867188 244.386719 L 105.796875 259.816406 L 105.796875 308.335938 L 98.785156 309.324219 C 98.746094 309.332031 98.707031 309.347656 98.671875 309.363281 C 98.664062 309.363281 98.65625 309.363281 98.648438 309.371094 C 98.59375 309.398438 98.558594 309.445312 98.519531 309.492188 C 98.511719 309.503906 98.503906 309.519531 98.496094 309.527344 C 98.472656 309.566406 98.46875 309.609375 98.460938 309.65625 C 98.460938 309.664062 98.453125 309.679688 98.453125 309.6875 L 98.453125 319.464844 C 98.453125 319.589844 98.511719 319.703125 98.617188 319.78125 L 100.28125 320.902344 C 99.851562 320.964844 99.371094 321.015625 98.804688 321.054688 C 97.832031 321.117188 96.515625 320.957031 95.121094 320.796875 C 92.628906 320.511719 90.058594 320.21875 88.835938 321.070312 C 88.601562 321.25 88.4375 321.460938 88.308594 321.671875 C 88.277344 321.726562 88.242188 321.78125 88.210938 321.832031 C 88.171875 321.914062 88.152344 322 88.128906 322.089844 C 88.113281 322.148438 88.097656 322.203125 88.089844 322.253906 C 88.074219 322.335938 88.074219 322.414062 88.082031 322.496094 C 88.082031 322.5625 88.089844 322.632812 88.105469 322.707031 C 88.113281 322.753906 88.105469 322.789062 88.121094 322.835938 C 88.128906 322.875 88.152344 322.910156 88.167969 322.957031 C 88.171875 322.972656 88.171875 322.988281 88.171875 322.992188 C 88.179688 323.007812 88.1875 323.023438 88.195312 323.046875 C 88.21875 323.105469 88.25 323.167969 88.285156 323.21875 C 88.308594 323.257812 88.332031 323.296875 88.363281 323.332031 C 88.398438 323.378906 88.429688 323.429688 88.46875 323.476562 C 88.503906 323.523438 88.550781 323.566406 88.59375 323.605469 C 88.632812 323.644531 88.671875 323.671875 88.707031 323.710938 C 88.769531 323.761719 88.828125 323.808594 88.898438 323.855469 C 88.933594 323.875 88.964844 323.898438 89.003906 323.921875 C 89.078125 323.972656 89.167969 324.019531 89.25 324.058594 C 89.28125 324.074219 89.3125 324.085938 89.347656 324.101562 C 89.445312 324.148438 89.546875 324.1875 89.652344 324.222656 C 89.679688 324.238281 89.710938 324.246094 89.75 324.261719 C 89.863281 324.300781 89.972656 324.328125 90.09375 324.359375 C 90.125 324.367188 90.15625 324.375 90.191406 324.382812 C 90.351562 324.417969 90.507812 324.449219 90.675781 324.472656 C 91.242188 324.554688 92.136719 324.601562 93.207031 324.601562 C 96.449219 324.601562 101.292969 324.171875 103.457031 323.023438 L 110.570312 327.8125 C 109.316406 328.070312 107.839844 328.410156 106.703125 328.78125 C 104.441406 329.511719 102.046875 330.402344 101.609375 331.8125 C 101.601562 331.828125 101.59375 331.835938 101.585938 331.851562 C 101.578125 331.867188 101.585938 331.878906 101.578125 331.894531 C 101.550781 332.015625 101.527344 332.144531 101.527344 332.28125 C 101.546875 332.746094 101.761719 333.15625 102.121094 333.464844 C 102.589844 333.855469 103.265625 334.0625 104.117188 334.0625 C 104.351562 334.0625 104.601562 334.046875 104.863281 334.015625 C 105.714844 333.910156 106.425781 333.667969 107.050781 333.382812 C 107.675781 333.09375 108.210938 332.746094 108.714844 332.421875 C 109.054688 332.203125 109.386719 331.992188 109.730469 331.804688 C 109.898438 331.714844 110.109375 331.617188 110.351562 331.511719 C 111.398438 331.058594 112.996094 330.53125 114.074219 330.191406 L 119.210938 333.652344 C 119.21875 333.660156 119.226562 333.652344 119.234375 333.660156 C 119.292969 333.699219 119.355469 333.722656 119.421875 333.722656 C 119.445312 333.722656 119.476562 333.722656 119.496094 333.714844 L 130.394531 331.488281 C 130.566406 331.449219 130.695312 331.300781 130.695312 331.117188 L 130.695312 320.171875 C 130.695312 320.15625 130.6875 320.148438 130.6875 320.136719 C 130.6875 320.105469 130.679688 320.074219 130.664062 320.042969 C 130.65625 320.023438 130.648438 320.007812 130.636719 319.992188 C 130.621094 319.960938 130.597656 319.9375 130.574219 319.917969 C 130.566406 319.910156 130.558594 319.894531 130.550781 319.886719 C 130.542969 319.878906 130.539062 319.878906 130.53125 319.871094 C 130.523438 319.863281 130.515625 319.855469 130.507812 319.847656 L 127.257812 317.96875 L 127.257812 264.0625 L 137.53125 262.597656 L 145.300781 266.710938 C 145.304688 266.71875 145.320312 266.71875 145.335938 266.71875 C 145.367188 266.730469 145.40625 266.738281 145.433594 266.738281 C 145.449219 266.738281 145.464844 266.746094 145.480469 266.746094 C 145.488281 266.746094 145.496094 266.738281 145.503906 266.738281 C 145.519531 266.738281 145.523438 266.746094 145.539062 266.738281 C 145.628906 266.726562 151.183594 265.917969 157.308594 268 L 162.140625 357.542969 C 162.148438 357.664062 162.207031 357.769531 162.304688 357.839844 L 163.40625 358.570312 L 164.046875 370.511719 C 164.054688 370.632812 164.113281 370.738281 164.210938 370.804688 L 170.203125 374.796875 C 170.265625 374.84375 170.339844 374.859375 170.414062 374.859375 C 170.445312 374.859375 170.476562 374.859375 170.503906 374.84375 L 180.691406 372.246094 C 180.851562 372.210938 180.964844 372.074219 180.980469 371.90625 L 181.851562 359.957031 L 183.074219 359.648438 C 183.230469 359.613281 183.34375 359.476562 183.359375 359.308594 L 189.757812 271.628906 C 193.519531 263.796875 201.171875 258.410156 212.515625 255.621094 C 212.679688 255.582031 212.800781 255.433594 212.800781 255.25 L 212.800781 251.839844 L 231.121094 249.230469 C 235.097656 248.664062 238.648438 246.402344 240.847656 243.03125 L 243.273438 239.3125 L 245.128906 280.507812 C 245.136719 280.628906 245.195312 280.742188 245.292969 280.800781 L 246.191406 281.398438 L 246.734375 291.429688 C 246.738281 291.550781 246.800781 291.65625 246.898438 291.726562 L 251.945312 295.089844 C 252.015625 295.136719 252.082031 295.148438 252.15625 295.148438 C 252.1875 295.148438 252.21875 295.148438 252.25 295.136719 L 260.839844 292.945312 C 260.996094 292.910156 261.109375 292.773438 261.125 292.609375 L 261.855469 282.574219 L 262.84375 282.324219 C 263 282.289062 263.113281 282.144531 263.128906 281.984375 L 267.242188 214.121094 C 268.621094 213.761719 270.078125 213.414062 271.628906 213.105469 C 293.179688 208.570312 303.421875 205.808594 304.203125 200.066406 L 304.203125 150.164062 C 304.195312 148.734375 304.195312 146.007812 289.359375 142.433594 Z M 123.054688 319.3125 L 119.816406 317.285156 L 119.816406 265.117188 L 123.054688 264.65625 Z M 119.0625 313.226562 L 114.019531 310.3125 L 114.019531 265.957031 L 119.0625 265.238281 Z M 289.1875 143.164062 C 303.445312 146.605469 303.445312 149.117188 303.445312 150.1875 C 303.445312 152.300781 301.988281 153.816406 294.550781 155.332031 L 257.898438 162.792969 C 253.175781 163.738281 250.882812 166.332031 250.726562 170.925781 C 250.71875 170.957031 250.71875 170.980469 250.71875 171.007812 C 250.71875 173.339844 246.972656 173.988281 244.734375 174.171875 C 243.152344 174.328125 167.582031 181.75 149.542969 183.523438 C 147.160156 183.757812 145.351562 185.742188 145.335938 188.132812 L 145.101562 217.546875 C 145.058594 223.378906 140.84375 228.3125 135.105469 229.269531 L 119.941406 231.796875 C 115.804688 232.492188 112.761719 236.171875 112.867188 240.375 L 113.492188 264.875 L 108.015625 261.347656 L 107.417969 239.316406 C 107.34375 236.332031 108.8125 233.375 111.058594 231.390625 L 112.046875 230.628906 C 112.128906 230.574219 112.203125 230.515625 112.285156 230.460938 L 114.292969 229.457031 C 114.320312 229.449219 114.351562 229.445312 114.375 229.429688 L 117.167969 228.824219 L 121.683594 228.070312 L 127.886719 227.035156 C 134.515625 225.929688 139.566406 219.464844 139.625 211.996094 L 139.835938 186.84375 C 139.859375 184.292969 141.789062 182.1875 144.328125 181.949219 L 237.492188 173.210938 L 243.953125 172.609375 L 243.960938 172.609375 C 246.535156 172.328125 249.074219 171.847656 249.386719 169.402344 C 249.875 165.546875 252.753906 162.441406 256.558594 161.664062 L 296.285156 153.847656 C 299.53125 153.070312 301.339844 152.105469 301.792969 150.898438 C 301.953125 150.488281 302.019531 149.832031 301.46875 149.058594 C 301.347656 148.882812 301.113281 148.84375 300.941406 148.964844 C 300.769531 149.085938 300.730469 149.320312 300.851562 149.496094 C 301.136719 149.910156 301.21875 150.277344 301.085938 150.632812 C 300.835938 151.28125 299.773438 152.242188 296.121094 153.117188 L 281.839844 155.929688 C 281.800781 155.90625 281.765625 155.882812 281.71875 155.875 C 264.660156 152.40625 247.675781 150.558594 236.378906 149.621094 L 234.367188 143.882812 C 234.261719 143.585938 234.132812 143.308594 233.996094 143.03125 C 233.816406 142.667969 233.613281 142.3125 233.378906 141.980469 L 231.097656 138.773438 C 230.695312 138.214844 230.394531 137.605469 230.191406 136.957031 L 229.507812 134.746094 C 242.164062 135.589844 266.273438 137.800781 289.1875 143.164062 Z M 75.703125 243.445312 L 5.328125 207.1875 L 5.328125 203.460938 L 107.085938 255.5 L 107.199219 259.679688 Z M 202.023438 134.40625 C 204.15625 134.371094 214.449219 134.226562 223.054688 134.476562 L 223.96875 137.453125 C 224.140625 138.019531 224.1875 138.632812 224.105469 139.21875 L 223.636719 142.402344 C 223.546875 143.03125 223.582031 143.65625 223.765625 144.265625 L 225.105469 148.957031 L 223.351562 148.898438 C 196.433594 148.144531 168.0625 150.980469 165.804688 151.214844 L 172.496094 136.015625 L 197.035156 134.722656 C 197.074219 134.707031 198.859375 134.730469 202.023438 134.40625 Z M 195.257812 37.605469 L 226.191406 137.257812 C 226.363281 137.824219 226.425781 138.40625 226.363281 138.992188 L 226.023438 142.273438 C 225.949219 142.992188 226.019531 143.699219 226.230469 144.386719 L 234.976562 172.707031 L 232.746094 172.917969 L 224.488281 144.054688 C 224.34375 143.550781 224.308594 143.03125 224.382812 142.507812 L 224.851562 139.324219 C 224.949219 138.625 224.894531 137.898438 224.691406 137.226562 L 194.429688 38.417969 Z M 244.164062 171.832031 L 236.636719 150.398438 C 247.554688 151.320312 263.625 153.078125 279.949219 156.300781 L 256.394531 160.929688 C 252.269531 161.769531 249.152344 165.140625 248.625 169.3125 C 248.414062 170.980469 246.824219 171.515625 244.164062 171.832031 Z M 8.578125 198.738281 L 106.882812 247.851562 L 106.914062 249.058594 L 7.710938 199.261719 Z M 44.824219 153.960938 L 139.171875 185.839844 C 139.113281 186.164062 139.074219 186.503906 139.074219 186.84375 L 139.042969 190.238281 L 35.3125 154.722656 Z M 33.398438 186.464844 L 36.550781 188.066406 L 14.726562 189.6875 C 13.980469 189.742188 13.394531 190.375 13.394531 191.128906 L 13.394531 196.078125 L 9.957031 194.433594 L 9.957031 190.523438 C 9.957031 189.097656 11.0625 187.914062 12.488281 187.824219 Z M 37.550781 190.410156 L 24.867188 190.644531 C 24.75 190.644531 24.644531 190.707031 24.574219 190.804688 L 23.339844 192.492188 L 14.144531 192.492188 L 14.144531 191.128906 C 14.144531 190.765625 14.425781 190.464844 14.785156 190.441406 L 37.550781 188.746094 Z M 106.695312 240.789062 L 14.144531 196.445312 L 14.144531 193.46875 L 107.050781 236.347656 C 106.769531 237.320312 106.621094 238.328125 106.648438 239.347656 Z M 9.488281 195.050781 L 106.710938 241.632812 L 106.855469 246.992188 L 8.9375 198.078125 L 8.9375 195.050781 Z M 7.304688 199.902344 L 106.9375 249.917969 L 107.066406 254.640625 L 7.304688 203.621094 Z M 107.285156 235.621094 L 15.488281 193.257812 L 23.414062 193.257812 L 24.054688 193.679688 C 24.117188 193.714844 24.191406 193.738281 24.265625 193.738281 L 26.308594 193.738281 L 26.308594 194.476562 C 26.308594 194.6875 26.472656 194.855469 26.683594 194.855469 L 28.328125 194.855469 L 28.328125 195.59375 C 28.328125 195.804688 28.492188 195.972656 28.703125 195.972656 L 30.746094 195.972656 L 30.746094 196.6875 C 30.746094 196.898438 30.914062 197.066406 31.125 197.066406 L 32.140625 197.066406 L 32.140625 197.644531 C 32.140625 197.859375 32.304688 198.023438 32.515625 198.023438 L 34.363281 198.023438 L 34.363281 198.316406 C 34.363281 198.527344 34.53125 198.695312 34.742188 198.695312 L 37.4375 198.695312 L 37.4375 199.609375 C 37.4375 199.820312 37.605469 199.984375 37.816406 199.984375 L 38.847656 199.984375 L 38.847656 200.824219 C 38.847656 201.035156 39.011719 201.199219 39.222656 201.199219 L 41.644531 201.199219 L 41.644531 201.757812 C 41.644531 201.96875 41.808594 202.136719 42.019531 202.136719 L 43.339844 202.136719 L 43.339844 202.84375 C 43.339844 203.054688 43.503906 203.222656 43.714844 203.222656 L 45.667969 203.222656 L 45.667969 203.839844 C 45.667969 204.050781 45.832031 204.21875 46.042969 204.21875 L 47.777344 204.21875 L 47.777344 205.070312 C 47.777344 205.28125 47.941406 205.445312 48.152344 205.445312 L 50.316406 205.445312 L 50.316406 205.832031 C 50.316406 206.042969 50.480469 206.207031 50.691406 206.207031 L 53.675781 206.207031 L 53.675781 207.023438 C 53.675781 207.234375 53.84375 207.402344 54.054688 207.402344 L 55.6875 207.402344 L 55.6875 208.09375 C 55.6875 208.304688 55.855469 208.472656 56.066406 208.472656 L 57.925781 208.472656 L 57.925781 209.210938 C 57.925781 209.421875 58.09375 209.589844 58.304688 209.589844 L 60.964844 209.589844 L 60.964844 210.5625 C 60.964844 210.773438 61.128906 210.9375 61.339844 210.9375 L 62.410156 210.9375 L 62.410156 211.640625 C 62.410156 211.851562 62.574219 212.015625 62.785156 212.015625 L 65.726562 212.015625 L 65.726562 212.96875 C 65.726562 213.179688 65.890625 213.34375 66.101562 213.34375 L 67.835938 213.34375 L 67.835938 214.121094 C 67.835938 214.332031 68 214.5 68.210938 214.5 L 69.824219 214.5 L 69.824219 215.238281 C 69.824219 215.449219 69.992188 215.617188 70.203125 215.617188 L 73.457031 215.617188 L 73.457031 216.6875 C 73.457031 216.898438 73.621094 217.0625 73.832031 217.0625 L 75.078125 217.0625 L 75.078125 217.351562 C 75.078125 217.5625 75.242188 217.726562 75.453125 217.726562 L 78.511719 217.726562 L 78.511719 218.914062 C 78.511719 219.125 78.679688 219.289062 78.890625 219.289062 L 80.585938 219.289062 L 80.585938 220.027344 C 80.585938 220.238281 80.75 220.40625 80.960938 220.40625 L 82.695312 220.40625 L 82.695312 221.183594 C 82.695312 221.394531 82.859375 221.558594 83.070312 221.558594 L 86.890625 221.558594 L 86.890625 222.335938 C 86.890625 222.546875 87.058594 222.714844 87.269531 222.714844 L 89.003906 222.714844 L 89.003906 223.605469 C 89.003906 223.816406 89.167969 223.980469 89.378906 223.980469 L 92.597656 223.980469 L 92.597656 225.265625 C 92.597656 225.476562 92.761719 225.640625 92.972656 225.640625 L 94.488281 225.640625 L 94.488281 226.335938 C 94.488281 226.546875 94.652344 226.710938 94.863281 226.710938 L 96.671875 226.710938 L 96.671875 227.429688 C 96.671875 227.640625 96.839844 227.804688 97.050781 227.804688 L 100.011719 227.804688 L 100.011719 228.660156 C 100.011719 228.871094 100.175781 229.035156 100.386719 229.035156 L 102.933594 229.035156 L 102.933594 229.972656 C 102.933594 230.183594 103.101562 230.347656 103.3125 230.347656 L 106.394531 230.347656 L 106.394531 231.519531 C 106.394531 231.730469 106.558594 231.894531 106.769531 231.894531 L 109.519531 231.894531 C 108.550781 232.988281 107.78125 234.257812 107.285156 235.621094 Z M 121.945312 225.9375 L 120.679688 225.9375 L 120.679688 225.128906 C 120.679688 224.917969 120.515625 224.75 120.304688 224.75 L 116.679688 224.75 L 116.679688 223.746094 C 116.679688 223.535156 116.515625 223.371094 116.304688 223.371094 L 114.496094 223.371094 L 114.496094 222.632812 C 114.496094 222.421875 114.328125 222.253906 114.117188 222.253906 L 111.316406 222.253906 L 111.316406 221.199219 C 111.316406 220.988281 111.148438 220.820312 110.9375 220.820312 L 107.902344 220.820312 L 107.902344 220.082031 C 107.902344 219.871094 107.734375 219.703125 107.523438 219.703125 L 105.136719 219.703125 L 105.136719 218.511719 C 105.136719 218.300781 104.96875 218.136719 104.757812 218.136719 L 102.421875 218.136719 L 102.421875 217.515625 C 102.421875 217.304688 102.257812 217.140625 102.046875 217.140625 L 99.953125 217.140625 L 99.953125 216.347656 C 99.953125 216.136719 99.785156 215.96875 99.574219 215.96875 L 97.140625 215.96875 L 97.140625 215.277344 C 97.140625 215.066406 96.976562 214.898438 96.765625 214.898438 L 93.628906 214.898438 L 93.628906 213.925781 C 93.628906 213.714844 93.464844 213.546875 93.253906 213.546875 L 91.472656 213.546875 L 91.472656 212.945312 C 91.472656 212.734375 91.308594 212.566406 91.097656 212.566406 L 88.707031 212.566406 L 88.707031 211.550781 C 88.707031 211.339844 88.542969 211.171875 88.332031 211.171875 L 86.523438 211.171875 L 86.523438 210.320312 C 86.523438 210.109375 86.359375 209.941406 86.148438 209.941406 L 83.992188 209.941406 L 83.992188 209.421875 C 83.992188 209.210938 83.824219 209.046875 83.613281 209.046875 L 80.683594 209.046875 L 80.683594 208.117188 C 80.683594 207.90625 80.519531 207.738281 80.308594 207.738281 L 77.972656 207.738281 L 77.972656 207 C 77.972656 206.789062 77.804688 206.625 77.59375 206.625 L 74.957031 206.625 L 74.957031 205.882812 C 74.957031 205.671875 74.789062 205.507812 74.578125 205.507812 L 73.101562 205.507812 L 73.101562 204.875 C 73.101562 204.660156 72.9375 204.496094 72.726562 204.496094 L 70.707031 204.496094 L 70.707031 203.847656 C 70.707031 203.636719 70.539062 203.46875 70.328125 203.46875 L 68.347656 203.46875 L 68.347656 202.835938 C 68.347656 202.625 68.183594 202.460938 67.972656 202.460938 L 66.78125 202.460938 L 66.78125 202.015625 C 66.78125 201.804688 66.613281 201.636719 66.402344 201.636719 L 64.21875 201.636719 L 64.21875 201.078125 C 64.21875 200.867188 64.054688 200.703125 63.84375 200.703125 L 61.25 200.703125 L 61.25 199.863281 C 61.25 199.652344 61.082031 199.488281 60.871094 199.488281 L 57.882812 199.488281 L 57.882812 198.703125 C 57.882812 198.492188 57.714844 198.324219 57.503906 198.324219 L 55.816406 198.324219 L 55.816406 197.535156 C 55.816406 197.320312 55.652344 197.15625 55.441406 197.15625 L 53.5625 197.15625 L 53.5625 196.621094 C 53.5625 196.410156 53.398438 196.242188 53.1875 196.242188 L 51.824219 196.242188 L 51.824219 195.859375 C 51.824219 195.648438 51.65625 195.480469 51.445312 195.480469 L 50.285156 195.480469 L 50.285156 195.226562 C 50.285156 195.011719 50.121094 194.847656 49.910156 194.847656 L 48.65625 194.847656 L 48.65625 194.476562 C 48.65625 194.265625 48.492188 194.101562 48.28125 194.101562 L 47.105469 194.101562 L 47.105469 193.792969 C 47.105469 193.582031 46.941406 193.414062 46.730469 193.414062 L 45.148438 193.414062 L 45.148438 193.058594 C 45.148438 192.847656 44.980469 192.683594 44.769531 192.683594 L 43.375 192.683594 L 43.375 192.148438 C 43.375 191.9375 43.210938 191.769531 43 191.769531 L 41.867188 191.769531 L 41.867188 191.519531 C 41.867188 191.308594 41.703125 191.144531 41.492188 191.144531 L 39.398438 191.144531 L 39.367188 190.730469 C 39.351562 190.53125 39.1875 190.382812 38.992188 190.382812 C 38.992188 190.382812 38.984375 190.382812 38.984375 190.382812 L 38.304688 190.398438 L 38.304688 188.335938 C 38.304688 188.328125 38.296875 188.324219 38.296875 188.316406 C 38.296875 188.285156 38.289062 188.246094 38.273438 188.214844 C 38.265625 188.203125 38.265625 188.195312 38.257812 188.179688 C 38.246094 188.140625 38.214844 188.101562 38.183594 188.066406 C 38.175781 188.058594 38.167969 188.058594 38.160156 188.050781 C 38.140625 188.027344 38.117188 188.003906 38.085938 187.992188 L 33.84375 185.832031 L 33.84375 155 L 139.03125 191.023438 L 138.847656 211.988281 C 138.789062 219.09375 134.019531 225.242188 127.742188 226.289062 L 122.308594 227.195312 L 122.308594 226.304688 C 122.324219 226.109375 122.152344 225.9375 121.945312 225.9375 Z M 139.359375 185.109375 L 46.730469 153.800781 L 63.765625 152.4375 L 152.34375 180.4375 L 144.242188 181.199219 C 141.929688 181.417969 140.054688 182.996094 139.359375 185.109375 Z M 154.273438 180.265625 L 64.1875 151.78125 L 64.1875 144.96875 L 74.367188 147.667969 L 74.367188 152.300781 C 74.367188 152.464844 74.472656 152.609375 74.632812 152.664062 L 148.375 175.414062 C 148.488281 175.453125 148.613281 175.429688 148.703125 175.355469 C 148.796875 175.277344 148.855469 175.171875 148.855469 175.054688 L 148.855469 173.753906 L 167.007812 179.066406 Z M 75.128906 147.730469 L 89.832031 146.761719 L 88.210938 149.734375 C 88.195312 149.734375 88.179688 149.726562 88.160156 149.726562 L 75.160156 150.769531 Z M 169.050781 178.878906 L 150.558594 173.46875 L 185.53125 170.683594 L 204.941406 175.511719 Z M 160.753906 162.679688 L 165.675781 171.507812 L 156.550781 172.230469 Z M 166.503906 171.4375 L 161.128906 161.8125 L 161.53125 160.902344 L 167.308594 171.371094 Z M 207.21875 175.300781 L 185.660156 169.9375 C 185.621094 169.929688 185.574219 169.921875 185.539062 169.929688 L 170.375 171.136719 L 162.984375 157.738281 C 162.976562 157.726562 162.953125 157.71875 162.945312 157.703125 L 165.492188 151.914062 C 165.554688 151.953125 165.613281 151.976562 165.691406 151.976562 C 165.703125 151.976562 165.71875 151.976562 165.726562 151.976562 C 166.019531 151.945312 195.453125 148.859375 223.320312 149.644531 L 225.316406 149.722656 L 231.976562 172.984375 Z M 222.824219 133.707031 C 217.738281 133.5625 212.101562 133.554688 207.917969 133.585938 C 211.730469 132.929688 216.417969 131.886719 221.761719 130.226562 Z M 87.230469 151.441406 C 87.230469 151.449219 87.230469 151.449219 87.222656 151.457031 C 87.195312 151.507812 87.171875 151.578125 87.171875 151.636719 L 87.171875 152.234375 C 87.171875 152.398438 87.277344 152.550781 87.441406 152.59375 L 153.542969 172.472656 L 148.464844 172.878906 C 148.464844 172.878906 148.464844 172.878906 148.457031 172.878906 C 148.425781 172.878906 148.394531 172.894531 148.367188 172.902344 C 148.351562 172.910156 148.335938 172.910156 148.320312 172.917969 C 148.296875 172.933594 148.277344 172.949219 148.261719 172.964844 C 148.246094 172.976562 148.230469 172.984375 148.214844 173 C 148.199219 173.015625 148.191406 173.039062 148.183594 173.054688 C 148.171875 173.078125 148.15625 173.097656 148.148438 173.128906 C 148.148438 173.136719 148.140625 173.136719 148.140625 173.144531 C 148.132812 173.160156 148.140625 173.175781 148.132812 173.191406 C 148.132812 173.210938 148.117188 173.226562 148.117188 173.25 L 148.117188 174.539062 L 75.128906 152.015625 L 75.128906 151.523438 L 87.796875 150.527344 Z M 90.601562 145.988281 C 90.554688 145.972656 90.515625 145.957031 90.464844 145.957031 L 74.785156 146.988281 L 65.785156 144.605469 L 92.355469 143.140625 Z M 63.433594 151.710938 L 44.84375 153.207031 C 44.84375 153.207031 44.835938 153.207031 44.835938 153.207031 L 33.445312 154.117188 C 33.4375 154.117188 33.4375 154.117188 33.429688 154.125 C 33.414062 154.125 33.398438 154.132812 33.382812 154.140625 C 33.347656 154.148438 33.308594 154.164062 33.277344 154.1875 C 33.269531 154.195312 33.261719 154.195312 33.257812 154.195312 C 33.25 154.203125 33.242188 154.210938 33.234375 154.21875 C 33.203125 154.238281 33.179688 154.269531 33.15625 154.300781 C 33.152344 154.316406 33.136719 154.328125 33.128906 154.34375 C 33.113281 154.382812 33.105469 154.414062 33.097656 154.457031 C 33.097656 154.472656 33.089844 154.480469 33.089844 154.496094 L 33.089844 185.734375 L 12.429688 187.078125 C 10.613281 187.199219 9.195312 188.714844 9.195312 190.53125 L 9.195312 194.304688 L 8.554688 194.304688 C 8.34375 194.304688 8.179688 194.46875 8.179688 194.683594 L 8.179688 198.105469 L 6.722656 198.972656 C 6.714844 198.972656 6.714844 198.980469 6.714844 198.980469 C 6.671875 199.011719 6.632812 199.050781 6.609375 199.09375 C 6.601562 199.109375 6.597656 199.125 6.589844 199.140625 C 6.574219 199.179688 6.558594 199.214844 6.558594 199.261719 C 6.558594 199.269531 6.550781 199.285156 6.550781 199.289062 L 6.550781 203.242188 L 5.328125 202.617188 L 5.328125 189.046875 C 5.292969 185.363281 6.542969 184.792969 9.398438 184.363281 L 19.78125 182.785156 C 26.226562 181.699219 29.886719 177.015625 30.082031 169.574219 L 30.339844 149.125 C 30.355469 147.691406 31.492188 146.5 32.925781 146.425781 L 63.433594 144.742188 Z M 227.285156 127.617188 L 199.191406 36.789062 C 199.148438 36.632812 198.996094 36.527344 198.832031 36.527344 L 195.433594 36.527344 C 195.410156 36.527344 195.394531 36.535156 195.371094 36.542969 C 195.355469 36.542969 195.339844 36.542969 195.320312 36.550781 C 195.3125 36.550781 195.3125 36.554688 195.304688 36.554688 C 195.28125 36.5625 195.257812 36.578125 195.234375 36.59375 C 195.214844 36.609375 195.199219 36.617188 195.175781 36.632812 C 195.175781 36.632812 195.167969 36.640625 195.167969 36.640625 L 193.730469 38.050781 C 193.628906 38.148438 193.59375 38.300781 193.628906 38.425781 L 221.527344 129.519531 C 213.078125 132.136719 206.304688 133.214844 202.03125 133.660156 C 201.761719 133.667969 201.601562 133.667969 201.59375 133.667969 C 201.527344 133.667969 201.476562 133.691406 201.421875 133.71875 C 198.632812 133.984375 197.074219 133.96875 197.023438 133.960938 L 172.832031 135.238281 L 173.941406 132.71875 C 173.980469 132.632812 173.980469 132.542969 173.957031 132.460938 L 173.1875 129.730469 C 173.164062 129.660156 173.128906 129.601562 173.074219 129.554688 C 173.058594 129.542969 173.035156 129.535156 173.015625 129.527344 C 172.984375 129.511719 172.953125 129.480469 172.917969 129.472656 L 166.820312 127.902344 C 166.714844 127.875 166.59375 127.898438 166.503906 127.964844 C 166.472656 127.988281 163.585938 130.09375 160.308594 129.082031 C 159.132812 128.710938 157.800781 127.691406 156.113281 126.402344 C 152.78125 123.859375 148.230469 120.375 140.996094 118.925781 C 134.605469 117.652344 129.390625 118.398438 125.210938 118.996094 C 125.1875 118.996094 125.164062 119.003906 125.140625 119.003906 L 207.382812 9.746094 C 207.398438 9.722656 207.433594 9.679688 207.503906 9.683594 C 222 10.597656 228.828125 15.0625 230.386719 18.941406 C 231.164062 20.867188 231.765625 22.835938 232.347656 24.742188 C 234.96875 33.34375 237.457031 41.46875 254.910156 45.019531 C 256.5 45.335938 258.117188 45.648438 259.761719 45.957031 C 276.601562 49.164062 295.691406 52.804688 295.351562 67.796875 C 292.449219 95.542969 252.769531 118.996094 227.285156 127.617188 Z M 295.34375 62.445312 C 291.597656 51.257812 274.882812 48.066406 259.902344 45.214844 C 258.269531 44.90625 256.648438 44.597656 255.058594 44.28125 C 238.042969 40.820312 235.625 32.90625 233.070312 24.523438 C 232.484375 22.601562 231.878906 20.617188 231.089844 18.664062 C 227.925781 10.816406 212.273438 9.234375 207.546875 8.9375 C 207.253906 8.921875 206.96875 9.050781 206.78125 9.292969 L 124.09375 119.144531 C 122.796875 119.328125 121.636719 119.460938 120.589844 119.484375 L 205.3125 6.871094 C 205.460938 6.675781 205.710938 6.554688 205.945312 6.570312 C 209.792969 6.734375 229.175781 8.011719 232.898438 17.222656 C 233.621094 19.007812 234.222656 20.828125 234.8125 22.585938 C 237.644531 31.101562 240.328125 39.144531 255.667969 42.199219 C 271.628906 45.375 293.179688 49.675781 295.34375 62.445312 Z M 292.8125 6.613281 L 200.335938 2.648438 L 199.5625 0.890625 L 292.804688 4.933594 L 292.804688 6.613281 Z M 198.929688 1.296875 L 199.660156 2.957031 L 114.644531 117.371094 C 114.066406 116.875 113.761719 116.492188 113.757812 116.484375 C 113.703125 116.414062 113.628906 116.363281 113.546875 116.347656 L 113.394531 116.308594 Z M 109.890625 116.21875 L 113.242188 117.042969 C 113.621094 117.492188 115.195312 119.199219 117.960938 119.96875 C 119.90625 120.503906 122.300781 120.164062 125.324219 119.726562 C 129.453125 119.128906 134.589844 118.390625 140.851562 119.652344 C 147.914062 121.0625 152.390625 124.488281 155.660156 126.984375 C 157.410156 128.320312 158.789062 129.375 160.089844 129.78125 C 163.339844 130.785156 166.125 129.109375 166.804688 128.660156 L 172.296875 130.070312 L 153.761719 170.796875 L 88.128906 151.410156 Z M 4.578125 208.199219 L 1.417969 206.5625 L 1.207031 189.242188 C 1.207031 184.535156 2.882812 182.28125 6.800781 181.714844 L 18.734375 180.191406 C 23.460938 179.398438 27.054688 174.796875 27.097656 169.484375 L 27.257812 148.078125 C 27.273438 146.476562 28.53125 145.148438 30.121094 145.042969 L 93.613281 141.097656 L 92.816406 142.394531 C 92.769531 142.375 92.71875 142.367188 92.664062 142.367188 L 32.886719 145.65625 C 31.0625 145.753906 29.609375 147.269531 29.585938 149.09375 L 29.328125 169.546875 C 29.140625 176.675781 25.796875 180.988281 19.664062 182.023438 L 9.285156 183.59375 C 6.496094 184.015625 4.53125 184.648438 4.578125 189.03125 Z M 5.328125 208.375 L 5.328125 208.035156 L 5.8125 208.28125 Z M 52.644531 232.414062 L 59.832031 236.121094 L 61.371094 293.746094 L 55.75 290.003906 Z M 56.855469 291.648438 L 61.402344 294.675781 L 61.640625 303.789062 L 57.355469 300.9375 Z M 70.269531 302.015625 L 62.402344 304.019531 L 62.152344 294.75 L 70.960938 292.5 Z M 107.222656 260.539062 L 107.253906 261.574219 C 107.253906 261.699219 107.320312 261.8125 107.425781 261.882812 L 109.800781 263.414062 L 109.800781 311.382812 L 106.558594 309.355469 L 106.558594 260.207031 Z M 91.445312 321.257812 C 92.535156 321.257812 93.839844 321.410156 95.054688 321.546875 C 96.476562 321.710938 97.828125 321.863281 98.867188 321.800781 C 99.921875 321.742188 100.734375 321.613281 101.34375 321.476562 C 101.351562 321.476562 101.367188 321.46875 101.375 321.46875 C 102.078125 321.3125 102.511719 321.144531 102.714844 321.054688 C 102.859375 321.09375 102.988281 321.152344 103.109375 321.222656 C 100.449219 322.457031 93.515625 322.84375 90.992188 322.472656 C 90.183594 322.367188 89.558594 322.089844 89.25 321.71875 C 89.273438 321.703125 89.289062 321.679688 89.3125 321.667969 C 89.742188 321.363281 90.515625 321.257812 91.445312 321.257812 Z M 106.945312 329.503906 C 109.097656 328.808594 112.664062 328.183594 113.160156 328.101562 C 113.265625 328.117188 113.363281 328.140625 113.453125 328.160156 C 112.121094 328.582031 109.859375 329.332031 108.886719 329.867188 C 108.421875 330.121094 107.976562 330.460938 107.507812 330.816406 C 106.53125 331.5625 105.519531 332.332031 104.148438 332.507812 C 103.378906 332.597656 102.695312 332.386719 102.4375 332.144531 C 102.386719 332.089844 102.355469 332.046875 102.355469 332 C 102.738281 330.863281 105.648438 329.925781 106.945312 329.503906 Z M 115.234375 329.84375 C 115.390625 329.796875 115.496094 329.65625 115.503906 329.488281 C 115.503906 329.488281 115.503906 329.480469 115.503906 329.480469 C 115.503906 329.464844 115.503906 329.40625 115.488281 329.308594 C 115.472656 329.132812 115.421875 328.9375 115.332031 328.734375 C 115.324219 328.71875 115.316406 328.703125 115.308594 328.6875 C 115.277344 328.628906 115.25 328.570312 115.210938 328.507812 C 115.179688 328.457031 115.148438 328.410156 115.113281 328.359375 C 115.082031 328.3125 115.050781 328.273438 115.015625 328.230469 C 114.945312 328.144531 114.871094 328.070312 114.78125 327.996094 C 114.765625 327.980469 114.75 327.964844 114.734375 327.957031 C 114.726562 327.949219 114.71875 327.941406 114.714844 327.941406 C 114.707031 327.933594 114.699219 327.933594 114.691406 327.925781 C 114.34375 327.65625 113.863281 327.429688 113.199219 327.339844 C 113.160156 327.332031 113.125 327.332031 113.085938 327.339844 C 113.023438 327.347656 112.4375 327.445312 111.609375 327.609375 C 111.609375 327.609375 111.609375 327.601562 111.601562 327.601562 L 104.132812 322.570312 C 104.238281 322.472656 104.328125 322.375 104.398438 322.269531 C 104.441406 322.210938 104.457031 322.132812 104.457031 322.058594 C 104.457031 321.960938 104.441406 321.871094 104.417969 321.773438 C 104.414062 321.742188 104.398438 321.703125 104.390625 321.671875 C 104.375 321.613281 104.351562 321.554688 104.328125 321.5 C 104.308594 321.453125 104.285156 321.410156 104.261719 321.371094 C 104.238281 321.328125 104.214844 321.289062 104.1875 321.25 C 104.15625 321.199219 104.117188 321.152344 104.074219 321.101562 C 104.058594 321.085938 104.050781 321.0625 104.035156 321.046875 C 104.027344 321.039062 104.019531 321.039062 104.019531 321.03125 C 103.703125 320.664062 103.238281 320.382812 102.714844 320.292969 C 102.632812 320.277344 102.542969 320.292969 102.46875 320.332031 C 102.460938 320.332031 102.097656 320.511719 101.335938 320.699219 L 99.199219 319.257812 L 99.199219 310.359375 L 119.039062 322.519531 L 119.039062 332.621094 L 114.992188 329.894531 C 115.144531 329.867188 115.226562 329.84375 115.234375 329.84375 Z M 129.277344 319.992188 L 119.511719 321.921875 L 99.9375 309.921875 L 105.804688 309.089844 L 105.804688 309.558594 C 105.804688 309.6875 105.875 309.808594 105.980469 309.875 L 109.972656 312.378906 C 109.980469 312.386719 109.988281 312.378906 109.996094 312.386719 C 110.046875 312.417969 110.109375 312.441406 110.175781 312.441406 C 110.199219 312.441406 110.222656 312.441406 110.246094 312.433594 L 113.710938 311.769531 C 113.890625 311.738281 114.019531 311.582031 114.019531 311.398438 L 114.019531 311.179688 L 119.0625 314.09375 L 119.0625 317.496094 C 119.0625 317.621094 119.128906 317.742188 119.234375 317.8125 L 123.226562 320.316406 C 123.234375 320.324219 123.242188 320.316406 123.25 320.324219 C 123.304688 320.355469 123.363281 320.375 123.429688 320.375 C 123.453125 320.375 123.476562 320.375 123.5 320.367188 L 126.964844 319.703125 C 127.144531 319.675781 127.273438 319.515625 127.273438 319.335938 L 127.273438 318.835938 Z M 145.117188 261.511719 L 145.117188 265.742188 L 138.820312 262.410156 Z M 158.09375 268.277344 C 161.335938 269.507812 164.664062 271.574219 167.394531 275.03125 L 169.714844 361.851562 L 164.054688 358.085938 C 164.039062 358.074219 164.023438 358.066406 164.007812 358.058594 L 162.902344 357.316406 Z M 164.199219 359.089844 L 169.734375 362.78125 L 170.03125 373.761719 L 164.800781 370.285156 Z M 180.253906 371.582031 L 170.792969 373.996094 L 170.488281 362.863281 L 181.09375 360.160156 Z M 243.980469 238.238281 L 248.675781 231.042969 C 248.902344 230.921875 249.484375 230.574219 250.054688 229.988281 L 251.503906 284.03125 L 246.839844 280.929688 C 246.800781 280.890625 246.761719 280.863281 246.710938 280.847656 L 245.882812 280.296875 Z M 246.980469 281.933594 L 251.523438 284.957031 L 251.765625 294.070312 L 247.476562 291.21875 Z M 260.394531 292.304688 L 252.527344 294.3125 L 252.277344 285.042969 L 261.085938 282.792969 Z M 260.394531 292.304688 " fill-opacity="1" fill-rule="nonzero"/></g></g></g></g></svg>