<svg xmlns="http://www.w3.org/2000/svg" xmlns:xlink="http://www.w3.org/1999/xlink" width="200" zoomAndPan="magnify" viewBox="0 0 150 149.999998" height="200" preserveAspectRatio="xMidYMid meet" version="1.0"><path fill="#f7f7f7" d="M 59.734375 150.015625 C 56.195312 150.015625 53.175781 147.492188 52.546875 144.011719 L 49.609375 127.683594 L 35.609375 135.484375 C 34.519531 136.09375 33.292969 136.414062 32.070312 136.414062 C 29.800781 136.414062 27.621094 135.320312 26.242188 133.484375 C 24.867188 131.652344 24.4375 129.320312 25.074219 127.097656 L 29.609375 111.234375 L 13.222656 112.234375 C 13.0625 112.246094 12.910156 112.246094 12.761719 112.246094 C 9.886719 112.246094 7.277344 110.539062 6.109375 107.886719 C 4.929688 105.199219 5.425781 102.1875 7.40625 100.023438 L 18.207031 88.207031 L 2.816406 81.792969 C 0.0859375 80.660156 -1.675781 78.007812 -1.667969 75.046875 C -1.664062 72.085938 0.105469 69.441406 2.839844 68.3125 L 18.101562 62.003906 L 7.269531 49.890625 C 5.324219 47.71875 4.859375 44.710938 6.042969 42.046875 C 7.234375 39.378906 9.777344 37.722656 12.679688 37.722656 C 12.816406 37.722656 12.957031 37.730469 13.105469 37.734375 L 29.386719 38.65625 L 24.832031 22.648438 C 24.199219 20.425781 24.625 18.101562 26.003906 16.273438 C 27.382812 14.441406 29.5625 13.347656 31.828125 13.347656 C 33.019531 13.347656 34.214844 13.648438 35.285156 14.230469 L 49.578125 21.953125 L 52.363281 6.117188 C 52.976562 2.625 56.003906 0.0859375 59.554688 0.0859375 C 61.9375 0.0859375 64.097656 1.214844 65.480469 3.175781 L 75.179688 16.945312 L 84.394531 3.257812 C 85.75 1.246094 88 0.0390625 90.40625 0.0390625 C 94.058594 0.0390625 97.097656 2.660156 97.628906 6.269531 L 100.085938 22.9375 L 114.257812 14.628906 C 115.386719 13.964844 116.660156 13.613281 117.9375 13.613281 C 120.210938 13.613281 122.394531 14.714844 123.773438 16.550781 C 125.152344 18.382812 125.578125 20.714844 124.933594 22.941406 L 120.449219 38.5625 L 136.644531 37.777344 C 136.765625 37.769531 136.886719 37.765625 137.003906 37.765625 C 139.878906 37.765625 142.414062 39.398438 143.609375 42.023438 C 144.808594 44.652344 144.386719 47.636719 142.5 49.824219 L 131.996094 62.03125 L 146.863281 68.277344 C 149.589844 69.421875 151.339844 72.078125 151.328125 75.039062 C 151.3125 78.007812 149.539062 80.640625 146.792969 81.757812 L 131.660156 87.933594 L 142.25 100.082031 C 144.152344 102.261719 144.589844 105.257812 143.394531 107.894531 C 142.195312 110.53125 139.664062 112.175781 136.777344 112.175781 C 136.660156 112.175781 136.539062 112.175781 136.421875 112.171875 L 120.425781 111.414062 L 124.945312 127.210938 C 125.582031 129.433594 125.15625 131.761719 123.777344 133.59375 C 122.398438 135.429688 120.222656 136.527344 117.949219 136.527344 C 116.734375 136.527344 115.515625 136.210938 114.429688 135.605469 L 100.246094 127.757812 L 97.609375 143.695312 C 97.027344 147.234375 93.996094 149.796875 90.40625 149.796875 C 88.011719 149.796875 85.84375 148.664062 84.460938 146.683594 L 75.214844 133.449219 L 65.632812 146.949219 C 64.261719 148.894531 62.105469 150.015625 59.734375 150.015625 Z M 59.734375 150.015625 " fill-opacity="1" fill-rule="nonzero"/><path fill="#f8b33e" d="M 53.339844 23.621094 L 56.292969 6.808594 C 56.804688 3.929688 60.527344 3.09375 62.210938 5.480469 L 72.507812 20.09375 C 73.832031 21.972656 76.621094 21.941406 77.90625 20.035156 L 87.699219 5.492188 C 89.375 3.003906 93.230469 3.882812 93.667969 6.851562 L 96.277344 24.5625 C 96.617188 26.871094 99.175781 28.097656 101.183594 26.921875 L 116.273438 18.074219 C 118.832031 16.574219 121.910156 18.96875 121.085938 21.824219 L 116.328125 38.402344 C 115.703125 40.566406 117.394531 42.710938 119.636719 42.597656 L 136.832031 41.769531 C 139.714844 41.628906 141.363281 45.015625 139.476562 47.203125 L 128.320312 60.152344 C 126.863281 61.84375 127.480469 64.472656 129.535156 65.339844 L 145.308594 71.964844 C 148.007812 73.097656 147.988281 76.9375 145.28125 78.042969 L 129.226562 84.597656 C 127.136719 85.453125 126.511719 88.109375 127.996094 89.8125 L 139.242188 102.714844 C 141.144531 104.898438 139.503906 108.300781 136.613281 108.167969 L 119.625 107.367188 C 117.382812 107.261719 115.695312 109.398438 116.316406 111.5625 L 121.109375 128.316406 C 121.914062 131.128906 118.925781 133.519531 116.367188 132.101562 L 101.296875 123.761719 C 99.308594 122.664062 96.839844 123.863281 96.464844 126.105469 L 93.664062 143.03125 C 93.183594 145.941406 89.417969 146.796875 87.734375 144.378906 L 77.914062 130.3125 C 76.609375 128.449219 73.859375 128.4375 72.546875 130.289062 L 62.378906 144.613281 C 60.691406 146.988281 56.988281 146.15625 56.46875 143.289062 L 53.351562 125.980469 C 52.953125 123.761719 50.488281 122.59375 48.523438 123.6875 L 33.667969 131.984375 C 31.109375 133.414062 28.105469 131.023438 28.914062 128.203125 L 33.722656 111.367188 C 34.347656 109.1875 32.632812 107.039062 30.367188 107.179688 L 12.976562 108.242188 C 10.027344 108.425781 8.363281 104.921875 10.355469 102.738281 L 21.847656 90.171875 C 23.382812 88.488281 22.785156 85.789062 20.683594 84.914062 L 4.351562 78.105469 C 1.648438 76.984375 1.652344 73.144531 4.355469 72.027344 L 20.554688 65.332031 C 22.652344 64.46875 23.257812 61.785156 21.746094 60.09375 L 10.238281 47.214844 C 8.285156 45.03125 9.945312 41.570312 12.863281 41.734375 L 30.144531 42.710938 C 32.398438 42.839844 34.105469 40.695312 33.484375 38.519531 L 28.65625 21.550781 C 27.863281 18.753906 30.816406 16.371094 33.375 17.753906 L 48.539062 25.945312 C 50.519531 27.015625 52.953125 25.832031 53.339844 23.621094 Z M 53.339844 23.621094 " fill-opacity="1" fill-rule="nonzero"/><path fill="#000000" d="M 59.746094 146.8125 C 59.441406 146.8125 59.132812 146.777344 58.824219 146.707031 C 57.1875 146.34375 55.992188 145.09375 55.695312 143.441406 L 52.574219 126.132812 C 52.429688 125.332031 51.925781 124.675781 51.195312 124.324219 C 50.460938 123.972656 49.636719 124.003906 48.925781 124.402344 L 34.058594 132.6875 C 32.585938 133.507812 30.851562 133.367188 29.53125 132.316406 C 28.210938 131.269531 27.679688 129.609375 28.148438 127.988281 L 32.960938 111.152344 C 33.1875 110.363281 33.019531 109.550781 32.511719 108.910156 C 31.996094 108.273438 31.238281 107.933594 30.417969 107.988281 L 13.027344 109.050781 C 11.339844 109.15625 9.828125 108.265625 9.09375 106.726562 C 8.363281 105.1875 8.621094 103.457031 9.769531 102.203125 L 21.261719 89.640625 C 21.816406 89.03125 22.035156 88.226562 21.859375 87.421875 C 21.683594 86.621094 21.144531 85.976562 20.386719 85.660156 L 4.054688 78.855469 C 2.5 78.207031 1.535156 76.761719 1.535156 75.070312 C 1.535156 73.386719 2.503906 71.941406 4.066406 71.296875 L 20.265625 64.601562 C 21.015625 64.292969 21.554688 63.652344 21.742188 62.851562 C 21.921875 62.054688 21.710938 61.25 21.167969 60.632812 L 9.660156 47.753906 C 8.539062 46.496094 8.292969 44.769531 9.023438 43.253906 C 9.753906 41.734375 11.242188 40.847656 12.929688 40.941406 L 30.207031 41.921875 C 31.015625 41.964844 31.78125 41.628906 32.289062 40.988281 C 32.796875 40.351562 32.960938 39.539062 32.738281 38.75 L 27.90625 21.777344 C 27.453125 20.167969 27.972656 18.511719 29.273438 17.464844 C 30.578125 16.417969 32.300781 16.261719 33.769531 17.054688 L 48.9375 25.25 C 49.648438 25.632812 50.472656 25.652344 51.195312 25.296875 C 51.921875 24.945312 52.421875 24.28125 52.5625 23.488281 L 55.523438 6.675781 C 55.816406 5.019531 57.011719 3.761719 58.652344 3.390625 C 60.296875 3.027344 61.914062 3.648438 62.882812 5.023438 L 73.175781 19.636719 C 73.65625 20.316406 74.390625 20.707031 75.234375 20.691406 C 76.0625 20.683594 76.804688 20.28125 77.265625 19.59375 L 87.058594 5.054688 C 88.023438 3.621094 89.664062 2.96875 91.34375 3.351562 C 93.027344 3.730469 94.230469 5.03125 94.480469 6.746094 L 97.089844 24.457031 C 97.214844 25.289062 97.714844 25.972656 98.476562 26.335938 C 99.234375 26.699219 100.082031 26.664062 100.804688 26.242188 L 115.894531 17.394531 C 117.367188 16.527344 119.113281 16.644531 120.460938 17.699219 C 121.804688 18.746094 122.351562 20.421875 121.878906 22.058594 L 117.121094 38.636719 C 116.894531 39.421875 117.058594 40.234375 117.558594 40.871094 C 118.0625 41.511719 118.804688 41.855469 119.625 41.816406 L 136.820312 40.984375 C 138.464844 40.917969 139.960938 41.78125 140.683594 43.277344 C 141.414062 44.769531 141.191406 46.484375 140.105469 47.742188 L 128.953125 60.691406 C 128.425781 61.300781 128.226562 62.101562 128.414062 62.886719 C 128.601562 63.671875 129.132812 64.304688 129.875 64.613281 L 145.648438 71.238281 C 147.203125 71.886719 148.160156 73.34375 148.152344 75.027344 C 148.148438 76.714844 147.171875 78.160156 145.605469 78.796875 L 129.554688 85.351562 C 128.800781 85.65625 128.261719 86.289062 128.078125 87.082031 C 127.890625 87.875 128.089844 88.679688 128.625 89.296875 L 139.871094 102.191406 C 140.96875 103.453125 141.199219 105.160156 140.472656 106.664062 C 139.75 108.167969 138.265625 109.050781 136.601562 108.96875 L 119.613281 108.167969 C 118.796875 108.125 118.050781 108.472656 117.546875 109.109375 C 117.046875 109.746094 116.886719 110.5625 117.109375 111.339844 L 121.902344 128.09375 C 122.363281 129.714844 121.839844 131.371094 120.527344 132.421875 C 119.210938 133.472656 117.476562 133.617188 116.003906 132.804688 L 100.933594 124.464844 C 100.214844 124.066406 99.386719 124.050781 98.648438 124.40625 C 97.914062 124.761719 97.417969 125.429688 97.285156 126.238281 L 94.480469 143.167969 C 94.207031 144.839844 93.003906 146.109375 91.355469 146.484375 C 89.703125 146.867188 88.082031 146.226562 87.109375 144.839844 L 77.289062 130.773438 C 76.820312 130.101562 76.078125 129.714844 75.261719 129.714844 C 75.257812 129.714844 75.257812 129.714844 75.25 129.714844 C 74.4375 129.714844 73.695312 130.09375 73.222656 130.761719 L 63.058594 145.085938 C 62.257812 146.191406 61.042969 146.8125 59.746094 146.8125 Z M 50.132812 122.476562 C 50.730469 122.476562 51.324219 122.609375 51.886719 122.875 C 53.089844 123.445312 53.917969 124.53125 54.15625 125.847656 L 57.277344 143.15625 C 57.492188 144.355469 58.402344 144.96875 59.179688 145.144531 C 59.957031 145.320312 61.042969 145.152344 61.75 144.15625 L 71.917969 129.832031 C 72.691406 128.738281 73.902344 128.109375 75.238281 128.109375 C 75.246094 128.109375 75.25 128.109375 75.257812 128.109375 C 76.597656 128.117188 77.8125 128.753906 78.585938 129.855469 L 88.40625 143.921875 C 89.113281 144.933594 90.207031 145.097656 90.996094 144.921875 C 91.78125 144.742188 92.695312 144.121094 92.898438 142.902344 L 95.699219 125.976562 C 95.921875 124.644531 96.742188 123.546875 97.949219 122.960938 C 99.160156 122.375 100.523438 122.410156 101.703125 123.0625 L 116.777344 131.398438 C 117.851562 131.992188 118.894531 131.667969 119.527344 131.164062 C 120.152344 130.660156 120.699219 129.707031 120.367188 128.53125 L 115.574219 111.777344 C 115.207031 110.496094 115.46875 109.15625 116.296875 108.113281 C 117.125 107.066406 118.351562 106.5 119.691406 106.5625 L 136.679688 107.367188 C 137.90625 107.4375 138.6875 106.675781 139.03125 105.960938 C 139.375 105.246094 139.464844 104.152344 138.664062 103.242188 L 127.417969 90.34375 C 126.535156 89.335938 126.207031 88.007812 126.515625 86.710938 C 126.828125 85.40625 127.714844 84.367188 128.953125 83.867188 L 145.003906 77.3125 C 146.136719 76.847656 146.546875 75.824219 146.554688 75.015625 C 146.558594 74.214844 146.15625 73.1875 145.027344 72.710938 L 129.257812 66.085938 C 128.035156 65.574219 127.160156 64.542969 126.863281 63.25 C 126.558594 61.957031 126.878906 60.644531 127.742188 59.640625 L 138.898438 46.6875 C 139.6875 45.769531 139.597656 44.6875 139.246094 43.972656 C 138.902344 43.261719 138.113281 42.511719 136.894531 42.582031 L 119.703125 43.414062 C 118.382812 43.476562 117.132812 42.914062 116.304688 41.863281 C 115.472656 40.8125 115.210938 39.472656 115.578125 38.191406 L 120.339844 21.613281 C 120.683594 20.421875 120.117188 19.460938 119.472656 18.957031 C 118.832031 18.460938 117.761719 18.148438 116.695312 18.777344 L 101.605469 27.625 C 100.429688 28.308594 99 28.367188 97.773438 27.78125 C 96.546875 27.191406 95.699219 26.039062 95.503906 24.691406 L 92.890625 6.980469 C 92.710938 5.738281 91.789062 5.101562 90.984375 4.914062 C 90.183594 4.730469 89.074219 4.90625 88.371094 5.949219 L 78.578125 20.492188 C 77.832031 21.601562 76.582031 22.28125 75.238281 22.292969 C 75.222656 22.292969 75.210938 22.292969 75.199219 22.292969 C 73.871094 22.292969 72.628906 21.648438 71.863281 20.5625 L 61.566406 5.949219 C 60.863281 4.949219 59.78125 4.777344 59 4.953125 C 58.214844 5.128906 57.304688 5.746094 57.09375 6.949219 L 54.132812 23.761719 C 53.90625 25.074219 53.089844 26.15625 51.890625 26.734375 C 50.699219 27.3125 49.34375 27.285156 48.175781 26.652344 L 33.011719 18.460938 C 31.941406 17.878906 30.898438 18.207031 30.277344 18.710938 C 29.660156 19.210938 29.109375 20.164062 29.445312 21.332031 L 34.273438 38.304688 C 34.640625 39.597656 34.371094 40.9375 33.539062 41.984375 C 32.703125 43.03125 31.457031 43.585938 30.121094 43.511719 L 12.839844 42.535156 C 11.621094 42.457031 10.808594 43.214844 10.464844 43.9375 C 10.121094 44.664062 10.039062 45.765625 10.855469 46.675781 L 22.367188 59.558594 C 23.257812 60.558594 23.605469 61.886719 23.304688 63.195312 C 23.007812 64.507812 22.125 65.554688 20.882812 66.070312 L 4.683594 72.765625 C 3.550781 73.234375 3.148438 74.257812 3.148438 75.0625 C 3.148438 75.867188 3.550781 76.894531 4.679688 77.363281 L 21.011719 84.167969 C 22.238281 84.679688 23.144531 85.761719 23.429688 87.066406 C 23.714844 88.367188 23.351562 89.730469 22.453125 90.710938 L 10.960938 103.277344 C 10.125 104.1875 10.203125 105.292969 10.550781 106.027344 C 10.902344 106.757812 11.703125 107.519531 12.945312 107.4375 L 30.335938 106.371094 C 31.675781 106.285156 32.929688 106.84375 33.769531 107.894531 C 34.613281 108.941406 34.878906 110.285156 34.511719 111.578125 L 29.699219 128.414062 C 29.363281 129.597656 29.917969 130.550781 30.546875 131.046875 C 31.179688 131.546875 32.230469 131.867188 33.296875 131.277344 L 48.164062 122.992188 C 48.773438 122.652344 49.449219 122.476562 50.132812 122.476562 Z M 50.132812 122.476562 " fill-opacity="1" fill-rule="nonzero"/><path fill="#fef262" d="M 115.066406 75.050781 C 115.066406 76.359375 115 77.664062 114.875 78.960938 C 114.746094 80.261719 114.554688 81.554688 114.300781 82.835938 C 114.046875 84.117188 113.730469 85.382812 113.351562 86.632812 C 112.972656 87.882812 112.535156 89.113281 112.035156 90.320312 C 111.535156 91.527344 110.980469 92.707031 110.363281 93.855469 C 109.75 95.007812 109.082031 96.128906 108.355469 97.214844 C 107.632812 98.300781 106.855469 99.351562 106.027344 100.359375 C 105.203125 101.371094 104.328125 102.335938 103.40625 103.261719 C 102.484375 104.183594 101.519531 105.058594 100.511719 105.890625 C 99.503906 106.71875 98.457031 107.496094 97.375 108.222656 C 96.289062 108.945312 95.171875 109.617188 94.023438 110.234375 C 92.871094 110.851562 91.695312 111.40625 90.492188 111.90625 C 89.285156 112.40625 88.058594 112.847656 86.8125 113.226562 C 85.566406 113.605469 84.300781 113.921875 83.023438 114.175781 C 81.742188 114.433594 80.457031 114.625 79.160156 114.753906 C 77.859375 114.878906 76.558594 114.945312 75.257812 114.945312 C 73.953125 114.945312 72.652344 114.878906 71.355469 114.753906 C 70.058594 114.625 68.769531 114.433594 67.488281 114.175781 C 66.210938 113.921875 64.949219 113.605469 63.699219 113.226562 C 62.453125 112.847656 61.226562 112.40625 60.023438 111.90625 C 58.816406 111.40625 57.640625 110.851562 56.492188 110.234375 C 55.339844 109.617188 54.222656 108.945312 53.140625 108.222656 C 52.054688 107.496094 51.007812 106.71875 50 105.890625 C 48.992188 105.058594 48.027344 104.183594 47.105469 103.261719 C 46.183594 102.335938 45.3125 101.371094 44.484375 100.359375 C 43.65625 99.351562 42.878906 98.300781 42.15625 97.214844 C 41.433594 96.128906 40.761719 95.007812 40.148438 93.855469 C 39.53125 92.707031 38.976562 91.527344 38.476562 90.320312 C 37.976562 89.113281 37.539062 87.882812 37.160156 86.632812 C 36.78125 85.382812 36.464844 84.117188 36.210938 82.835938 C 35.957031 81.554688 35.765625 80.261719 35.640625 78.960938 C 35.511719 77.664062 35.445312 76.359375 35.445312 75.050781 C 35.445312 73.746094 35.511719 72.441406 35.640625 71.144531 C 35.765625 69.84375 35.957031 68.550781 36.210938 67.269531 C 36.464844 65.988281 36.78125 64.722656 37.160156 63.472656 C 37.539062 62.222656 37.976562 60.992188 38.476562 59.785156 C 38.976562 58.578125 39.53125 57.398438 40.148438 56.246094 C 40.761719 55.097656 41.433594 53.976562 42.15625 52.890625 C 42.878906 51.804688 43.65625 50.753906 44.484375 49.746094 C 45.3125 48.734375 46.183594 47.769531 47.105469 46.84375 C 48.027344 45.921875 48.992188 45.046875 50 44.214844 C 51.007812 43.386719 52.054688 42.609375 53.140625 41.882812 C 54.222656 41.160156 55.339844 40.488281 56.492188 39.871094 C 57.640625 39.253906 58.816406 38.699219 60.023438 38.199219 C 61.226562 37.699219 62.453125 37.257812 63.699219 36.878906 C 64.949219 36.5 66.210938 36.183594 67.488281 35.925781 C 68.769531 35.671875 70.058594 35.480469 71.355469 35.351562 C 72.652344 35.226562 73.953125 35.160156 75.257812 35.160156 C 76.558594 35.160156 77.859375 35.226562 79.160156 35.351562 C 80.457031 35.480469 81.742188 35.671875 83.023438 35.925781 C 84.300781 36.183594 85.566406 36.5 86.8125 36.878906 C 88.058594 37.257812 89.285156 37.699219 90.492188 38.199219 C 91.695312 38.699219 92.871094 39.253906 94.023438 39.871094 C 95.171875 40.488281 96.289062 41.160156 97.375 41.882812 C 98.457031 42.609375 99.503906 43.386719 100.511719 44.214844 C 101.519531 45.046875 102.484375 45.921875 103.40625 46.84375 C 104.328125 47.769531 105.203125 48.734375 106.027344 49.746094 C 106.855469 50.753906 107.632812 51.804688 108.355469 52.890625 C 109.082031 53.976562 109.75 55.097656 110.363281 56.246094 C 110.980469 57.398438 111.535156 58.578125 112.035156 59.785156 C 112.535156 60.992188 112.972656 62.222656 113.351562 63.472656 C 113.730469 64.722656 114.046875 65.988281 114.300781 67.269531 C 114.554688 68.550781 114.746094 69.84375 114.875 71.144531 C 115 72.441406 115.066406 73.746094 115.066406 75.050781 Z M 115.066406 75.050781 " fill-opacity="1" fill-rule="nonzero"/><path fill="#000000" d="M 75.257812 115.746094 C 52.859375 115.746094 34.648438 97.488281 34.648438 75.050781 C 34.648438 52.617188 52.867188 34.359375 75.257812 34.359375 C 97.644531 34.359375 115.867188 52.617188 115.867188 75.050781 C 115.867188 97.488281 97.644531 115.746094 75.257812 115.746094 Z M 75.257812 35.960938 C 53.742188 35.960938 36.246094 53.5 36.246094 75.050781 C 36.246094 96.609375 53.75 114.140625 75.257812 114.140625 C 96.765625 114.140625 114.265625 96.605469 114.265625 75.050781 C 114.265625 53.5 96.765625 35.960938 75.257812 35.960938 Z M 75.257812 35.960938 " fill-opacity="1" fill-rule="nonzero"/><path fill="#000000" d="M 60.667969 66.132812 C 60.667969 66.445312 60.636719 66.75 60.578125 67.054688 C 60.519531 67.359375 60.429688 67.65625 60.308594 67.941406 C 60.191406 68.226562 60.046875 68.5 59.875 68.757812 C 59.703125 69.015625 59.507812 69.253906 59.289062 69.472656 C 59.070312 69.691406 58.832031 69.890625 58.574219 70.0625 C 58.316406 70.234375 58.046875 70.378906 57.757812 70.496094 C 57.472656 70.617188 57.179688 70.707031 56.875 70.765625 C 56.570312 70.828125 56.265625 70.855469 55.957031 70.855469 C 55.648438 70.855469 55.339844 70.828125 55.035156 70.765625 C 54.734375 70.707031 54.4375 70.617188 54.152344 70.496094 C 53.867188 70.378906 53.59375 70.234375 53.339844 70.0625 C 53.082031 69.890625 52.84375 69.691406 52.625 69.472656 C 52.40625 69.253906 52.210938 69.015625 52.039062 68.757812 C 51.867188 68.5 51.71875 68.226562 51.601562 67.941406 C 51.484375 67.65625 51.394531 67.359375 51.335938 67.054688 C 51.273438 66.75 51.242188 66.445312 51.242188 66.132812 C 51.242188 65.824219 51.273438 65.515625 51.335938 65.214844 C 51.394531 64.910156 51.484375 64.613281 51.601562 64.328125 C 51.71875 64.039062 51.867188 63.769531 52.039062 63.511719 C 52.210938 63.253906 52.40625 63.015625 52.625 62.796875 C 52.84375 62.574219 53.082031 62.378906 53.339844 62.207031 C 53.59375 62.035156 53.867188 61.890625 54.152344 61.773438 C 54.4375 61.652344 54.734375 61.5625 55.035156 61.503906 C 55.339844 61.441406 55.648438 61.414062 55.957031 61.414062 C 56.265625 61.414062 56.570312 61.441406 56.875 61.503906 C 57.179688 61.5625 57.472656 61.652344 57.757812 61.773438 C 58.046875 61.890625 58.316406 62.035156 58.574219 62.207031 C 58.832031 62.378906 59.070312 62.574219 59.289062 62.796875 C 59.507812 63.015625 59.703125 63.253906 59.875 63.511719 C 60.046875 63.769531 60.191406 64.039062 60.308594 64.328125 C 60.429688 64.613281 60.519531 64.910156 60.578125 65.214844 C 60.636719 65.515625 60.667969 65.824219 60.667969 66.132812 Z M 60.667969 66.132812 " fill-opacity="1" fill-rule="nonzero"/><path fill="#ffffff" d="M 54.816406 64.285156 C 54.816406 64.4375 54.789062 64.582031 54.730469 64.722656 C 54.671875 64.863281 54.589844 64.984375 54.484375 65.09375 C 54.378906 65.199219 54.253906 65.28125 54.113281 65.339844 C 53.976562 65.398438 53.828125 65.425781 53.679688 65.425781 C 53.527344 65.425781 53.382812 65.398438 53.242188 65.339844 C 53.101562 65.28125 52.980469 65.199219 52.875 65.09375 C 52.765625 64.984375 52.683594 64.863281 52.625 64.722656 C 52.570312 64.582031 52.539062 64.4375 52.539062 64.285156 C 52.539062 64.132812 52.570312 63.988281 52.625 63.847656 C 52.683594 63.707031 52.765625 63.585938 52.875 63.480469 C 52.980469 63.371094 53.101562 63.289062 53.242188 63.230469 C 53.382812 63.171875 53.527344 63.144531 53.679688 63.144531 C 53.828125 63.144531 53.976562 63.171875 54.113281 63.230469 C 54.253906 63.289062 54.378906 63.371094 54.484375 63.480469 C 54.589844 63.585938 54.671875 63.707031 54.730469 63.847656 C 54.789062 63.988281 54.816406 64.132812 54.816406 64.285156 Z M 54.816406 64.285156 " fill-opacity="1" fill-rule="nonzero"/><path fill="#000000" d="M 98.429688 66.132812 C 98.429688 66.445312 98.398438 66.75 98.335938 67.054688 C 98.277344 67.359375 98.1875 67.65625 98.070312 67.941406 C 97.949219 68.226562 97.804688 68.5 97.632812 68.757812 C 97.460938 69.015625 97.265625 69.253906 97.046875 69.472656 C 96.828125 69.691406 96.589844 69.890625 96.332031 70.0625 C 96.078125 70.234375 95.804688 70.378906 95.519531 70.496094 C 95.234375 70.617188 94.9375 70.707031 94.636719 70.765625 C 94.332031 70.828125 94.023438 70.855469 93.714844 70.855469 C 93.40625 70.855469 93.101562 70.828125 92.796875 70.765625 C 92.492188 70.707031 92.199219 70.617188 91.914062 70.496094 C 91.625 70.378906 91.355469 70.234375 91.097656 70.0625 C 90.839844 69.890625 90.601562 69.691406 90.382812 69.472656 C 90.164062 69.253906 89.96875 69.015625 89.796875 68.757812 C 89.625 68.5 89.480469 68.226562 89.363281 67.941406 C 89.242188 67.65625 89.152344 67.359375 89.09375 67.054688 C 89.03125 66.75 89.003906 66.445312 89.003906 66.132812 C 89.003906 65.824219 89.03125 65.515625 89.09375 65.214844 C 89.152344 64.910156 89.242188 64.613281 89.363281 64.328125 C 89.480469 64.039062 89.625 63.769531 89.796875 63.511719 C 89.96875 63.253906 90.164062 63.015625 90.382812 62.796875 C 90.601562 62.574219 90.839844 62.378906 91.097656 62.207031 C 91.355469 62.035156 91.625 61.890625 91.914062 61.773438 C 92.199219 61.652344 92.492188 61.5625 92.796875 61.503906 C 93.101562 61.441406 93.40625 61.414062 93.714844 61.414062 C 94.023438 61.414062 94.332031 61.441406 94.636719 61.503906 C 94.9375 61.5625 95.234375 61.652344 95.519531 61.773438 C 95.804688 61.890625 96.078125 62.035156 96.332031 62.207031 C 96.589844 62.378906 96.828125 62.574219 97.046875 62.796875 C 97.265625 63.015625 97.460938 63.253906 97.632812 63.511719 C 97.804688 63.769531 97.949219 64.039062 98.070312 64.328125 C 98.1875 64.613281 98.277344 64.910156 98.335938 65.214844 C 98.398438 65.515625 98.429688 65.824219 98.429688 66.132812 Z M 98.429688 66.132812 " fill-opacity="1" fill-rule="nonzero"/><path fill="#ffffff" d="M 92.578125 64.285156 C 92.578125 64.4375 92.546875 64.582031 92.488281 64.722656 C 92.433594 64.863281 92.351562 64.984375 92.242188 65.09375 C 92.136719 65.199219 92.011719 65.28125 91.875 65.339844 C 91.734375 65.398438 91.589844 65.425781 91.4375 65.425781 C 91.289062 65.425781 91.140625 65.398438 91.003906 65.339844 C 90.863281 65.28125 90.738281 65.199219 90.632812 65.09375 C 90.527344 64.984375 90.445312 64.863281 90.386719 64.722656 C 90.328125 64.582031 90.300781 64.4375 90.300781 64.285156 C 90.300781 64.132812 90.328125 63.988281 90.386719 63.847656 C 90.445312 63.707031 90.527344 63.585938 90.632812 63.480469 C 90.738281 63.371094 90.863281 63.289062 91.003906 63.230469 C 91.140625 63.171875 91.289062 63.144531 91.4375 63.144531 C 91.589844 63.144531 91.734375 63.171875 91.875 63.230469 C 92.011719 63.289062 92.136719 63.371094 92.242188 63.480469 C 92.351562 63.585938 92.433594 63.707031 92.488281 63.847656 C 92.546875 63.988281 92.578125 64.132812 92.578125 64.285156 Z M 92.578125 64.285156 " fill-opacity="1" fill-rule="nonzero"/><path fill="#ef7b9c" d="M 57.621094 78.597656 C 57.621094 78.796875 57.585938 78.996094 57.519531 79.191406 C 57.453125 79.386719 57.355469 79.578125 57.226562 79.761719 C 57.097656 79.949219 56.9375 80.125 56.746094 80.289062 C 56.558594 80.457031 56.34375 80.609375 56.101562 80.75 C 55.863281 80.890625 55.601562 81.019531 55.320312 81.128906 C 55.035156 81.238281 54.738281 81.332031 54.421875 81.410156 C 54.109375 81.488281 53.785156 81.542969 53.453125 81.582031 C 53.117188 81.621094 52.78125 81.640625 52.441406 81.640625 C 52.101562 81.640625 51.765625 81.621094 51.429688 81.582031 C 51.097656 81.542969 50.773438 81.488281 50.457031 81.410156 C 50.144531 81.332031 49.847656 81.238281 49.5625 81.128906 C 49.28125 81.019531 49.019531 80.890625 48.777344 80.75 C 48.539062 80.609375 48.324219 80.457031 48.132812 80.289062 C 47.945312 80.125 47.785156 79.949219 47.65625 79.761719 C 47.523438 79.578125 47.425781 79.386719 47.359375 79.191406 C 47.292969 78.996094 47.261719 78.796875 47.261719 78.597656 C 47.261719 78.398438 47.292969 78.199219 47.359375 78.003906 C 47.425781 77.808594 47.523438 77.617188 47.65625 77.433594 C 47.785156 77.25 47.945312 77.074219 48.132812 76.910156 C 48.324219 76.742188 48.539062 76.589844 48.777344 76.445312 C 49.019531 76.304688 49.28125 76.179688 49.5625 76.070312 C 49.847656 75.957031 50.144531 75.863281 50.457031 75.789062 C 50.773438 75.710938 51.097656 75.652344 51.429688 75.613281 C 51.765625 75.574219 52.101562 75.554688 52.441406 75.554688 C 52.78125 75.554688 53.117188 75.574219 53.453125 75.613281 C 53.785156 75.652344 54.109375 75.710938 54.421875 75.789062 C 54.738281 75.863281 55.035156 75.957031 55.320312 76.070312 C 55.601562 76.179688 55.863281 76.304688 56.101562 76.445312 C 56.34375 76.589844 56.558594 76.742188 56.746094 76.910156 C 56.9375 77.074219 57.097656 77.25 57.226562 77.433594 C 57.355469 77.617188 57.453125 77.808594 57.519531 78.003906 C 57.585938 78.199219 57.621094 78.398438 57.621094 78.597656 Z M 57.621094 78.597656 " fill-opacity="1" fill-rule="nonzero"/><path fill="#ef7b9c" d="M 102.410156 78.597656 C 102.410156 78.796875 102.378906 78.996094 102.3125 79.191406 C 102.246094 79.386719 102.148438 79.578125 102.015625 79.761719 C 101.886719 79.949219 101.726562 80.125 101.539062 80.289062 C 101.347656 80.457031 101.132812 80.609375 100.894531 80.75 C 100.652344 80.890625 100.390625 81.019531 100.109375 81.128906 C 99.824219 81.238281 99.527344 81.332031 99.214844 81.410156 C 98.898438 81.488281 98.574219 81.542969 98.242188 81.582031 C 97.90625 81.621094 97.570312 81.640625 97.230469 81.640625 C 96.890625 81.640625 96.554688 81.621094 96.21875 81.582031 C 95.886719 81.542969 95.5625 81.488281 95.25 81.410156 C 94.933594 81.332031 94.636719 81.238281 94.351562 81.128906 C 94.070312 81.019531 93.808594 80.890625 93.570312 80.75 C 93.328125 80.609375 93.113281 80.457031 92.925781 80.289062 C 92.734375 80.125 92.574219 79.949219 92.445312 79.761719 C 92.316406 79.578125 92.21875 79.386719 92.152344 79.191406 C 92.085938 78.996094 92.050781 78.796875 92.050781 78.597656 C 92.050781 78.398438 92.085938 78.199219 92.152344 78.003906 C 92.21875 77.808594 92.316406 77.617188 92.445312 77.433594 C 92.574219 77.25 92.734375 77.074219 92.925781 76.910156 C 93.113281 76.742188 93.328125 76.589844 93.570312 76.445312 C 93.808594 76.304688 94.070312 76.179688 94.351562 76.070312 C 94.636719 75.957031 94.933594 75.863281 95.25 75.789062 C 95.5625 75.710938 95.886719 75.652344 96.21875 75.613281 C 96.554688 75.574219 96.890625 75.554688 97.230469 75.554688 C 97.570312 75.554688 97.90625 75.574219 98.242188 75.613281 C 98.574219 75.652344 98.898438 75.710938 99.214844 75.789062 C 99.527344 75.863281 99.824219 75.957031 100.109375 76.070312 C 100.390625 76.179688 100.652344 76.304688 100.894531 76.445312 C 101.132812 76.589844 101.347656 76.742188 101.539062 76.910156 C 101.726562 77.074219 101.886719 77.25 102.015625 77.433594 C 102.148438 77.617188 102.246094 77.808594 102.3125 78.003906 C 102.378906 78.199219 102.410156 78.398438 102.410156 78.597656 Z M 102.410156 78.597656 " fill-opacity="1" fill-rule="nonzero"/><path fill="#231f20" d="M 74.824219 87.96875 C 74.667969 87.96875 74.507812 87.960938 74.355469 87.957031 C 70.539062 87.769531 67.25 85.265625 66.355469 81.859375 C 66.238281 81.40625 66.507812 80.953125 66.957031 80.828125 C 67.40625 80.710938 67.863281 80.980469 67.984375 81.429688 C 68.691406 84.132812 71.347656 86.125 74.4375 86.277344 C 77.796875 86.441406 80.914062 84.355469 81.691406 81.429688 C 81.808594 80.980469 82.269531 80.71875 82.71875 80.835938 C 83.167969 80.953125 83.433594 81.414062 83.316406 81.863281 C 82.359375 85.457031 78.832031 87.96875 74.824219 87.96875 Z M 74.824219 87.96875 " fill-opacity="1" fill-rule="nonzero"/></svg>